LuxiMono.sfdir
StartChar: exclam
Encoding: 33 33 232
Width: 600
Flags: W
HStem: 0 108<240 361 240 361> 703 20<252 348 348 348>
VStem: 240 121<0 108 0 108> 252 96<531 723 531 723>
LayerCount: 2
Fore
SplineSet
240 0 m 1xe0
 240 108 l 1
 361 108 l 1
 361 0 l 1
 240 0 l 1xe0
270 205 m 1xd0
 252 531 l 1
 252 723 l 1
 348 723 l 1
 348 531 l 1
 330 205 l 1
 270 205 l 1xd0
EndSplineSet
EndChar
StartChar: quotedbl
Encoding: 34 34 255
Width: 600
Flags: W
LayerCount: 2
Fore
SplineSet
143 506 m 1
 119 771 l 1
 240 771 l 1
 215 506 l 1
 143 506 l 1
384 506 m 1
 360 771 l 1
 480 771 l 1
 456 506 l 1
 384 506 l 1
EndSplineSet
EndChar
StartChar: numbersign
Encoding: 35 35 257
Width: 600
Flags: MW
HStem: 0 20 217 61<35 135 20 150 35 201 216 328 409 532> 446 60<68 192 53 207 68 258 273 385 466 565> 703 20<261 328 328 328 454 520 520 520>
LayerCount: 2
Fore
SplineSet
81 0 m 1
 135 217 l 1
 20 217 l 1
 35 278 l 1
 150 278 l 1
 192 446 l 1
 53 446 l 1
 68 506 l 1
 207 506 l 1
 261 723 l 1
 328 723 l 1
 273 506 l 1
 400 506 l 1
 454 723 l 1
 520 723 l 1
 466 506 l 1
 581 506 l 1
 565 446 l 1
 451 446 l 1
 409 278 l 1
 547 278 l 1
 532 217 l 1
 394 217 l 1
 340 0 l 1
 273 0 l 1
 328 217 l 1
 201 217 l 1
 147 0 l 1
 81 0 l 1
216 278 m 1
 343 278 l 1
 385 446 l 1
 258 446 l 1
 216 278 l 1
EndSplineSet
EndChar
StartChar: dollar
Encoding: 36 36 214
Width: 600
Flags: W
HStem: 0 20
VStem: 88 87<531.5 582.5 531.5 598> 257 61<-60 0 -60 0 60 310> 269 61<435 663 402 663 723 783> 416 87<154.5 211>
LayerCount: 2
Fore
SplineSet
257 -60 m 1xa8
 257 0 l 1
 190 5 130 19 70 42 c 1
 70 188 l 1
 130 188 l 1
 142 91 l 1
 183 73 221 63 257 60 c 1
 257 341 l 1xa8
 213 367 l 2
 129 416 88 476 88 548 c 0
 88 648 154 711 269 723 c 1
 269 783 l 1
 330 783 l 1
 330 723 l 1
 383 722 434 711 489 687 c 1
 489 549 l 1
 429 549 l 1
 417 645 l 1
 387 657 364 663 340 663 c 2
 330 663 l 1
 330 402 l 1xd0
 372 379 l 2
 468 326 503 279 503 200 c 0
 503 88 433 12 318 0 c 1
 318 -60 l 1
 257 -60 l 1xa8
318 310 m 1
 318 60 l 1
 376 67 416 120 416 189 c 0
 416 233 394 266 350 291 c 2
 318 310 l 1
269 435 m 1xd0
 269 663 l 1
 205 647 175 612 175 553 c 0
 175 510 196 478 243 450 c 2
 269 435 l 1xd0
EndSplineSet
EndChar
StartChar: percent
Encoding: 37 37 278
Width: 600
Flags: W
HStem: -18 20 0 60<439 480.5 439 498.5> 301 60<439 481> 362 60<118 159.5 118 177> 663 60<118 160> 721 20<505 569 569 569>
VStem: 10 66<502 582 502 597.5> 202 66<503.5 582.5> 331 66<141 221 141 235.5> 523 66<141 220.5>
LayerCount: 2
Fore
SplineSet
30 -18 m 1x87c0
 505 741 l 1
 569 741 l 1
 93 -18 l 1
 30 -18 l 1x87c0
139 723 m 0x7bc0
 217 723 268 652 268 543 c 0
 268 432 217 362 137 362 c 0
 61 362 10 435 10 543 c 0
 10 652 61 723 139 723 c 0x7bc0
139 663 m 0
 97 663 76 622 76 542 c 0
 76 462 97 422 139 422 c 0
 180 422 202 464 202 543 c 0
 202 622 181 663 139 663 c 0
460 361 m 0
 538 361 589 290 589 181 c 0
 589 71 538 0 459 0 c 0
 382 0 331 72 331 181 c 0
 331 290 382 361 460 361 c 0
460 301 m 0
 418 301 397 260 397 182 c 0
 397 100 418 60 460 60 c 0
 501 60 523 102 523 180 c 0
 523 261 502 301 460 301 c 0
EndSplineSet
EndChar
StartChar: ampersand
Encoding: 38 38 249
Width: 600
Flags: W
HStem: -18 72<209.5 263.5> 0 20 681 61<263.5 303.5>
VStem: 28 87<165 249.5> 133 87<561.5 617 561.5 630.5> 342 87<572 628>
LayerCount: 2
Fore
SplineSet
453 0 m 1x7c
 407 54 l 1
 344 3 294 -18 233 -18 c 0x9c
 111 -18 28 71 28 202 c 0
 28 297 70 366 169 434 c 1
 144 491 133 535 133 580 c 0
 133 681 191 742 287 742 c 0
 379 742 429 694 429 606 c 0
 429 526 385 468 279 408 c 1
 335 300 386 218 429 162 c 1
 457 198 473 247 474 302 c 1
 473 308 l 1
 472 337 l 1
 424 337 l 1
 424 397 l 1
 582 397 l 1
 582 337 l 1
 547 337 l 1
 541 229 527 191 468 117 c 1
 522 60 l 1
 582 60 l 1
 582 0 l 1
 453 0 l 1x7c
370 101 m 1xbc
 312 175 255 268 198 383 c 1
 140 338 115 288 115 215 c 0
 115 115 167 54 252 54 c 0
 294 54 329 68 370 101 c 1xbc
253 458 m 1
 316 499 342 542 342 602 c 0
 342 654 322 681 285 681 c 0
 242 681 220 649 220 585 c 0
 220 538 230 497 253 458 c 1
EndSplineSet
EndChar
StartChar: quotesingle
Encoding: 39 39 254
Width: 600
Flags: W
LayerCount: 2
Fore
SplineSet
264 470 m 1
 228 771 l 1
 373 771 l 1
 336 470 l 1
 264 470 l 1
EndSplineSet
EndChar
StartChar: parenleft
Encoding: 40 40 245
Width: 600
Flags: MW
VStem: 157 103<253 370.5 253 380.5>
LayerCount: 2
Fore
SplineSet
480 -84 m 1
 480 -145 l 1
 389 -127 326 -89 268 -18 c 0
 194 72 157 185 157 313 c 0
 157 448 199 566 278 656 c 0
 334 720 394 754 480 771 c 1
 480 711 l 1
 414 691 370 657 332 598 c 0
 284 524 260 428 260 313 c 0
 260 193 287 93 338 18 c 0
 376 -35 417 -65 480 -84 c 1
EndSplineSet
EndChar
StartChar: parenright
Encoding: 41 41 246
Width: 600
Flags: MW
VStem: 342 102<256 373>
LayerCount: 2
Fore
SplineSet
121 -145 m 1
 121 -84 l 1
 188 -64 231 -31 270 29 c 0
 318 102 342 199 342 313 c 0
 342 433 315 533 263 608 c 0
 226 662 184 692 121 711 c 1
 121 771 l 1
 213 753 276 716 334 644 c 0
 407 554 444 442 444 313 c 0
 444 178 403 61 323 -30 c 0
 267 -94 208 -127 121 -145 c 1
EndSplineSet
EndChar
StartChar: asterisk
Encoding: 42 42 253
Width: 600
Flags: MW
HStem: 703 20<253 350 350 350>
LayerCount: 2
Fore
SplineSet
225 300 m 1
 141 352 l 1
 256 484 l 1
 263 471 275 462 293 458 c 1
 225 300 l 1
79 524 m 1
 107 617 l 1
 265 543 l 1
 255 532 249 520 250 510 c 0
 250 506 250 502 251 500 c 2
 251 499 l 1
 79 524 l 1
275 552 m 1
 253 723 l 1
 350 723 l 1
 325 552 l 1
 313 556 305 558 300 558 c 0
 295 558 286 556 275 552 c 1
336 542 m 1
 494 617 l 1
 522 523 l 1
 350 500 l 1
 350 505 l 1
 350 506 l 2
 350 521 346 531 336 542 c 1
383 300 m 1
 304 457 l 1
 321 459 333 467 343 481 c 1
 462 355 l 1
 383 300 l 1
EndSplineSet
EndChar
StartChar: plus
Encoding: 43 43 259
Width: 600
Flags: MW
HStem: 265 72<48 264 48 264 336 551>
VStem: 264 72<49 265 49 265 337 553>
LayerCount: 2
Fore
SplineSet
264 49 m 1
 264 265 l 1
 48 265 l 1
 48 337 l 1
 264 337 l 1
 264 553 l 1
 336 553 l 1
 336 337 l 1
 551 337 l 1
 551 265 l 1
 336 265 l 1
 336 49 l 1
 264 49 l 1
EndSplineSet
EndChar
StartChar: comma
Encoding: 44 44 226
Width: 600
Flags: MW
HStem: 0 20
VStem: 228 145<-156 57 -108 57 16 57 57 145 16 145>
LayerCount: 2
Fore
SplineSet
228 0 m 1
 228 145 l 1
 373 145 l 1
 373 57 l 2
 373 -25 355 -83 320 -118 c 0
 296 -142 274 -151 228 -156 c 1
 228 -108 l 1
 272 -100 283 -79 288 0 c 1
 228 0 l 1
EndSplineSet
EndChar
StartChar: hyphen
Encoding: 45 45 241
Width: 600
Flags: MW
HStem: 265 72<72 528 72 528>
LayerCount: 2
Fore
SplineSet
72 265 m 1
 72 337 l 1
 528 337 l 1
 528 265 l 1
 72 265 l 1
EndSplineSet
EndChar
StartChar: period
Encoding: 46 46 222
Width: 600
Flags: MW
HStem: 0 145<228 373 228 373>
VStem: 228 145<0 145 0 145>
LayerCount: 2
Fore
SplineSet
228 0 m 1
 228 145 l 1
 373 145 l 1
 373 0 l 1
 228 0 l 1
EndSplineSet
EndChar
StartChar: slash
Encoding: 47 47 240
Width: 600
Flags: W
LayerCount: 2
Fore
SplineSet
48 -145 m 1
 472 771 l 1
 552 771 l 1
 128 -145 l 1
 48 -145 l 1
EndSplineSet
EndChar
StartChar: zero
Encoding: 48 48 212
Width: 600
Flags: MW
HStem: -18 60<251.5 348 251.5 377> 681 60<252 348>
VStem: 47 104<259.5 464 259.5 480> 449 104<257 464.5>
LayerCount: 2
Fore
SplineSet
300 741 m 0
 457 741 553 597 553 363 c 0
 553 123 458 -18 296 -18 c 0
 143 -18 47 128 47 362 c 0
 47 598 143 741 300 741 c 0
300 681 m 0
 204 681 151 566 151 362 c 0
 151 157 204 42 299 42 c 0
 397 42 449 152 449 362 c 0
 449 567 396 681 300 681 c 0
EndSplineSet
EndChar
StartChar: one
Encoding: 49 49 203
Width: 600
Flags: MW
HStem: 0 60<55 272 55 272 369 585> 721 20<368 368>
LayerCount: 2
Fore
SplineSet
55 0 m 1
 55 60 l 1
 272 60 l 1
 272 641 l 1
 55 587 l 1
 55 647 l 1
 368 741 l 1
 369 60 l 1
 585 60 l 1
 585 0 l 1
 55 0 l 1
EndSplineSet
EndChar
StartChar: two
Encoding: 50 50 204
Width: 600
Flags: MW
HStem: 0 84<65 65 174 541> 681 60<267 323>
VStem: 417 103<512.5 587>
LayerCount: 2
Fore
SplineSet
65 0 m 1
 65 84 l 1
 100 144 142 196 191 240 c 2
 241 286 l 1
 301 341 l 2
 379 413 417 479 417 546 c 0
 417 628 364 681 282 681 c 0
 241 681 203 668 155 639 c 1
 144 524 l 1
 83 524 l 1
 83 695 l 1
 165 727 233 741 301 741 c 0
 437 741 520 667 520 546 c 0
 520 461 487 404 395 326 c 2
 353 291 l 2
 228 184 198 150 174 84 c 1
 541 84 l 1
 541 0 l 1
 65 0 l 1
EndSplineSet
EndChar
StartChar: three
Encoding: 51 51 205
Width: 600
Flags: W
HStem: -18 60<257 313 243 355.5> 681 60<253.5 313.5>
VStem: 90 17 405 98<524.5 597.5> 425 103<151.5 217 130.5 251.5>
LayerCount: 2
Fore
SplineSet
90 5 m 1xe8
 90 188 l 1
 150 188 l 1
 163 67 l 1
 192 50 223 42 263 42 c 0
 363 42 425 103 425 200 c 0xe8
 425 303 357 356 222 356 c 2
 156 356 l 1
 156 416 l 1
 212 416 l 2
 340 416 405 464 405 560 c 0
 405 635 355 681 272 681 c 0
 233 681 202 675 173 662 c 1
 168 560 l 1
 107 560 l 1
 107 715 l 1
 173 733 225 741 282 741 c 0
 428 741 503 683 503 569 c 0xf0
 503 480 460 426 362 390 c 1
 432 369 467 348 495 308 c 0
 517 277 528 239 528 195 c 0
 528 66 430 -18 281 -18 c 0
 233 -18 179 -13 132 -3 c 2
 90 5 l 1xe8
EndSplineSet
EndChar
StartChar: four
Encoding: 52 52 206
Width: 600
Flags: MW
HStem: 0 60<227 360 444 541 227 360> 205 73<116 360 41 41 444 553> 703 20<348 444 444 444>
VStem: 360 84<60 205 60 205 278 631 631 631>
LayerCount: 2
Fore
SplineSet
360 205 m 1
 41 205 l 1
 41 278 l 1
 348 723 l 1
 444 723 l 1
 444 278 l 1
 553 278 l 1
 553 205 l 1
 444 205 l 1
 444 60 l 1
 541 60 l 1
 541 0 l 1
 227 0 l 1
 227 60 l 1
 360 60 l 1
 360 205 l 1
116 278 m 1
 360 278 l 1
 360 631 l 1
 116 278 l 1
EndSplineSet
EndChar
StartChar: five
Encoding: 53 53 207
Width: 600
Flags: W
HStem: -18 60<260.5 315.5 260.5 347> 0 20 389 60<242 274.5> 639 84<208 511 208 208>
VStem: 137 71<448 639 448 723> 423 103<162 265.5>
LayerCount: 2
Fore
SplineSet
122 0 m 1x4c
 122 157 l 1
 182 157 l 1
 194 60 l 1
 227 47 249 42 272 42 c 0
 359 42 423 113 423 211 c 0
 423 320 340 389 209 389 c 0
 187 389 163 387 137 383 c 1
 137 723 l 1
 511 723 l 1
 511 639 l 1
 208 639 l 1
 208 448 l 1
 214 448 l 1
 222 448 l 2
 228 449 240 449 244 449 c 0
 416 449 526 357 526 215 c 0
 526 79 421 -18 273 -18 c 0xbc
 235 -18 185 -12 122 0 c 1x4c
EndSplineSet
EndChar
StartChar: six
Encoding: 54 54 208
Width: 600
Flags: MW
HStem: -18 60<283 366.5 283 384.5> 410 63<306.5 369> 681 60<299.5 377>
VStem: 60 111<232.5 285 181.5 471.5> 455 98<168 287>
LayerCount: 2
Fore
SplineSet
459 552 m 1
 448 654 l 1
 418 673 393 681 361 681 c 0
 238 681 166 570 164 378 c 1
 213 444 268 473 345 473 c 0
 470 473 553 379 553 237 c 0
 553 86 455 -18 314 -18 c 0
 155 -18 60 118 60 347 c 0
 60 596 171 741 361 741 c 0
 406 741 448 732 520 706 c 1
 520 552 l 1
 459 552 l 1
326 410 m 0
 238 410 171 335 171 235 c 0
 171 128 240 42 326 42 c 0
 407 42 455 110 455 226 c 0
 455 348 412 410 326 410 c 0
EndSplineSet
EndChar
StartChar: seven
Encoding: 55 55 209
Width: 600
Flags: MW
HStem: 0 20 633 90<71 442 71 517 71 517>
LayerCount: 2
Fore
SplineSet
250 0 m 1
 129 0 l 1
 149 139 217 298 328 464 c 2
 389 554 l 1
 442 633 l 1
 71 633 l 1
 71 723 l 1
 517 723 l 1
 517 633 l 1
 475 575 l 2
 332 379 249 166 250 0 c 1
EndSplineSet
EndChar
StartChar: eight
Encoding: 56 56 210
Width: 600
Flags: W
HStem: -18 60<261.5 346.5 261.5 372> 681 60<265 340>
VStem: 59 96<142.5 214.5 142.5 219> 92 90<562.5 609.5 562.5 612.5> 424 90<549 608.5> 441 103<130.5 195>
LayerCount: 2
Fore
SplineSet
202 392 m 1xe4
 176 412 l 2
 119 455 92 502 92 559 c 0
 92 666 182 741 310 741 c 0
 433 741 514 677 514 579 c 0xd8
 514 513 496 482 413 408 c 2
 390 387 l 1
 423 365 l 2
 515 303 544 260 544 186 c 0
 544 64 445 -18 299 -18 c 0
 153 -18 59 61 59 182 c 0
 59 256 97 318 175 373 c 2
 202 392 l 1xe4
292 447 m 1
 333 421 l 1
 398 480 424 524 424 574 c 0
 424 643 380 681 300 681 c 0
 230 681 182 640 182 579 c 0
 182 546 201 516 244 484 c 2
 292 447 l 1
349 297 m 2xe4
 250 363 l 1
 172 277 155 245 155 184 c 0
 155 101 217 42 306 42 c 0
 387 42 441 92 441 169 c 0
 441 221 421 249 349 297 c 2xe4
EndSplineSet
EndChar
StartChar: nine
Encoding: 57 57 211
Width: 600
Flags: MW
HStem: -18 60<222.5 299.5 222.5 334> 250 63<230.5 293> 681 60<233.5 316.5>
VStem: 47 98<436 555 436 561.5> 429 111<438.5 490.5 251.5 541.5>
LayerCount: 2
Fore
SplineSet
140 171 m 1
 152 69 l 1
 182 50 207 42 238 42 c 0
 361 42 434 153 436 345 c 1
 387 279 332 250 254 250 c 0
 130 250 47 345 47 486 c 0
 47 637 144 741 286 741 c 0
 446 741 540 605 540 376 c 0
 540 127 429 -18 239 -18 c 0
 194 -18 152 -9 80 17 c 1
 80 171 l 1
 140 171 l 1
274 681 m 0
 193 681 145 613 145 497 c 0
 145 375 188 313 273 313 c 0
 362 313 429 388 429 489 c 0
 429 594 359 681 274 681 c 0
EndSplineSet
EndChar
StartChar: colon
Encoding: 58 58 223
Width: 600
Flags: MW
HStem: 0 145<228 373 228 373> 385 145<228 373 228 373>
VStem: 228 145<0 145 0 145 385 530>
LayerCount: 2
Fore
SplineSet
228 0 m 1
 228 145 l 1
 373 145 l 1
 373 0 l 1
 228 0 l 1
228 385 m 1
 228 530 l 1
 373 530 l 1
 373 385 l 1
 228 385 l 1
EndSplineSet
EndChar
StartChar: less
Encoding: 60 60 300
Width: 600
Flags: MW
HStem: 0 20
LayerCount: 2
Fore
SplineSet
552 0 m 1
 48 301 l 1
 552 603 l 1
 552 518 l 1
 189 301 l 1
 552 84 l 1
 552 0 l 1
EndSplineSet
EndChar
StartChar: equal
Encoding: 61 61 263
Width: 600
Flags: MW
HStem: 169 72<48 551 48 551> 362 72<48 551 48 551>
LayerCount: 2
Fore
SplineSet
48 169 m 1
 48 241 l 1
 551 241 l 1
 551 169 l 1
 48 169 l 1
48 362 m 1
 48 434 l 1
 551 434 l 1
 551 362 l 1
 48 362 l 1
EndSplineSet
EndChar
StartChar: greater
Encoding: 62 62 301
Width: 600
Flags: MW
HStem: 0 20
LayerCount: 2
Fore
SplineSet
48 0 m 1
 48 84 l 1
 411 301 l 1
 48 518 l 1
 48 603 l 1
 552 301 l 1
 48 0 l 1
EndSplineSet
EndChar
StartChar: question
Encoding: 63 63 234
Width: 600
Flags: MW
HStem: 0 108<203 324 203 324> 681 60<274 335>
VStem: 203 121<0 108 0 108> 424 103<549 603>
LayerCount: 2
Fore
SplineSet
203 0 m 1
 203 108 l 1
 324 108 l 1
 324 0 l 1
 203 0 l 1
215 205 m 1
 215 234 l 2
 215 312 252 379 322 428 c 2
 355 451 l 2
 400 483 424 523 424 568 c 0
 424 638 375 681 295 681 c 0
 253 681 215 672 171 651 c 1
 160 524 l 1
 99 524 l 1
 99 708 l 1
 173 731 234 741 300 741 c 0
 450 741 527 685 527 576 c 0
 527 522 504 478 455 442 c 2
 428 421 l 2
 427 421 425 419 422 417 c 2
 414 411 l 1
 392 396 l 2
 323 347 311 325 311 235 c 2
 311 205 l 1
 215 205 l 1
EndSplineSet
EndChar
StartChar: at
Encoding: 64 64 256
Width: 600
Flags: MW
HStem: -18 60<266.5 355> 139 69<296 333.5 296 335.5> 530 45<348 388.5 324.5 399> 681 60<256.5 360.5>
VStem: 42 60<261.5 455 261.5 468> 187 72<293.5 390.5 293.5 391> 461 60<202 321 321 321 452 507 507 507>
LayerCount: 2
Fore
SplineSet
461 73 m 1
 461 6 l 1
 409 -11 373 -18 337 -18 c 0
 156 -18 42 124 42 351 c 0
 42 585 157 741 329 741 c 0
 457 741 521 663 521 509 c 2
 521 202 l 1
 579 202 l 1
 579 142 l 1
 461 142 l 1
 461 321 l 1
 449 321 l 1
 421 205 368 139 303 139 c 0
 235 139 187 213 187 319 c 0
 187 463 271 575 378 575 c 0
 399 575 423 571 457 562 c 1
 439 645 398 681 323 681 c 0
 190 681 102 552 102 358 c 0
 102 165 194 42 339 42 c 0
 379 42 414 51 461 73 c 1
461 452 m 1
 461 507 l 1
 433 523 411 530 387 530 c 0
 309 530 259 452 259 329 c 0
 259 258 281 208 311 208 c 0
 356 208 401 281 461 452 c 1
EndSplineSet
EndChar
StartChar: B
Encoding: 66 66 134
Width: 600
Flags: W
HStem: 0 60<36 120 216 296 296 325 36 120> 663 60<36 120 36 337 216 216 216 314>
VStem: 120 96<60 343 404 663> 417 103<519 592> 439 103<145 208 123 236>
LayerCount: 2
Fore
SplineSet
120 60 m 1xe8
 120 663 l 1
 36 663 l 1
 36 723 l 1
 337 723 l 2
 459 723 520 670 520 564 c 0xf0
 520 474 479 417 385 377 c 1
 449 359 481 341 508 303 c 0
 531 272 542 232 542 184 c 0
 542 62 470 0 325 0 c 2
 36 0 l 1
 36 60 l 1
 120 60 l 1xe8
216 60 m 1
 296 60 l 2
 391 60 439 103 439 187 c 0xe8
 439 285 373 343 263 343 c 2
 216 343 l 1
 216 60 l 1
216 404 m 1
 264 404 l 2
 365 404 417 456 417 556 c 0xf0
 417 628 383 663 314 663 c 2
 216 663 l 1
 216 404 l 1
EndSplineSet
EndChar
StartChar: C
Encoding: 67 67 135
Width: 600
Flags: MW
HStem: -18 66<307.5 392.5> 681 60<296 375>
VStem: 60 104<261 460.5 261 486> 540 10
LayerCount: 2
Fore
SplineSet
550 114 m 1
 550 36 l 1
 479 -2 424 -18 361 -18 c 0
 171 -18 60 124 60 366 c 0
 60 606 165 741 354 741 c 0
 409 741 467 731 540 710 c 1
 540 542 l 1
 480 542 l 1
 466 655 l 1
 428 673 393 681 357 681 c 0
 235 681 164 562 164 359 c 0
 164 163 242 48 373 48 c 0
 433 48 488 68 550 114 c 1
EndSplineSet
EndChar
StartChar: D
Encoding: 68 68 136
Width: 600
Flags: MW
HStem: 0 60<24 96 24 96 193 251 251 282> 663 60<24 96 24 273 193 193 193 244>
VStem: 96 97<60 663> 466 104<266 468.5>
LayerCount: 2
Fore
SplineSet
24 0 m 1
 24 60 l 1
 96 60 l 1
 96 663 l 1
 24 663 l 1
 24 723 l 1
 273 723 l 2
 470 723 570 608 570 379 c 0
 570 146 459 0 282 0 c 2
 24 0 l 1
193 60 m 1
 251 60 l 2
 393 60 466 164 466 368 c 0
 466 569 395 663 244 663 c 2
 193 663 l 1
 193 60 l 1
EndSplineSet
EndChar
StartChar: F
Encoding: 70 70 138
Width: 600
Flags: MW
HStem: 0 60<54 162 258 391 54 162> 319 60<258 404 258 404> 663 60<54 162 54 554 258 258 258 494>
VStem: 162 96<60 319 379 663> 494 60<542 663 663 663>
LayerCount: 2
Fore
SplineSet
258 60 m 1
 391 60 l 1
 391 0 l 1
 54 0 l 1
 54 60 l 1
 162 60 l 1
 162 663 l 1
 54 663 l 1
 54 723 l 1
 554 723 l 1
 554 542 l 1
 494 542 l 1
 494 663 l 1
 258 663 l 1
 258 379 l 1
 404 379 l 1
 404 440 l 1
 464 440 l 1
 464 259 l 1
 404 259 l 1
 404 319 l 1
 258 319 l 1
 258 60 l 1
EndSplineSet
EndChar
StartChar: G
Encoding: 71 71 139
Width: 600
Flags: MW
HStem: -18 66<284.5 365 284.5 375.5> 262 60<347 431 347 528> 682 60<273 355>
VStem: 36 104<260.5 466 260.5 487.5> 431 97<64 262 262 262>
LayerCount: 2
Fore
SplineSet
528 322 m 1
 528 36 l 1
 464 -2 410 -18 341 -18 c 0
 147 -18 36 122 36 365 c 0
 36 610 141 742 336 742 c 0
 393 742 449 732 516 711 c 1
 516 542 l 1
 456 542 l 1
 442 655 l 1
 403 674 372 682 338 682 c 0
 208 682 140 572 140 360 c 0
 140 161 217 48 352 48 c 0
 378 48 401 53 431 64 c 1
 431 262 l 1
 347 262 l 1
 347 322 l 1
 528 322 l 1
EndSplineSet
EndChar
StartChar: H
Encoding: 72 72 140
Width: 600
Flags: MW
HStem: 0 20 343 61<180 419 180 419> 703 20<30 228 228 228 371 570 570 570>
VStem: 84 96<60 343 60 404 404 663> 419 97<60 343 343 343 404 663 60 663>
LayerCount: 2
Fore
SplineSet
180 343 m 1
 180 60 l 1
 228 60 l 1
 228 0 l 1
 30 0 l 1
 30 60 l 1
 84 60 l 1
 84 663 l 1
 30 663 l 1
 30 723 l 1
 228 723 l 1
 228 663 l 1
 180 663 l 1
 180 404 l 1
 419 404 l 1
 419 663 l 1
 371 663 l 1
 371 723 l 1
 570 723 l 1
 570 663 l 1
 516 663 l 1
 516 60 l 1
 570 60 l 1
 570 0 l 1
 371 0 l 1
 371 60 l 1
 419 60 l 1
 419 343 l 1
 180 343 l 1
EndSplineSet
EndChar
StartChar: I
Encoding: 73 73 141
Width: 600
Flags: MW
HStem: 0 60<78 251 78 251 348 521> 663 60<78 251 78 521 348 348 348 521>
VStem: 251 97<60 663 60 663>
LayerCount: 2
Fore
SplineSet
78 0 m 1
 78 60 l 1
 251 60 l 1
 251 663 l 1
 78 663 l 1
 78 723 l 1
 521 723 l 1
 521 663 l 1
 348 663 l 1
 348 60 l 1
 521 60 l 1
 521 0 l 1
 78 0 l 1
EndSplineSet
EndChar
StartChar: J
Encoding: 74 74 142
Width: 600
Flags: MW
HStem: -18 60<214 266 214 306.5> 663 60<142 335 142 558 431 431 431 558>
VStem: 335 96<157 177 177 663>
LayerCount: 2
Fore
SplineSet
54 15 m 1
 54 217 l 1
 114 217 l 1
 133 66 l 1
 172 49 200 42 228 42 c 0
 304 42 335 76 335 157 c 2
 335 663 l 1
 142 663 l 1
 142 723 l 1
 558 723 l 1
 558 663 l 1
 431 663 l 1
 431 177 l 2
 431 38 375 -18 238 -18 c 0
 183 -18 131 -9 54 15 c 1
EndSplineSet
EndChar
StartChar: K
Encoding: 75 75 143
Width: 600
Flags: MW
HStem: 0 20 703 20<36 246 246 246 354 528 528 528>
VStem: 99 96<60 362 369 663>
LayerCount: 2
Fore
SplineSet
36 0 m 1
 36 60 l 1
 99 60 l 1
 99 663 l 1
 36 663 l 1
 36 723 l 1
 246 723 l 1
 246 663 l 1
 195 663 l 1
 195 369 l 1
 198 369 l 1
 408 663 l 1
 354 663 l 1
 354 723 l 1
 528 723 l 1
 528 663 l 1
 483 663 l 1
 289 396 l 1
 548 60 l 1
 584 60 l 1
 584 0 l 1
 376 0 l 1
 376 60 l 1
 430 60 l 1
 198 362 l 1
 195 362 l 1
 195 60 l 1
 255 60 l 1
 255 0 l 1
 36 0 l 1
EndSplineSet
EndChar
StartChar: M
Encoding: 77 77 145
Width: 600
Flags: MW
HStem: 0 20 703 20<12 152 152 152 457 588 588 588>
VStem: 54 61<60 570 60 663> 467 79<60 551 551 551>
LayerCount: 2
Fore
SplineSet
12 0 m 1
 12 60 l 1
 54 60 l 1
 54 663 l 1
 12 663 l 1
 12 723 l 1
 152 723 l 1
 301 226 l 1
 302 226 l 1
 457 723 l 1
 588 723 l 1
 588 663 l 1
 546 663 l 1
 546 60 l 1
 588 60 l 1
 588 0 l 1
 432 0 l 1
 432 60 l 1
 467 60 l 1
 467 551 l 1
 466 551 l 1
 324 95 l 1
 258 95 l 1
 116 570 l 1
 115 570 l 1
 115 60 l 1
 157 60 l 1
 157 0 l 1
 12 0 l 1
EndSplineSet
EndChar
StartChar: P
Encoding: 80 80 148
Width: 600
Flags: MW
HStem: 0 60<42 138 235 374 42 138> 663 60<42 138 42 365 235 235 235 333>
VStem: 138 97<60 292 353 663> 446 103<473 576>
LayerCount: 2
Fore
SplineSet
235 292 m 1
 235 60 l 1
 374 60 l 1
 374 0 l 1
 42 0 l 1
 42 60 l 1
 138 60 l 1
 138 663 l 1
 42 663 l 1
 42 723 l 1
 365 723 l 2
 488 723 549 665 549 547 c 0
 549 389 452 292 293 292 c 2
 235 292 l 1
235 353 m 1
 289 353 l 2
 393 353 446 414 446 532 c 0
 446 620 409 663 333 663 c 2
 235 663 l 1
 235 353 l 1
EndSplineSet
EndChar
StartChar: Q
Encoding: 81 81 149
Width: 600
Flags: MW
HStem: 681 60<247.5 352.5>
VStem: 30 104<297 463 260.5 474.5> 466 104<271.5 462.5>
LayerCount: 2
Fore
SplineSet
300 -18 m 1
 215 -4 173 12 138 47 c 0
 71 113 30 232 30 362 c 0
 30 587 140 741 300 741 c 0
 460 741 570 586 570 362 c 0
 570 181 504 52 385 -1 c 1
 438 -34 508 -60 597 -79 c 1
 575 -106 547 -133 515 -156 c 1
 446 -130 376 -85 300 -18 c 1
300 681 m 0
 195 681 134 564 134 362 c 0
 134 159 195 42 300 42 c 0
 408 42 466 152 466 361 c 0
 466 564 405 681 300 681 c 0
EndSplineSet
EndChar
StartChar: T
Encoding: 84 84 152
Width: 600
Flags: MW
HStem: 0 60<125 252 125 252 349 475> 663 60<90 252 90 90 349 349 349 509>
VStem: 30 60<531 663 531 723> 252 97<60 663 60 663> 509 61<531 663 663 663>
LayerCount: 2
Fore
SplineSet
125 0 m 1
 125 60 l 1
 252 60 l 1
 252 663 l 1
 90 663 l 1
 90 531 l 1
 30 531 l 1
 30 723 l 1
 570 723 l 1
 570 531 l 1
 509 531 l 1
 509 663 l 1
 349 663 l 1
 349 60 l 1
 475 60 l 1
 475 0 l 1
 125 0 l 1
EndSplineSet
EndChar
StartChar: V
Encoding: 86 86 154
Width: 600
Flags: MW
HStem: 0 20 663 60<13 49 13 226 150 150 150 226 419 489 552 552 552 588>
LayerCount: 2
Fore
SplineSet
254 0 m 1
 49 663 l 1
 13 663 l 1
 13 723 l 1
 226 723 l 1
 226 663 l 1
 150 663 l 1
 319 116 l 1
 320 116 l 1
 489 663 l 1
 419 663 l 1
 419 723 l 1
 588 723 l 1
 588 663 l 1
 552 663 l 1
 346 0 l 1
 254 0 l 1
EndSplineSet
EndChar
StartChar: W
Encoding: 87 87 155
Width: 600
Flags: MW
HStem: 0 20 703 20<11 162 162 162 456 589 589 589>
LayerCount: 2
Fore
SplineSet
118 0 m 1
 35 663 l 1
 11 663 l 1
 11 723 l 1
 162 723 l 1
 162 663 l 1
 114 663 l 1
 179 137 l 1
 180 137 l 1
 271 614 l 1
 347 614 l 1
 437 139 l 1
 439 139 l 1
 504 663 l 1
 456 663 l 1
 456 723 l 1
 589 723 l 1
 589 663 l 1
 565 663 l 1
 482 0 l 1
 390 0 l 1
 301 475 l 1
 300 475 l 1
 210 0 l 1
 118 0 l 1
EndSplineSet
EndChar
StartChar: X
Encoding: 88 88 156
Width: 600
Flags: MW
HStem: 0 60<24 78 24 78 141 216 359 420 528 576> 703 20<24 229 229 229 399 576 576 576>
LayerCount: 2
Fore
SplineSet
24 0 m 1
 24 60 l 1
 78 60 l 1
 249 357 l 1
 72 663 l 1
 24 663 l 1
 24 723 l 1
 229 723 l 1
 229 663 l 1
 180 663 l 1
 321 419 l 1
 462 663 l 1
 399 663 l 1
 399 723 l 1
 576 723 l 1
 576 663 l 1
 524 663 l 1
 352 364 l 1
 528 60 l 1
 576 60 l 1
 576 0 l 1
 359 0 l 1
 359 60 l 1
 420 60 l 1
 280 302 l 1
 141 60 l 1
 216 60 l 1
 216 0 l 1
 24 0 l 1
EndSplineSet
EndChar
StartChar: Y
Encoding: 89 89 157
Width: 600
Flags: MW
HStem: 0 60<144 252 144 252 348 456> 663 60<13 55 13 239 167 167 167 239 403 475 544 544 544 586>
VStem: 252 96<60 322 322 322>
LayerCount: 2
Fore
SplineSet
144 0 m 1
 144 60 l 1
 252 60 l 1
 252 322 l 1
 55 663 l 1
 13 663 l 1
 13 723 l 1
 239 723 l 1
 239 663 l 1
 167 663 l 1
 320 397 l 1
 321 397 l 1
 475 663 l 1
 403 663 l 1
 403 723 l 1
 586 723 l 1
 586 663 l 1
 544 663 l 1
 348 323 l 1
 348 60 l 1
 456 60 l 1
 456 0 l 1
 144 0 l 1
EndSplineSet
EndChar
StartChar: bracketleft
Encoding: 91 91 247
Width: 600
Flags: MW
HStem: -145 60<277 458 277 458> 711 60<277 458 277 277>
VStem: 193 84<-85 711 -85 771 -85 771>
LayerCount: 2
Fore
SplineSet
193 -145 m 1
 193 771 l 1
 458 771 l 1
 458 711 l 1
 277 711 l 1
 277 -85 l 1
 458 -85 l 1
 458 -145 l 1
 193 -145 l 1
EndSplineSet
EndChar
StartChar: backslash
Encoding: 92 92 280
Width: 600
Flags: W
LayerCount: 2
Fore
SplineSet
552 -145 m 1
 472 -145 l 1
 48 771 l 1
 128 771 l 1
 552 -145 l 1
EndSplineSet
EndChar
StartChar: bracketright
Encoding: 93 93 248
Width: 600
Flags: MW
HStem: -145 60<142 323 142 407 142 323> 711 60<142 323 142 407>
VStem: 323 84<-85 711 711 711>
LayerCount: 2
Fore
SplineSet
407 -145 m 1
 142 -145 l 1
 142 -85 l 1
 323 -85 l 1
 323 711 l 1
 142 711 l 1
 142 771 l 1
 407 771 l 1
 407 -145 l 1
EndSplineSet
EndChar
StartChar: asciicircum
Encoding: 94 94 303
Width: 600
Flags: MW
HStem: 703 20<300 300>
LayerCount: 2
Fore
SplineSet
71 265 m 1
 300 723 l 1
 529 265 l 1
 448 265 l 1
 300 561 l 1
 152 265 l 1
 71 265 l 1
EndSplineSet
EndChar
StartChar: underscore
Encoding: 95 95 306
Width: 600
Flags: MW
HStem: -72 72<0 600 0 600>
LayerCount: 2
Fore
SplineSet
0 0 m 1
 600 0 l 1
 600 -72 l 1
 0 -72 l 1
 0 0 l 1
EndSplineSet
EndChar
StartChar: grave
Encoding: 96 96 285
Width: 600
Flags: W
LayerCount: 2
Fore
SplineSet
408 626 m 1
 348 626 l 1
 191 783 l 1
 302 783 l 1
 408 626 l 1
EndSplineSet
EndChar
StartChar: b
Encoding: 98 98 167
Width: 600
Flags: W
HStem: -12 72<285 345 278.5 376.5> 0 20 464 78<331.5 374>
VStem: 90 97<0 71 71 349 422 711 711 711> 444 102<204 342.5>
LayerCount: 2
Fore
SplineSet
187 0 m 1x58
 90 0 l 1x78
 90 711 l 1
 30 711 l 1
 30 771 l 1
 187 771 l 1
 187 422 l 1
 244 506 297 542 366 542 c 0
 474 542 546 441 546 287 c 0
 546 101 453 -12 300 -12 c 0xb8
 270 -12 237 -8 187 0 c 1x58
187 349 m 1
 187 71 l 1
 236 63 266 60 291 60 c 0x98
 399 60 444 126 444 282 c 0
 444 403 409 464 339 464 c 0
 283 464 237 429 187 349 c 1
EndSplineSet
EndChar
StartChar: d
Encoding: 100 100 169
Width: 600
Flags: W
HStem: -12 79<226 268.5> 0 20 470 72<255.5 316 224.5 321> 711 60<293 413 293 510>
VStem: 54 102<188 326.5 188 336.5> 413 97<60 108 108 108 181 458 458 458 530 711 711 711>
LayerCount: 2
Fore
SplineSet
413 711 m 1xbc
 293 711 l 1
 293 771 l 1
 510 771 l 1
 510 60 l 1
 570 60 l 1
 570 0 l 1
 413 0 l 1x5c
 413 108 l 1
 356 24 303 -12 234 -12 c 0
 126 -12 54 90 54 243 c 0
 54 430 147 542 302 542 c 0
 330 542 367 538 413 530 c 1
 413 711 l 1xbc
413 181 m 1xac
 413 458 l 1
 368 466 333 470 309 470 c 0
 202 470 156 404 156 249 c 0
 156 127 191 67 261 67 c 0
 317 67 363 101 413 181 c 1xac
EndSplineSet
EndChar
StartChar: f
Encoding: 102 102 171
Width: 600
Flags: MW
HStem: 0 60<72 204 72 204 301 482> 452 66<72 204 72 204 301 518> 723 61<366 419>
VStem: 204 97<60 452 60 452 518 576 576 586>
LayerCount: 2
Fore
SplineSet
72 0 m 1
 72 60 l 1
 204 60 l 1
 204 452 l 1
 72 452 l 1
 72 518 l 1
 204 518 l 1
 204 576 l 2
 204 722 260 784 392 784 c 0
 451 784 503 773 570 744 c 1
 570 624 l 1
 510 624 l 1
 495 700 l 1
 460 716 433 723 405 723 c 0
 327 723 301 688 301 586 c 2
 301 518 l 1
 518 518 l 1
 518 452 l 1
 301 452 l 1
 301 60 l 1
 482 60 l 1
 482 0 l 1
 72 0 l 1
EndSplineSet
EndChar
StartChar: g
Encoding: 103 103 172
Width: 600
Flags: W
HStem: -205 61<230 326 230 354> 0 72<197 388 235 355> 155 60<265 311.5 239.5 335.5> 482 60<241.5 293 210.5 312.5>
VStem: 42 96<-101 -83.5> 59 96<311.5 383 305 406.5> 84 83<60.5 106> 398 90<307.5 365.5 289 386> 442 97<-84 -38.5>
LayerCount: 2
Fore
SplineSet
103 -12 m 2
 130 6 l 1
 98 26 84 47 84 74 c 0xf280
 84 103 102 133 141 168 c 2
 158 184 l 1
 89 227 59 275 59 348 c 0xf4
 59 465 145 542 276 542 c 0
 310 542 337 537 367 526 c 1
 566 542 l 1
 538 455 l 1
 438 471 l 1
 473 425 488 388 488 343 c 0
 488 235 397 155 274 155 c 0
 256 155 238 157 215 161 c 1
 196 145 l 2
 176 127 167 113 167 99 c 0xf3
 167 81 189 72 235 72 c 2
 388 72 l 2
 488 72 539 34 539 -42 c 0
 539 -150 445 -205 263 -205 c 0
 117 -205 42 -169 42 -99 c 0xf880
 42 -68 63 -38 103 -12 c 2
197 0 m 1
 178 -15 l 2
 151 -35 138 -56 138 -80 c 0xf9
 138 -122 185 -144 275 -144 c 0
 377 -144 442 -110 442 -58 c 0
 442 -19 413 0 355 0 c 2
 197 0 l 1
277 482 m 0
 206 482 155 423 155 343 c 0xf4
 155 267 204 215 275 215 c 0
 348 215 398 269 398 346 c 0
 398 426 348 482 277 482 c 0
EndSplineSet
EndChar
StartChar: h
Encoding: 104 104 173
Width: 600
Flags: MW
HStem: 0 20 467 75<329 360.5>
VStem: 94 97<60 344 428 711 711 711> 414 96<60 342 342 352 60 383.5>
LayerCount: 2
Fore
SplineSet
34 0 m 1
 34 60 l 1
 94 60 l 1
 94 711 l 1
 34 711 l 1
 34 771 l 1
 191 771 l 1
 191 428 l 1
 244 508 295 542 363 542 c 0
 460 542 510 477 510 352 c 2
 510 60 l 1
 571 60 l 1
 571 0 l 1
 366 0 l 1
 366 60 l 1
 414 60 l 1
 414 342 l 2
 414 425 387 467 334 467 c 0
 283 467 239 429 191 344 c 1
 191 60 l 1
 245 60 l 1
 245 0 l 1
 34 0 l 1
EndSplineSet
EndChar
StartChar: i
Encoding: 105 105 174
Width: 600
Flags: W
HStem: 0 60<72 262 72 262 358 539> 469 61<72 262 72 358> 650 121<258 366 258 366>
VStem: 258 108<650 771 650 771> 262 96<60 469 469 469>
LayerCount: 2
Fore
SplineSet
72 0 m 1
 72 60 l 1
 262 60 l 1
 262 469 l 1
 72 469 l 1
 72 530 l 1
 358 530 l 1
 358 60 l 1
 539 60 l 1
 539 0 l 1xe8
 72 0 l 1
258 650 m 1xf0
 258 771 l 1
 366 771 l 1
 366 650 l 1
 258 650 l 1xf0
EndSplineSet
EndChar
StartChar: j
Encoding: 106 106 175
Width: 600
Flags: W
HStem: -206 61<211 267.5 211 298.5> 469 61<128 344 128 441> 650 121<339 447 339 447>
VStem: 339 108<650 771 650 771> 344 97<61 469 469 469>
LayerCount: 2
Fore
SplineSet
78 -169 m 1xe8
 78 -13 l 1
 138 -13 l 1
 153 -119 l 1
 177 -138 197 -145 225 -145 c 0
 310 -145 344 -87 344 61 c 2
 344 469 l 1
 128 469 l 1
 128 530 l 1
 441 530 l 1
 441 32 l 2
 441 -118 364 -206 233 -206 c 0
 185 -206 140 -195 78 -169 c 1xe8
339 650 m 1xf0
 339 771 l 1
 447 771 l 1
 447 650 l 1
 339 650 l 1xf0
EndSplineSet
EndChar
StartChar: k
Encoding: 107 107 176
Width: 600
Flags: MW
HStem: 0 20 469 61<323 380 323 534 465 465 465 534>
VStem: 96 97<60 255 60 289 289 711 711 711>
LayerCount: 2
Fore
SplineSet
401 0 m 1
 401 60 l 1
 205 255 l 1
 193 255 l 1
 193 60 l 1
 241 60 l 1
 241 0 l 1
 36 0 l 1
 36 60 l 1
 96 60 l 1
 96 711 l 1
 36 711 l 1
 36 771 l 1
 193 771 l 1
 193 289 l 1
 205 289 l 1
 380 469 l 1
 323 469 l 1
 323 530 l 1
 534 530 l 1
 534 469 l 1
 465 469 l 1
 288 293 l 1
 526 60 l 1
 574 60 l 1
 574 0 l 1xe0
 401 0 l 1
EndSplineSet
EndChar
StartChar: l
Encoding: 108 108 177
Width: 600
Flags: MW
HStem: 0 60<72 262 72 262 358 539> 711 60<72 262 72 358>
VStem: 262 96<60 711 711 711>
LayerCount: 2
Fore
SplineSet
72 0 m 1
 72 60 l 1
 262 60 l 1
 262 711 l 1
 72 711 l 1
 72 771 l 1
 358 771 l 1
 358 60 l 1
 539 60 l 1
 539 0 l 1xe0
 72 0 l 1
EndSplineSet
EndChar
StartChar: m
Encoding: 109 109 178
Width: 600
Flags: W
HStem: 0 20 467 75<229 235.5 435 443.5> 510 20<13 136 136 136>
VStem: 49 87<60 337 429 469 469 469> 257 87<60 337 60 389 60 414.5> 465 87<60 367 367 400>
LayerCount: 2
Fore
SplineSet
13 0 m 1xdc
 13 60 l 1
 49 60 l 1
 49 469 l 1
 13 469 l 1
 13 530 l 1
 136 530 l 1xbc
 136 429 l 1
 182 519 206 542 252 542 c 0
 304 542 331 508 341 429 c 1
 373 509 409 542 461 542 c 0
 521 542 552 496 552 408 c 2
 552 60 l 1
 588 60 l 1
 588 0 l 1
 465 0 l 1
 465 367 l 2
 465 433 454 467 433 467 c 0
 418 467 399 453 380 425 c 0
 361 398 344 356 344 337 c 2
 344 60 l 1
 380 60 l 1
 380 0 l 1
 257 0 l 1
 257 389 l 2
 257 440 246 467 225 467 c 0
 195 467 169 428 136 337 c 1
 136 60 l 1
 172 60 l 1
 172 0 l 1
 13 0 l 1xdc
EndSplineSet
EndChar
StartChar: p
Encoding: 112 112 181
Width: 600
Flags: W
HStem: -193 60<30 90 187 308 30 90> -12 72<285 344.5 278.5 376.5> 0 20 464 78<331.5 374> 510 20<30 187 187 187>
VStem: 90 97<-133 0 71 349 422 469 469 469> 444 102<204 342.5>
LayerCount: 2
Fore
SplineSet
187 -133 m 1xa6
 308 -133 l 1
 308 -193 l 1
 30 -193 l 1
 30 -133 l 1
 90 -133 l 1
 90 469 l 1
 30 469 l 1
 30 530 l 1
 187 530 l 1x8e
 187 422 l 1
 244 506 297 542 366 542 c 0
 474 542 546 441 546 287 c 0
 546 101 453 -12 300 -12 c 0x56
 270 -12 237 -8 187 0 c 1
 187 -133 l 1xa6
187 349 m 1x56
 187 71 l 1
 236 63 266 60 291 60 c 0
 398 60 444 126 444 282 c 0
 444 403 409 464 339 464 c 0
 283 464 237 429 187 349 c 1x56
EndSplineSet
EndChar
StartChar: q
Encoding: 113 113 182
Width: 600
Flags: W
HStem: -193 61<293 413 510 570 293 413> -12 79<226 268.5> 470 72<255.5 312 224.5 321> 510 20<413 510 510 510>
VStem: 54 102<188 326.5 188 336.5> 413 97<-132 108 108 108 181 458 458 458 -132 530>
LayerCount: 2
Fore
SplineSet
413 -132 m 1x9c
 413 108 l 1
 356 24 303 -12 234 -12 c 0
 126 -12 54 90 54 243 c 0
 54 430 147 542 302 542 c 0xec
 322 542 364 538 381 535 c 0
 398 532 410 530 413 530 c 2
 510 530 l 1
 510 -132 l 1
 570 -132 l 1
 570 -193 l 1
 293 -193 l 1
 293 -132 l 1
 413 -132 l 1x9c
413 181 m 1
 413 458 l 1
 368 466 333 470 309 470 c 0
 202 470 156 404 156 249 c 0
 156 127 191 67 261 67 c 0
 317 67 363 101 413 181 c 1
EndSplineSet
EndChar
StartChar: t
Encoding: 116 116 185
Width: 600
Flags: MW
HStem: -12 72<337 369> 452 66<58 194 58 194 290 498>
VStem: 194 96<146 190 190 452 518 650>
LayerCount: 2
Fore
SplineSet
504 98 m 1
 504 30 l 1
 447 1 398 -12 340 -12 c 0
 236 -12 194 33 194 146 c 2
 194 452 l 1
 58 452 l 1
 58 518 l 1
 194 518 l 1
 194 650 l 1
 290 650 l 1
 290 518 l 1
 498 518 l 1
 498 452 l 1
 290 452 l 1
 290 190 l 2
 290 87 306 60 368 60 c 0
 404 60 445 71 504 98 c 1
EndSplineSet
EndChar
StartChar: v
Encoding: 118 118 187
Width: 600
Flags: MW
HStem: 0 20 469 61<27 63 27 245 167 167 167 245 394 472 537 537 537 573>
LayerCount: 2
Fore
SplineSet
251 0 m 1
 63 469 l 1
 27 469 l 1
 27 530 l 1
 245 530 l 1
 245 469 l 1
 167 469 l 1
 319 90 l 1
 320 90 l 1
 472 469 l 1
 394 469 l 1
 394 530 l 1
 573 530 l 1
 573 469 l 1
 537 469 l 1
 349 0 l 1
 251 0 l 1
EndSplineSet
EndChar
StartChar: w
Encoding: 119 119 188
Width: 600
Flags: MW
HStem: 0 20 510 20<11 163 163 163 456 589 589 589>
LayerCount: 2
Fore
SplineSet
118 0 m 1
 35 470 l 1
 11 470 l 1
 11 530 l 1
 163 530 l 1
 163 470 l 1
 121 470 l 1
 184 116 l 1
 185 116 l 1
 271 451 l 1
 353 451 l 1
 440 115 l 1
 441 115 l 1
 504 470 l 1
 456 470 l 1
 456 530 l 1
 589 530 l 1
 589 470 l 1
 565 470 l 1
 482 0 l 1
 388 0 l 1
 301 344 l 1
 300 344 l 1
 211 0 l 1
 118 0 l 1
EndSplineSet
EndChar
StartChar: x
Encoding: 120 120 189
Width: 600
Flags: MW
HStem: 0 20 510 20<29 243 243 243 404 581 581 581>
LayerCount: 2
Fore
SplineSet
29 0 m 1
 29 60 l 1
 89 60 l 1
 251 265 l 1
 89 469 l 1
 29 469 l 1
 29 530 l 1
 243 530 l 1
 243 469 l 1
 200 469 l 1
 328 308 l 1
 455 469 l 1
 404 469 l 1
 404 530 l 1
 581 530 l 1
 581 469 l 1
 524 469 l 1
 362 265 l 1
 523 60 l 1
 581 60 l 1
 581 0 l 1
 363 0 l 1
 363 60 l 1
 412 60 l 1
 288 217 l 1
 165 60 l 1
 214 60 l 1
 214 0 l 1
 29 0 l 1
EndSplineSet
EndChar
StartChar: braceleft
Encoding: 123 123 269
Width: 600
Flags: W
VStem: 234 90<-18.5 20.5 -18.5 32 604 643.5> 254 88<182.5 195 153.5 220> 255 88<431 446>
LayerCount: 2
Fore
SplineSet
489 -145 m 1x80
 425 -145 l 2
 311 -145 234 -77 234 23 c 0x80
 234 41 236 60 240 86 c 2
 251 145 l 2
 252 155 254 176 254 189 c 0x40
 254 251 217 283 144 283 c 2
 89 283 l 1
 89 343 l 1
 144 343 l 2
 218 343 255 375 255 440 c 0x20
 255 452 254 463 251 481 c 2
 240 541 l 2
 236 565 234 587 234 606 c 0
 234 703 313 771 425 771 c 2
 489 771 l 1
 489 711 l 1
 460 711 l 2
 369 711 324 677 324 610 c 0x80
 324 598 325 585 328 568 c 2
 339 507 l 2
 342 490 343 479 343 466 c 0x20
 343 396 312 350 240 313 c 1
 312 277 342 231 342 159 c 0x40
 342 148 341 128 339 120 c 2
 328 59 l 2
 326 43 324 27 324 14 c 0
 324 -51 370 -84 460 -84 c 2
 489 -84 l 1
 489 -145 l 1x80
EndSplineSet
EndChar
StartChar: bar
Encoding: 124 124 304
Width: 600
Flags: MW
VStem: 264 72<-145 771 -145 771>
LayerCount: 2
Fore
SplineSet
264 -145 m 1
 264 771 l 1
 336 771 l 1
 336 -145 l 1
 264 -145 l 1
EndSplineSet
EndChar
StartChar: braceright
Encoding: 125 125 270
Width: 600
Flags: W
HStem: 0 20
VStem: 257 88<180.5 196 431.5 444> 276 90<-17.5 22.5 605.5 645.5>
LayerCount: 2
Fore
SplineSet
111 771 m 1xa0
 175 771 l 2
 288 771 366 703 366 604 c 0xa0
 366 585 364 568 360 541 c 2
 349 481 l 2
 346 464 345 451 345 437 c 0
 345 375 383 343 456 343 c 2
 511 343 l 1
 511 283 l 1
 456 283 l 2
 382 283 345 251 345 187 c 0xc0
 345 174 346 163 349 145 c 2
 360 86 l 2
 364 62 366 40 366 20 c 0
 366 -76 287 -145 175 -145 c 2
 111 -145 l 1
 111 -84 l 1
 140 -84 l 2
 230 -84 276 -51 276 16 c 0xa0
 276 29 275 41 272 59 c 2
 261 120 l 2
 258 135 257 148 257 161 c 0
 257 231 288 277 360 313 c 1
 288 350 257 396 257 467 c 0xc0
 257 480 258 491 261 507 c 2
 272 568 l 2
 275 585 276 598 276 613 c 0
 276 678 230 711 140 711 c 2
 111 711 l 1
 111 771 l 1xa0
EndSplineSet
EndChar
StartChar: asciitilde
Encoding: 126 126 307
Width: 600
Flags: MW
HStem: 201 72<403.5 429.5> 305 72<170.5 196.5>
LayerCount: 2
Fore
SplineSet
131 217 m 1
 59 217 l 1
 61 286 73 321 102 348 c 0
 124 367 153 377 188 377 c 0
 221 377 251 367 286 343 c 2
 340 306 l 1
 373 283 l 2
 382 277 397 273 410 273 c 0
 450 273 467 299 469 361 c 1
 541 361 l 1
 539 292 527 257 498 230 c 0
 476 211 447 201 412 201 c 0
 379 201 349 211 314 235 c 2
 260 272 l 1
 227 295 l 2
 218 301 203 305 190 305 c 0
 150 305 133 278 131 217 c 1
EndSplineSet
EndChar
StartChar: exclamdown
Encoding: 161 161 233
Width: 600
Flags: W
HStem: 0 20 422 108<240 361 240 361>
VStem: 240 121<422 530 422 530> 252 96<-193 0 -193 0>
LayerCount: 2
Fore
SplineSet
361 530 m 1xe0
 361 422 l 1
 240 422 l 1
 240 530 l 1
 361 530 l 1xe0
330 325 m 1xd0
 348 0 l 1
 348 -193 l 1
 252 -193 l 1
 252 0 l 1
 270 325 l 1
 330 325 l 1xd0
EndSplineSet
EndChar
StartChar: cent
Encoding: 162 162 215
Width: 600
Flags: MW
HStem: 0 20 703 20<306 367 367 367>
VStem: 83 103<322.5 393.5 322.5 440.5> 306 61<0 85 0 87 0 87 155 576 576 576 639 723>
LayerCount: 2
Fore
SplineSet
306 0 m 1
 306 87 l 1
 160 106 83 200 83 360 c 0
 83 521 160 616 306 637 c 1
 306 723 l 1
 367 723 l 1
 367 639 l 1
 417 635 467 626 512 615 c 1
 512 458 l 1
 452 458 l 1
 440 560 l 1
 416 573 392 578 367 578 c 1
 367 149 l 1
 405 149 454 160 518 184 c 1
 518 114 l 1
 469 97 421 88 367 85 c 1
 367 0 l 1
 306 0 l 1
306 155 m 1
 306 576 l 1
 266 562 246 549 226 520 c 0
 200 483 186 428 186 359 c 0
 186 286 201 233 231 198 c 0
 250 175 268 165 306 155 c 1
EndSplineSet
EndChar
StartChar: sterling
Encoding: 163 163 213
Width: 600
Flags: MW
HStem: 0 84<180 510 180 510> 356 60<88 173 88 173 269 398> 681 60<330.5 371.5>
VStem: 173 96<250 273 273 356 231 356 416 542 542 582>
LayerCount: 2
Fore
SplineSet
73 0 m 1
 73 87 l 1
 143 114 173 163 173 250 c 2
 173 356 l 1
 88 356 l 1
 88 416 l 1
 173 416 l 1
 173 542 l 2
 173 666 245 741 365 741 c 0
 407 741 451 733 502 717 c 1
 502 567 l 1
 442 567 l 1
 430 669 l 1
 402 677 382 681 361 681 c 0
 300 681 269 648 269 582 c 2
 269 416 l 1
 398 416 l 1
 398 356 l 1
 269 356 l 1
 269 273 l 2
 269 189 242 132 180 84 c 1
 510 84 l 1
 510 0 l 1
 73 0 l 1
EndSplineSet
EndChar
StartChar: currency
Encoding: 164 164 266
Width: 600
Flags: MW
HStem: 110 72<275.5 322.5> 472 72<276 322.5 276 340>
VStem: 82 72<303 351.5> 444 72<302.5 351.5 302.5 368>
LayerCount: 2
Fore
SplineSet
169 154 m 1
 83 69 l 1
 41 111 l 1
 126 197 l 1
 95 239 82 279 82 327 c 0
 82 376 95 416 126 458 c 1
 41 543 l 1
 83 586 l 1
 169 500 l 1
 212 530 253 544 299 544 c 0
 346 544 386 530 430 500 c 1
 515 586 l 1
 558 543 l 1
 472 458 l 1
 503 415 516 376 516 327 c 0
 516 278 503 239 472 197 c 1
 558 112 l 1
 515 69 l 1
 430 154 l 1
 385 123 346 110 299 110 c 0
 252 110 213 123 169 154 c 1
299 472 m 0
 218 472 154 409 154 328 c 0
 154 245 216 182 299 182 c 0
 381 182 444 245 444 327 c 0
 444 409 381 472 299 472 c 0
EndSplineSet
EndChar
StartChar: yen
Encoding: 165 165 218
Width: 600
Flags: MW
HStem: 0 60<144 252 144 252 348 456> 199 61<84 252 84 252 348 517> 361 61<84 195 84 230 84 195 405 517> 663 60<24 56 24 239 167 167 167 239 403 475 544 544 544 576>
VStem: 252 96<60 199 60 199 260 322 322 322>
LayerCount: 2
Fore
SplineSet
144 0 m 1
 144 60 l 1
 252 60 l 1
 252 199 l 1
 84 199 l 1
 84 260 l 1
 252 260 l 1
 252 322 l 1
 230 361 l 1
 84 361 l 1
 84 422 l 1
 195 422 l 1
 56 663 l 1
 24 663 l 1
 24 723 l 1
 239 723 l 1
 239 663 l 1
 167 663 l 1
 320 397 l 1
 321 397 l 1
 475 663 l 1
 403 663 l 1
 403 723 l 1
 576 723 l 1
 576 663 l 1
 544 663 l 1
 405 422 l 1
 517 422 l 1
 517 361 l 1
 370 361 l 1
 348 323 l 1
 348 260 l 1
 517 260 l 1
 517 199 l 1
 348 199 l 1
 348 60 l 1
 456 60 l 1
 456 0 l 1
 144 0 l 1
EndSplineSet
EndChar
StartChar: brokenbar
Encoding: 166 166 305
Width: 600
Flags: MW
VStem: 264 72<-145 217 -145 217 410 771>
LayerCount: 2
Fore
SplineSet
264 -145 m 1
 264 217 l 1
 336 217 l 1
 336 -145 l 1
 264 -145 l 1
264 410 m 1
 264 771 l 1
 336 771 l 1
 336 410 l 1
 264 410 l 1
EndSplineSet
EndChar
StartChar: section
Encoding: 167 167 250
Width: 600
Flags: W
HStem: -162 60<276 344 276 361> 681 61<261 326>
VStem: 78 82<307.5 330> 81 84<565 617.5 565 622> 440 72<254 282> 440 84<-33 20.5>
LayerCount: 2
Fore
SplineSet
75 -126 m 1xc4
 75 31 l 1
 135 31 l 1
 147 -72 l 1
 201 -92 251 -102 301 -102 c 0
 387 -102 440 -64 440 -2 c 0
 440 43 415 66 326 101 c 2
 206 148 l 2
 121 181 78 234 78 304 c 0xe4
 78 356 99 399 148 446 c 1
 100 481 81 516 81 566 c 0
 81 678 171 742 329 742 c 0
 382 742 431 736 497 720 c 1
 497 564 l 1
 436 564 l 1
 425 663 l 1
 380 676 345 681 307 681 c 0
 215 681 165 648 165 587 c 0
 165 543 198 510 276 481 c 2
 376 442 l 2
 467 407 512 354 512 279 c 0xd8
 512 229 493 187 449 138 c 1
 502 99 524 61 524 7 c 0
 524 -98 434 -162 288 -162 c 0
 211 -162 144 -151 75 -126 c 1xc4
371 179 m 1
 396 168 l 1
 427 202 440 230 440 261 c 0xc8
 440 303 410 335 349 358 c 2
 224 404 l 1
 200 413 l 1
 172 383 160 357 160 329 c 0
 160 286 187 253 240 232 c 2
 371 179 l 1
EndSplineSet
EndChar
StartChar: dieresis
Encoding: 168 168 281
Width: 600
Flags: MW
HStem: 627 96<137 233 137 233 366 462>
VStem: 137 96<627 723 627 723> 366 96<627 723 627 723>
LayerCount: 2
Fore
SplineSet
137 627 m 1
 137 723 l 1
 233 723 l 1
 233 627 l 1xe0
 137 627 l 1
366 627 m 1
 366 723 l 1
 462 723 l 1
 462 627 l 1
 366 627 l 1
EndSplineSet
EndChar
StartChar: copyright
Encoding: 169 169 295
Width: 600
Flags: MW
HStem: -18 54<236 361.5 236 380> 141 54<291.5 331.5> 527 48<283.5 328.5> 687 54<237 362.5>
VStem: 30 60<264.5 459.5 264.5 476.5> 140 60<310.5 410.5 310.5 423> 509 61<264.5 459.5>
LayerCount: 2
Fore
SplineSet
300 741 m 0
 463 741 570 591 570 363 c 0
 570 129 464 -18 296 -18 c 0
 136 -18 30 134 30 362 c 0
 30 591 137 741 300 741 c 0
300 687 m 0
 174 687 90 557 90 362 c 0
 90 167 174 36 298 36 c 0
 425 36 509 166 509 363 c 0
 509 556 425 687 300 687 c 0
426 168 m 1
 416 164 l 2
 379 149 345 141 318 141 c 0
 213 141 140 229 140 357 c 0
 140 489 210 575 317 575 c 0
 342 575 388 569 416 562 c 2
 424 560 l 1
 424 469 l 1
 383 469 l 1
 383 515 l 1
 357 523 338 527 319 527 c 0
 248 527 200 460 200 361 c 0
 200 260 251 195 332 195 c 0
 364 195 394 203 426 220 c 1
 426 168 l 1
EndSplineSet
EndChar
StartChar: ordfeminine
Encoding: 170 170 271
Width: 600
Flags: W
HStem: 349 60<213 248.5> 358 60<458 545 458 545> 681 60<266.5 310.5>
VStem: 66 91<441.5 480 441.5 498> 374 84<399 629 456 527 527 527 584 611 611 629 418 635.5>
LayerCount: 2
Fore
SplineSet
386 358 m 1x78
 374 399 l 1
 319 364 275 349 222 349 c 0x98
 128 349 66 391 66 455 c 0
 66 541 156 584 336 584 c 2
 374 584 l 1
 374 611 l 2
 374 660 345 681 276 681 c 0
 245 681 215 675 172 661 c 1
 172 620 l 1
 99 620 l 1
 99 712 l 1
 187 733 241 741 292 741 c 0
 407 741 458 707 458 629 c 2
 458 418 l 1
 545 418 l 1
 545 358 l 1
 386 358 l 1x78
374 456 m 1x98
 374 527 l 1
 354 527 l 2
 223 527 157 503 157 457 c 0
 157 426 186 409 240 409 c 0
 287 409 326 422 374 456 c 1x98
EndSplineSet
EndChar
StartChar: guillemotleft
Encoding: 171 171 237
Width: 600
Flags: W
LayerCount: 2
Fore
SplineSet
540 90 m 1
 498 48 l 1
 281 265 l 1
 498 482 l 1
 540 440 l 1
 401 265 l 1
 540 90 l 1
299 90 m 1
 257 48 l 1
 40 265 l 1
 257 482 l 1
 299 440 l 1
 161 265 l 1
 299 90 l 1
EndSplineSet
EndChar
StartChar: logicalnot
Encoding: 172 172 302
Width: 600
Flags: MW
HStem: 265 72<48 479 48 551 48 551>
VStem: 479 72<96 265 96 265>
LayerCount: 2
Fore
SplineSet
479 96 m 1
 479 265 l 1
 48 265 l 1
 48 337 l 1
 551 337 l 1
 551 265 l 1
 551 96 l 1
 479 96 l 1
EndSplineSet
EndChar
StartChar: registered
Encoding: 174 174 296
Width: 600
Flags: MW
HStem: -18 54<236 361.5 236 380> 687 54<237 362.5>
VStem: 30 60<264.5 459.5 264.5 476.5> 208 54<190 336 370 534> 355 61<441.5 488.5> 509 61<264.5 459.5>
LayerCount: 2
Fore
SplineSet
300 741 m 0
 463 741 570 591 570 363 c 0
 570 129 464 -18 296 -18 c 0
 136 -18 30 134 30 362 c 0
 30 591 137 741 300 741 c 0
300 687 m 0
 174 687 90 557 90 362 c 0
 90 167 174 36 298 36 c 0
 425 36 509 166 509 363 c 0
 509 556 425 687 300 687 c 0
178 155 m 1
 178 190 l 1
 208 190 l 1
 208 534 l 1
 178 534 l 1
 178 568 l 1
 310 568 l 2
 380 568 416 534 416 468 c 0
 416 415 394 381 344 353 c 1
 434 190 l 1
 446 190 l 1
 446 155 l 1
 388 155 l 1
 293 336 l 1
 262 336 l 1
 262 190 l 1
 298 190 l 1
 298 155 l 1
 178 155 l 1
262 370 m 1
 265 370 l 2
 325 370 355 401 355 462 c 0
 355 515 336 534 280 534 c 2
 262 534 l 1
 262 370 l 1
EndSplineSet
EndChar
StartChar: macron
Encoding: 349 175 293
Width: 600
Flags: MW
HStem: 626 61<131 468 131 468>
LayerCount: 2
Fore
SplineSet
131 626 m 1
 131 687 l 1
 468 687 l 1
 468 626 l 1x80
 131 626 l 1
EndSplineSet
EndChar
StartChar: degree
Encoding: 176 176 258
Width: 600
Flags: MW
HStem: 451 61<276 322.5 276 339> 681 60<276 322.5>
VStem: 155 60<573.5 620 573.5 636.5> 384 60<573 620>
LayerCount: 2
Fore
SplineSet
300 741 m 0
 380 741 444 677 444 596 c 0
 444 515 380 451 298 451 c 0
 219 451 155 516 155 596 c 0
 155 677 219 741 300 741 c 0
299 681 m 0
 253 681 215 643 215 597 c 0
 215 550 253 512 299 512 c 0
 346 512 384 549 384 597 c 0
 384 643 346 681 299 681 c 0
EndSplineSet
EndChar
StartChar: plusminus
Encoding: 177 177 273
Width: 600
Flags: MW
HStem: 0 72<48 551 48 551> 338 72<48 264 48 264 336 551>
VStem: 264 72<145 338 145 338 410 603>
LayerCount: 2
Fore
SplineSet
264 145 m 1
 264 338 l 1
 48 338 l 1
 48 410 l 1
 264 410 l 1
 264 603 l 1
 336 603 l 1
 336 410 l 1
 551 410 l 1
 551 338 l 1
 336 338 l 1
 336 145 l 1
 264 145 l 1
551 0 m 1
 48 0 l 1
 48 72 l 1
 551 72 l 1
 551 0 l 1
EndSplineSet
EndChar
StartChar: twosuperior
Encoding: 178 178 220
Width: 600
Flags: MW
HStem: 356 72<125 125 224 474> 681 61<268 318>
VStem: 381 87<610.5 643>
LayerCount: 2
Fore
SplineSet
125 356 m 1
 125 428 l 1
 150 484 173 502 268 540 c 2
 315 558 l 2
 360 576 381 597 381 624 c 0
 381 662 349 681 287 681 c 0
 249 681 219 675 191 663 c 1
 185 618 l 1
 125 618 l 1
 125 717 l 1
 143 722 l 2
 202 736 245 742 288 742 c 0
 407 742 468 705 468 633 c 0
 468 581 435 544 367 519 c 2
 327 504 l 2
 266 482 234 458 224 428 c 1
 474 428 l 1
 474 356 l 1
 125 356 l 1
EndSplineSet
EndChar
StartChar: threesuperior
Encoding: 179 179 221
Width: 600
Flags: MW
HStem: 349 61<258.5 311.5 258.5 344> 681 61<270.5 322>
VStem: 384 87<443.5 481 420.5 484 626 649.5>
LayerCount: 2
Fore
SplineSet
128 368 m 1
 128 452 l 1
 188 452 l 1
 194 419 l 1
 217 413 243 410 274 410 c 0
 349 410 384 426 384 461 c 0
 384 507 347 521 227 521 c 2
 182 521 l 1
 182 582 l 1
 229 582 l 2
 350 582 384 593 384 633 c 0
 384 666 354 681 290 681 c 0
 251 681 220 676 194 666 c 1
 188 627 l 1
 128 627 l 1
 128 717 l 1
 187 735 236 742 295 742 c 0
 411 742 471 710 471 648 c 0
 471 604 440 574 368 550 c 1
 440 535 471 506 471 456 c 0
 471 385 407 349 281 349 c 0
 231 349 187 354 128 368 c 1
EndSplineSet
EndChar
StartChar: acute
Encoding: 180 180 284
Width: 600
Flags: W
LayerCount: 2
Fore
SplineSet
191 626 m 1
 296 783 l 1
 408 783 l 1
 251 626 l 1
 191 626 l 1
EndSplineSet
EndChar
StartChar: mu
Encoding: 181 181 308
Width: 600
Flags: W
HStem: -12 76<243 279.5> 0 20 510 20<33 190 190 190 358 509 509 509>
VStem: 93 97<-193 -5 147 177 177 188 188 469 469 469> 412 97<60 102 102 102 186 469 469 469>
LayerCount: 2
Fore
SplineSet
93 469 m 1x98
 33 469 l 1
 33 530 l 1
 190 530 l 1
 190 188 l 2
 190 106 217 64 269 64 c 0xb8
 320 64 363 101 412 186 c 1
 412 469 l 1
 358 469 l 1
 358 530 l 1
 509 530 l 1
 509 60 l 1
 569 60 l 1
 569 0 l 1
 412 0 l 1x78
 412 102 l 1
 356 16 315 -12 244 -12 c 0
 227 -12 210 -10 190 -5 c 1
 190 -193 l 1
 93 -193 l 1
 93 177 l 1
 93 469 l 1x98
EndSplineSet
EndChar
StartChar: paragraph
Encoding: 182 182 265
Width: 600
Flags: W
HStem: 663 60<331 413 329 474> 709 20<164.5 229>
VStem: 268 61<-144 362 362 362> 413 61<-144 663 663 663>
LayerCount: 2
Fore
SplineSet
268 -144 m 1xb0
 268 362 l 1
 174 373 126 393 89 437 c 0
 61 469 48 511 48 564 c 0
 48 674 106 729 223 729 c 0x70
 235 729 256 728 270 727 c 2
 304 724 l 2
 312 723 321 723 331 723 c 2
 474 723 l 1
 474 -144 l 1
 413 -144 l 1
 413 663 l 1
 329 663 l 1
 329 -144 l 1
 268 -144 l 1xb0
EndSplineSet
EndChar
StartChar: periodcentered
Encoding: 340 183 224
Width: 600
Flags: MW
HStem: 205 121<240 361 240 361>
VStem: 240 121<205 326 205 326>
LayerCount: 2
Fore
SplineSet
240 205 m 1
 240 326 l 1
 361 326 l 1
 361 205 l 1
 240 205 l 1
EndSplineSet
EndChar
StartChar: cedilla
Encoding: 184 184 291
Width: 600
Flags: MW
HStem: -211 42<274.5 283 257 313.5> 0 20
VStem: 317 68<-145 -117>
LayerCount: 2
Fore
SplineSet
272 0 m 1
 319 0 l 1
 290 -53 l 1
 343 -54 385 -88 385 -131 c 0
 385 -176 342 -211 285 -211 c 0
 264 -211 240 -208 215 -201 c 1
 215 -161 l 1
 231 -166 248 -169 266 -169 c 0
 300 -169 317 -157 317 -133 c 0
 317 -101 289 -87 225 -85 c 1xe0
 272 0 l 1
EndSplineSet
EndChar
StartChar: onesuperior
Encoding: 185 185 219
Width: 600
Flags: MW
HStem: 356 60<130 258 130 258 342 470> 721 20<342 342>
VStem: 258 84<416 657 657 657>
LayerCount: 2
Fore
SplineSet
130 356 m 1
 130 416 l 1
 258 416 l 1
 258 657 l 1
 130 633 l 1
 130 693 l 1
 342 741 l 1
 342 416 l 1
 470 416 l 1
 470 356 l 1
 130 356 l 1
EndSplineSet
EndChar
StartChar: ordmasculine
Encoding: 186 186 272
Width: 600
Flags: MW
HStem: 350 60<259 340 259 369> 681 60<259.5 340.5>
VStem: 72 90<506.5 585.5 506.5 606> 438 90<506 585.5>
LayerCount: 2
Fore
SplineSet
300 741 m 0
 440 741 528 666 528 546 c 0
 528 424 441 350 297 350 c 0
 160 350 72 426 72 546 c 0
 72 666 160 741 300 741 c 0
300 681 m 0
 219 681 162 625 162 546 c 0
 162 467 219 410 299 410 c 0
 381 410 438 466 438 546 c 0
 438 625 381 681 300 681 c 0
EndSplineSet
EndChar
StartChar: guillemotright
Encoding: 187 187 236
Width: 600
Flags: W
LayerCount: 2
Fore
SplineSet
60 90 m 1
 199 265 l 1
 60 440 l 1
 102 482 l 1
 319 265 l 1
 102 48 l 1
 60 90 l 1
301 90 m 1
 439 265 l 1
 301 440 l 1
 343 482 l 1
 560 265 l 1
 343 48 l 1
 301 90 l 1
EndSplineSet
EndChar
StartChar: onequarter
Encoding: 188 188 275
Width: 600
Flags: W
HStem: -18 20 0 20 87 60<328 443 260 260 516 570> 721 20<171 171 421 490 490 490>
VStem: 99 72<355 657 657 657> 443 73<0 87 147 298 298 298>
LayerCount: 2
Fore
SplineSet
99 355 m 1x9c
 99 657 l 1
 21 631 l 1
 21 691 l 1
 171 741 l 1
 171 355 l 1
 99 355 l 1x9c
42 -18 m 1
 421 741 l 1
 490 741 l 1
 109 -18 l 1
 42 -18 l 1
516 0 m 1x6c
 443 0 l 1
 443 87 l 1
 260 87 l 1
 260 147 l 1
 441 386 l 1
 516 386 l 1
 516 147 l 1
 570 147 l 1
 570 87 l 1
 516 87 l 1
 516 0 l 1x6c
328 147 m 1
 443 147 l 1
 443 298 l 1
 328 147 l 1
EndSplineSet
EndChar
StartChar: onehalf
Encoding: 189 189 274
Width: 600
Flags: W
HStem: -18 20 0 72<403 570 403 570> 332 54<421 449> 721 20<171 171 416 484 484 484>
VStem: 99 72<355 657 657 657> 491 79<259.5 291>
LayerCount: 2
Fore
SplineSet
36 -18 m 1x9c
 416 741 l 1
 484 741 l 1
 103 -18 l 1
 36 -18 l 1x9c
323 0 m 1x7c
 323 75 l 1
 339 107 363 132 409 165 c 0
 415 169 420 173 424 176 c 2
 440 192 l 1
 467 215 l 2
 482 227 491 248 491 271 c 0
 491 311 469 332 429 332 c 0
 413 332 399 328 377 317 c 1
 377 284 l 1
 323 284 l 1
 323 361 l 1
 360 379 393 386 435 386 c 0
 523 386 570 349 570 281 c 0
 570 238 549 203 503 168 c 2
 487 155 l 1
 486 155 l 1
 485 154 l 1
 485 154 484 154 482 153 c 0
 478 149 470 144 456 134 c 0
 428 115 410 95 403 72 c 1
 570 72 l 1
 570 0 l 1
 323 0 l 1x7c
99 355 m 1
 99 657 l 1
 21 631 l 1
 21 691 l 1
 171 741 l 1
 171 355 l 1
 99 355 l 1
EndSplineSet
EndChar
StartChar: threequarters
Encoding: 190 190 276
Width: 600
Flags: W
HStem: -18 20 0 20 87 60<346 461 278 278 534 588> 349 55<115 144.5 115 162> 687 55<119.5 146>
VStem: 185 73<443 483.5> 185 74<629.5 653.5> 461 73<0 87 147 298 298 298>
LayerCount: 2
Fore
SplineSet
84 -18 m 1x9c
 464 741 l 1
 533 741 l 1
 152 -18 l 1
 84 -18 l 1x9c
18 368 m 1
 18 448 l 1
 72 448 l 1
 72 417 l 1
 88 408 105 404 125 404 c 0
 164 404 185 424 185 462 c 0x9d
 185 505 156 526 96 526 c 2
 79 526 l 1
 79 580 l 1
 98 580 l 2
 157 580 185 599 185 637 c 0
 185 670 165 687 127 687 c 0
 106 687 90 683 72 672 c 1
 72 641 l 1
 18 641 l 1
 18 718 l 1
 68 735 101 742 138 742 c 0
 217 742 259 710 259 652 c 0x9a
 259 607 233 577 173 552 c 1
 232 536 258 508 258 460 c 0
 258 391 205 349 119 349 c 0
 94 349 65 354 30 364 c 2
 18 368 l 1
534 0 m 1x65
 461 0 l 1
 461 87 l 1
 278 87 l 1
 278 147 l 1
 459 386 l 1
 534 386 l 1
 534 147 l 1
 588 147 l 1
 588 87 l 1
 534 87 l 1
 534 0 l 1x65
346 147 m 1
 461 147 l 1
 461 298 l 1
 346 147 l 1
EndSplineSet
EndChar
StartChar: questiondown
Encoding: 191 191 235
Width: 600
Flags: MW
HStem: -211 60<266 327 266 334.5> 421 109<278 398 278 398>
VStem: 74 103<-72.5 -19> 278 120<421 530 421 530>
LayerCount: 2
Fore
SplineSet
398 530 m 1
 398 421 l 1
 278 421 l 1
 278 530 l 1
 398 530 l 1
386 325 m 1
 386 296 l 2
 386 218 351 154 279 102 c 2
 246 79 l 2
 200 46 177 8 177 -37 c 0
 177 -108 226 -151 306 -151 c 0
 348 -151 387 -141 430 -121 c 1
 442 6 l 1
 502 6 l 1
 502 -178 l 1
 426 -201 367 -211 302 -211 c 0
 151 -211 74 -155 74 -46 c 0
 74 8 97 52 146 88 c 2
 173 109 l 2
 178 113 182 115 192 122 c 0
 197 126 203 130 210 135 c 0
 277 182 290 206 290 295 c 2
 290 325 l 1
 386 325 l 1
EndSplineSet
EndChar
StartChar: Agrave
Encoding: 192 192 2
Width: 600
Flags: MW
HStem: 0 60<12 48 111 181 12 48 374 450 551 587> 217 61<159 383 179 383 179 402> 703 20<254 346 346 346>
LayerCount: 2
Fore
SplineSet
159 217 m 1
 111 60 l 1
 181 60 l 1
 181 0 l 1
 12 0 l 1
 12 60 l 1
 48 60 l 1
 254 723 l 1
 346 723 l 1
 551 60 l 1
 587 60 l 1
 587 0 l 1
 374 0 l 1
 374 60 l 1
 450 60 l 1
 402 217 l 1
 159 217 l 1
179 278 m 1
 383 278 l 1
 282 607 l 1
 281 607 l 1
 179 278 l 1
360 783 m 1
 300 783 l 1
 143 940 l 1
 255 940 l 1
 360 783 l 1
EndSplineSet
EndChar
StartChar: Atilde
Encoding: 195 195 5
Width: 600
Flags: W
HStem: 0 60<12 48 111 181 12 48 374 450 551 587> 217 61<159 383 179 383 179 402> 703 20<254 346 346 346> 783 59<364 381.5 364 400.5> 838 60<218 235>
LayerCount: 2
Fore
SplineSet
159 217 m 1xe8
 111 60 l 1
 181 60 l 1
 181 0 l 1
 12 0 l 1
 12 60 l 1
 48 60 l 1
 254 723 l 1
 346 723 l 1
 551 60 l 1
 587 60 l 1
 587 0 l 1
 374 0 l 1
 374 60 l 1
 450 60 l 1
 402 217 l 1
 159 217 l 1xe8
179 278 m 1
 383 278 l 1
 282 607 l 1
 281 607 l 1
 179 278 l 1
191 783 m 1
 137 783 l 1
 142 864 169 898 227 898 c 0x08
 250 898 273 891 293 879 c 2
 323 861 l 2
 345 847 358 842 370 842 c 0
 393 842 404 859 408 898 c 1
 462 898 l 1
 456 818 429 783 372 783 c 0x10
 348 783 326 789 305 802 c 2
 276 820 l 2
 258 831 241 838 229 838 c 0
 207 838 194 821 191 783 c 1
EndSplineSet
EndChar
StartChar: Aring
Encoding: 197 197 6
Width: 600
Flags: MW
HStem: 0 60<12 48 111 181 12 48 374 450 551 587> 217 61<159 383 179 383 179 402> 703 20<254 346 268.5 330.5 346 346> 723 42<280.5 318.5 280.5 346 280.5 318.5 280.5 330.5 280.5 346> 902 43<281 319>
VStem: 189 42<815 853 815 865> 369 42<814.5 853>
LayerCount: 2
Fore
SplineSet
159 217 m 1xfe
 111 60 l 1
 181 60 l 1
 181 0 l 1
 12 0 l 1
 12 60 l 1
 48 60 l 1
 254 723 l 1
 346 723 l 1
 551 60 l 1
 587 60 l 1
 587 0 l 1
 374 0 l 1
 374 60 l 1
 450 60 l 1
 402 217 l 1
 159 217 l 1xfe
179 278 m 1
 383 278 l 1
 282 607 l 1
 281 607 l 1
 179 278 l 1
300 945 m 0
 362 945 411 896 411 834 c 0
 411 771 362 723 299 723 c 0
 238 723 189 772 189 834 c 0
 189 896 238 945 300 945 c 0
300 902 m 0
 262 902 231 872 231 834 c 0
 231 796 262 765 299 765 c 0
 338 765 369 795 369 834 c 0
 369 872 338 902 300 902 c 0
EndSplineSet
EndChar
StartChar: AE
Encoding: 198 198 159
Width: 600
Flags: W
HStem: 0 60<6 27 89 148 6 27 258 312 402 533> 205 61<177 312 177 312 151 312> 343 61<402 489 402 489> 663 60<402 525 402 402>
VStem: 312 90<60 205 205 205 266 343 60 404 404 577 577 577> 525 60<570 663 663 663> 533 61<60 163 0 163>
LayerCount: 2
Fore
SplineSet
402 343 m 1xfc
 402 60 l 1
 533 60 l 1
 533 163 l 1
 594 163 l 1
 594 0 l 1xfa
 258 0 l 1
 258 60 l 1
 312 60 l 1
 312 205 l 1
 151 205 l 1
 89 60 l 1
 148 60 l 1
 148 0 l 1
 6 0 l 1
 6 60 l 1
 27 60 l 1
 312 723 l 1
 585 723 l 1
 585 570 l 1
 525 570 l 1
 525 663 l 1
 402 663 l 1
 402 404 l 1
 489 404 l 1
 489 464 l 1
 549 464 l 1
 549 284 l 1
 489 284 l 1
 489 343 l 1
 402 343 l 1xfc
177 266 m 1
 312 266 l 1
 312 577 l 1
 177 266 l 1
EndSplineSet
EndChar
StartChar: Ccedilla
Encoding: 199 199 8
Width: 600
Flags: W
HStem: -211 42<329 337.5 312 368> -18 66<307.5 392.5> 0 20 681 60<296 375>
VStem: 60 104<261 460.5 261 486> 371 68<-145 -117> 540 10
LayerCount: 2
Fore
SplineSet
550 114 m 1x5e
 550 36 l 1
 479 -2 424 -18 361 -18 c 0
 171 -18 60 124 60 366 c 0
 60 606 165 741 354 741 c 0
 409 741 467 731 540 710 c 1
 540 542 l 1
 480 542 l 1
 466 655 l 1
 428 673 393 681 357 681 c 0
 235 681 164 562 164 359 c 0
 164 163 242 48 373 48 c 0
 433 48 488 68 550 114 c 1x5e
327 0 m 1xae
 374 0 l 1
 345 -53 l 1
 398 -54 439 -88 439 -131 c 0
 439 -176 396 -211 340 -211 c 0
 318 -211 296 -208 270 -201 c 1
 270 -161 l 1
 285 -166 303 -169 321 -169 c 0
 354 -169 371 -157 371 -133 c 0
 371 -101 343 -87 280 -85 c 1
 327 0 l 1xae
EndSplineSet
EndChar
StartChar: Ecircumflex
Encoding: 202 202 15
Width: 600
Flags: W
HStem: 0 60<36 126 36 126 36 540> 0 66<223 479 223 540> 337 60<223 365 223 365> 663 60<36 126 36 515 223 223 223 455>
VStem: 126 97<66 337 397 663> 455 60<548 663 663 663> 479 61<66 187 0 187>
LayerCount: 2
Fore
SplineSet
36 0 m 1x8a
 36 60 l 1
 126 60 l 1x8c
 126 663 l 1
 36 663 l 1
 36 723 l 1
 515 723 l 1
 515 548 l 1
 455 548 l 1
 455 663 l 1x7c
 223 663 l 1
 223 397 l 1
 365 397 l 1
 365 458 l 1
 425 458 l 1
 425 276 l 1
 365 276 l 1
 365 337 l 1
 223 337 l 1
 223 66 l 1
 479 66 l 1x7a
 479 187 l 1
 540 187 l 1
 540 0 l 1
 36 0 l 1x8a
126 783 m 1
 251 940 l 1
 358 940 l 1
 483 783 l 1
 423 783 l 1
 306 882 l 1
 304 882 l 1
 186 783 l 1
 126 783 l 1
EndSplineSet
EndChar
StartChar: Edieresis
Encoding: 203 203 12
Width: 600
Flags: W
HStem: 0 60<36 126 36 126 36 540> 0 66<223 479 223 540> 337 60<223 365 223 365> 663 60<36 126 36 515 223 223 223 455> 783 96<126 222 126 222 356 452>
VStem: 126 96<783 879 783 879> 126 97<66 337 397 663> 356 96<783 879 783 879> 455 60<548 663 663 663> 479 61<66 187 0 187>
LayerCount: 2
Fore
SplineSet
36 0 m 1x8240
 36 60 l 1
 126 60 l 1x8a80
 126 663 l 1
 36 663 l 1
 36 723 l 1
 515 723 l 1
 515 548 l 1
 455 548 l 1
 455 663 l 1x7280
 223 663 l 1
 223 397 l 1
 365 397 l 1
 365 458 l 1
 425 458 l 1
 425 276 l 1
 365 276 l 1
 365 337 l 1
 223 337 l 1
 223 66 l 1
 479 66 l 1x7240
 479 187 l 1
 540 187 l 1
 540 0 l 1
 36 0 l 1x8240
126 783 m 1x8d
 126 879 l 1
 222 879 l 1
 222 783 l 1
 126 783 l 1x8d
356 783 m 1
 356 879 l 1
 452 879 l 1
 452 783 l 1
 356 783 l 1
EndSplineSet
EndChar
StartChar: Igrave
Encoding: 204 204 22
Width: 600
Flags: MW
HStem: 0 60<78 251 78 251 348 521> 663 60<78 251 78 521 348 348 348 521>
VStem: 251 97<60 663 60 663>
LayerCount: 2
Fore
SplineSet
78 0 m 1
 78 60 l 1
 251 60 l 1
 251 663 l 1
 78 663 l 1
 78 723 l 1
 521 723 l 1
 521 663 l 1
 348 663 l 1
 348 60 l 1
 521 60 l 1
 521 0 l 1
 78 0 l 1
348 783 m 1
 287 783 l 1
 131 940 l 1
 242 940 l 1
 348 783 l 1
EndSplineSet
EndChar
StartChar: Icircumflex
Encoding: 206 206 23
Width: 600
Flags: MW
HStem: 0 60<78 251 78 251 348 521> 663 60<78 251 78 521 348 348 348 521>
VStem: 251 97<60 663 60 663>
LayerCount: 2
Fore
SplineSet
78 0 m 1
 78 60 l 1
 251 60 l 1
 251 663 l 1
 78 663 l 1
 78 723 l 1
 521 723 l 1
 521 663 l 1
 348 663 l 1
 348 60 l 1
 521 60 l 1
 521 0 l 1
 78 0 l 1
121 783 m 1
 246 940 l 1
 353 940 l 1
 478 783 l 1
 418 783 l 1
 300 882 l 1
 299 882 l 1
 181 783 l 1
 121 783 l 1
EndSplineSet
EndChar
StartChar: Idieresis
Encoding: 207 207 20
Width: 600
Flags: MW
HStem: 0 60<78 251 78 251 348 521> 663 60<78 251 78 521 348 348 348 521> 783 96<137 233 137 233 366 462>
VStem: 137 96<783 879 783 879> 251 97<60 663 60 663> 366 96<783 879 783 879>
LayerCount: 2
Fore
SplineSet
78 0 m 1
 78 60 l 1
 251 60 l 1
 251 663 l 1
 78 663 l 1
 78 723 l 1
 521 723 l 1
 521 663 l 1
 348 663 l 1
 348 60 l 1
 521 60 l 1
 521 0 l 1
 78 0 l 1
137 783 m 1
 137 879 l 1
 233 879 l 1
 233 783 l 1
 137 783 l 1
366 783 m 1
 366 879 l 1
 462 879 l 1
 462 783 l 1
 366 783 l 1
EndSplineSet
EndChar
StartChar: Ntilde
Encoding: 209 209 29
Width: 600
Flags: W
HStem: 0 20 703 20<36 150 150 150 395 564 564 564> 783 59<359 376.5 359 395.5> 838 60<213 230>
VStem: 90 60<60 526 60 663> 449 61<0 663 198 663 0 663>
LayerCount: 2
Fore
SplineSet
36 0 m 1xdc
 36 60 l 1
 90 60 l 1
 90 663 l 1
 36 663 l 1
 36 723 l 1
 150 723 l 1
 448 198 l 1
 449 198 l 1
 449 663 l 1
 395 663 l 1
 395 723 l 1
 564 723 l 1
 564 663 l 1
 510 663 l 1
 510 0 l 1
 449 0 l 1
 151 526 l 1
 150 526 l 1
 150 60 l 1
 204 60 l 1
 204 0 l 1
 36 0 l 1xdc
186 783 m 1
 132 783 l 1
 138 864 165 898 222 898 c 0x1c
 246 898 268 891 288 879 c 2
 318 861 l 2
 340 847 353 842 365 842 c 0
 388 842 400 859 403 898 c 1
 457 898 l 1
 451 818 424 783 367 783 c 0x2c
 344 783 322 789 301 802 c 2
 271 820 l 2
 254 831 236 838 224 838 c 0
 202 838 190 821 186 783 c 1
EndSplineSet
EndChar
StartChar: Ocircumflex
Encoding: 212 212 33
Width: 600
Flags: MW
HStem: -18 60<247.5 354.5 247.5 378.5> 681 60<247.5 352.5>
VStem: 30 104<260.5 463 260.5 474.5> 466 104<256.5 462.5>
LayerCount: 2
Fore
SplineSet
300 741 m 0
 460 741 570 586 570 363 c 0
 570 135 460 -18 297 -18 c 0
 140 -18 30 139 30 362 c 0
 30 587 140 741 300 741 c 0
300 681 m 0
 195 681 134 564 134 362 c 0
 134 159 195 42 300 42 c 0
 409 42 466 152 466 361 c 0
 466 564 405 681 300 681 c 0
121 783 m 1
 246 940 l 1
 353 940 l 1
 478 783 l 1
 418 783 l 1
 301 882 l 1
 299 882 l 1
 181 783 l 1
 121 783 l 1
EndSplineSet
EndChar
StartChar: Otilde
Encoding: 213 213 34
Width: 600
Flags: W
HStem: -18 60<247.5 354.5 247.5 378.5> 681 60<247.5 352.5> 783 59<364 381.5 364 400.5> 838 60<218.5 235.5>
VStem: 30 104<260.5 463 260.5 474.5> 466 104<256.5 462.5>
LayerCount: 2
Fore
SplineSet
300 741 m 0xdc
 460 741 570 586 570 363 c 0
 570 135 460 -18 297 -18 c 0
 140 -18 30 139 30 362 c 0
 30 587 140 741 300 741 c 0xdc
300 681 m 0
 195 681 134 564 134 362 c 0
 134 159 195 42 300 42 c 0
 409 42 466 152 466 361 c 0
 466 564 405 681 300 681 c 0
191 783 m 1
 137 783 l 1
 143 864 170 898 228 898 c 0x1c
 251 898 273 892 294 879 c 2
 323 861 l 2
 345 847 358 842 370 842 c 0
 393 842 405 859 408 898 c 1
 463 898 l 1
 457 818 429 783 372 783 c 0x2c
 349 783 327 789 306 802 c 2
 277 820 l 2
 259 831 241 838 230 838 c 0
 207 838 195 821 191 783 c 1
EndSplineSet
EndChar
StartChar: Odieresis
Encoding: 214 214 30
Width: 600
Flags: MW
HStem: -18 60<247.5 354.5 247.5 378.5> 681 60<247.5 352.5> 783 96<137 233 137 233 367 463>
VStem: 30 104<260.5 463 260.5 474.5> 137 96<783 879 783 879> 367 96<783 879 783 879> 466 104<256.5 462.5>
LayerCount: 2
Fore
SplineSet
300 741 m 0
 460 741 570 586 570 363 c 0
 570 135 460 -18 297 -18 c 0
 140 -18 30 139 30 362 c 0
 30 587 140 741 300 741 c 0
300 681 m 0
 195 681 134 564 134 362 c 0
 134 159 195 42 300 42 c 0
 409 42 466 152 466 361 c 0
 466 564 405 681 300 681 c 0
137 783 m 1
 137 879 l 1
 233 879 l 1
 233 783 l 1
 137 783 l 1
367 783 m 1
 367 879 l 1
 463 879 l 1
 463 783 l 1
 367 783 l 1
EndSplineSet
EndChar
StartChar: multiply
Encoding: 215 215 261
Width: 600
Flags: MW
HStem: 0 20
LayerCount: 2
Fore
SplineSet
48 51 m 1
 249 252 l 1
 48 453 l 1
 99 504 l 1
 300 303 l 1
 501 504 l 1
 552 453 l 1
 351 252 l 1
 552 51 l 1
 501 0 l 1
 300 201 l 1
 99 0 l 1
 48 51 l 1
EndSplineSet
EndChar
StartChar: Oslash
Encoding: 216 216 161
Width: 600
Flags: MW
HStem: -18 20 721 20<219.5 331 513 570 570 570>
LayerCount: 2
Fore
SplineSet
156 181 m 1
 422 598 l 1
 391 656 354 681 300 681 c 0
 195 681 134 564 134 362 c 0
 134 295 141 241 156 181 c 1
443 542 m 1
 177 124 l 1
 209 67 246 42 299 42 c 0
 405 42 466 159 466 360 c 0
 466 429 459 483 443 542 c 1
30 -18 m 1
 100 93 l 1
 51 176 30 256 30 361 c 0
 30 586 140 741 299 741 c 0
 363 741 413 720 468 670 c 1
 513 741 l 1
 570 741 l 1
 499 630 l 1
 549 548 570 467 570 362 c 0
 570 137 460 -18 301 -18 c 0
 237 -18 187 3 133 54 c 1
 87 -18 l 1
 30 -18 l 1
EndSplineSet
EndChar
StartChar: Ugrave
Encoding: 217 217 44
Width: 600
Flags: MW
HStem: -18 60<277.5 363 277.5 368.5> 703 20<30 253 253 253 383 570 570 570>
VStem: 90 97<269 663> 449 60<260 663>
LayerCount: 2
Fore
SplineSet
90 663 m 1
 30 663 l 1
 30 723 l 1
 253 723 l 1
 253 663 l 1
 187 663 l 1
 187 256 l 2
 187 119 235 42 320 42 c 0
 406 42 449 114 449 260 c 2
 449 663 l 1
 383 663 l 1
 383 723 l 1
 570 723 l 1
 570 663 l 1
 509 663 l 1
 509 242 l 2
 509 77 434 -18 303 -18 c 0
 162 -18 90 79 90 269 c 2
 90 663 l 1
378 783 m 1
 318 783 l 1
 161 940 l 1
 273 940 l 1
 378 783 l 1
EndSplineSet
EndChar
StartChar: Ucircumflex
Encoding: 219 219 45
Width: 600
Flags: MW
HStem: -18 60<277.5 363 277.5 368.5> 703 20<30 253 253 253 383 570 570 570>
VStem: 90 97<269 663> 449 60<260 663>
LayerCount: 2
Fore
SplineSet
90 663 m 1
 30 663 l 1
 30 723 l 1
 253 723 l 1
 253 663 l 1
 187 663 l 1
 187 256 l 2
 187 119 235 42 320 42 c 0
 406 42 449 114 449 260 c 2
 449 663 l 1
 383 663 l 1
 383 723 l 1
 570 723 l 1
 570 663 l 1
 509 663 l 1
 509 242 l 2
 509 77 434 -18 303 -18 c 0
 162 -18 90 79 90 269 c 2
 90 663 l 1
139 783 m 1
 264 940 l 1
 371 940 l 1
 496 783 l 1
 436 783 l 1
 319 882 l 1
 317 882 l 1
 199 783 l 1
 139 783 l 1
EndSplineSet
EndChar
StartChar: Udieresis
Encoding: 220 220 42
Width: 600
Flags: W
HStem: -18 60<277.5 363 277.5 368.5> 703 20<30 253 253 253 383 570 570 570> 783 96<155 251 155 251 385 481>
VStem: 90 97<269 663> 155 96<783 879 783 879> 385 96<783 879 783 879> 449 60<260 663>
LayerCount: 2
Fore
SplineSet
90 663 m 1xf2
 30 663 l 1
 30 723 l 1
 253 723 l 1
 253 663 l 1
 187 663 l 1
 187 256 l 2
 187 119 235 42 320 42 c 0
 406 42 449 114 449 260 c 2
 449 663 l 1
 383 663 l 1
 383 723 l 1
 570 723 l 1
 570 663 l 1
 509 663 l 1
 509 242 l 2
 509 77 434 -18 303 -18 c 0
 162 -18 90 79 90 269 c 2
 90 663 l 1xf2
155 783 m 1xec
 155 879 l 1
 251 879 l 1
 251 783 l 1
 155 783 l 1xec
385 783 m 1
 385 879 l 1
 481 879 l 1
 481 783 l 1
 385 783 l 1
EndSplineSet
EndChar
StartChar: Thorn
Encoding: 222 222 165
Width: 600
Flags: MW
HStem: 0 60<42 138 235 331 42 138> 663 60<42 138 42 331 235 235 235 331>
VStem: 138 97<60 151 211 521 582 663> 446 103<332.5 433>
LayerCount: 2
Fore
SplineSet
235 582 m 1
 327 582 l 2
 476 582 549 524 549 405 c 0
 549 247 432 151 240 151 c 2
 235 151 l 1
 235 60 l 1
 331 60 l 1
 331 0 l 1
 42 0 l 1
 42 60 l 1
 138 60 l 1
 138 663 l 1
 42 663 l 1
 42 723 l 1
 331 723 l 1
 331 663 l 1
 235 663 l 1
 235 582 l 1
235 211 m 1
 241 211 l 2
 371 211 446 276 446 389 c 0
 446 477 394 521 289 521 c 2
 235 521 l 1
 235 211 l 1
EndSplineSet
EndChar
StartChar: germandbls
Encoding: 223 223 195
Width: 600
Flags: W
HStem: -12 61<416.5 451 416.5 465> 0 20 724 60<262.5 333>
VStem: 96 97<60 539 539 586.5> 246 87<396 456.5> 395 96<649.5 684> 501 82<99 139.5>
LayerCount: 2
Fore
SplineSet
30 0 m 1x7e
 30 60 l 1
 96 60 l 1
 96 539 l 2
 96 634 103 676 123 707 c 0
 156 758 215 784 297 784 c 0
 416 784 491 738 491 666 c 0
 491 628 470 591 430 558 c 2
 366 506 l 2
 345 488 333 467 333 446 c 0
 333 423 352 398 394 367 c 2
 460 318 l 2
 565 239 583 214 583 147 c 0
 583 51 516 -12 414 -12 c 0
 376 -12 338 -6 295 6 c 1
 295 142 l 1
 349 142 l 1
 361 69 l 1
 387 55 406 49 427 49 c 0xbe
 475 49 501 75 501 122 c 0
 501 157 483 188 447 214 c 2
 399 251 l 1
 338 296 l 2
 263 353 246 375 246 417 c 0
 246 452 263 487 296 520 c 2
 344 569 l 2
 378 603 395 635 395 664 c 0
 395 704 364 724 302 724 c 0
 223 724 193 694 193 614 c 2
 193 60 l 1
 253 60 l 1
 253 0 l 1
 30 0 l 1x7e
EndSplineSet
EndChar
StartChar: atilde
Encoding: 227 227 71
Width: 600
Flags: W
HStem: -12 72<235 266.5> 0 20 481 61<298 340> 627 59<375 392.5 375 411.5> 682 60<229 246>
VStem: 72 102<118.5 187.5 118.5 204.5> 407 96<58 400 136 259 259 259 319 400 60 401 60 427.5>
LayerCount: 2
Fore
SplineSet
417 0 m 1
 407 58 l 1
 347 9 297 -12 236 -12 c 0x86
 135 -12 72 48 72 143 c 0
 72 266 160 319 366 319 c 2
 407 319 l 1
 407 401 l 2
 407 454 373 481 307 481 c 0
 272 481 236 473 182 453 c 1
 170 391 l 1
 110 391 l 1
 110 497 l 1
 188 528 258 542 338 542 c 0
 459 542 503 504 503 400 c 2
 503 60 l 1
 569 60 l 1
 569 0 l 1x66
 417 0 l 1
407 136 m 1x86
 407 259 l 1
 381 259 l 2
 232 259 174 228 174 147 c 0
 174 90 205 60 265 60 c 0
 316 60 358 83 407 136 c 1x86
202 627 m 1
 148 627 l 1
 153 707 181 742 238 742 c 0x08
 261 742 283 736 304 723 c 2
 334 704 l 2
 354 692 369 686 381 686 c 0
 404 686 415 703 419 742 c 1
 473 742 l 1
 467 662 440 627 383 627 c 0x10
 359 627 336 634 316 646 c 2
 287 664 l 2
 268 676 252 682 240 682 c 0x08
 218 682 205 665 202 627 c 1
EndSplineSet
EndChar
StartChar: adieresis
Encoding: 228 228 66
Width: 600
Flags: W
HStem: -12 72<235 266.5> 0 20 481 61<298 340> 627 96<154 250 154 250 383 479>
VStem: 72 96 72 102<118.5 187.5 118.5 204.5> 301 96 407 96<58 400 136 259 259 259 319 400 60 401 60 427.5>
LayerCount: 2
Fore
SplineSet
417 0 m 1
 407 58 l 1
 347 9 297 -12 236 -12 c 0x85
 135 -12 72 48 72 143 c 0
 72 266 160 319 366 319 c 2
 407 319 l 1
 407 401 l 2
 407 454 373 481 307 481 c 0
 272 481 236 473 182 453 c 1
 170 391 l 1
 110 391 l 1
 110 497 l 1
 188 528 258 542 338 542 c 0
 459 542 503 504 503 400 c 2
 503 60 l 1
 569 60 l 1
 569 0 l 1x65
 417 0 l 1
407 136 m 1x85
 407 259 l 1
 381 259 l 2
 232 259 174 228 174 147 c 0
 174 90 205 60 265 60 c 0
 316 60 358 83 407 136 c 1x85
154 627 m 1
 154 723 l 1
 250 723 l 1
 250 627 l 1x1a
 154 627 l 1
383 627 m 1
 383 723 l 1
 479 723 l 1
 479 627 l 1
 383 627 l 1
EndSplineSet
EndChar
StartChar: aring
Encoding: 229 229 72
Width: 600
Flags: W
HStem: -12 72<235 266.5> 0 20 481 61<298 340> 626 42<310.5 348.5 310.5 360.5> 805 43<311 349>
VStem: 72 42 72 102<118.5 187.5 118.5 204.5> 252 42 407 96<58 400 136 259 259 259 319 400 60 401 60 427.5>
LayerCount: 2
Fore
SplineSet
417 0 m 1
 407 58 l 1
 347 9 297 -12 236 -12 c 0x8280
 135 -12 72 48 72 143 c 0
 72 266 160 319 366 319 c 2
 407 319 l 1
 407 401 l 2
 407 454 373 481 307 481 c 0
 272 481 236 473 182 453 c 1
 170 391 l 1
 110 391 l 1
 110 497 l 1
 188 528 258 542 338 542 c 0
 459 542 503 504 503 400 c 2
 503 60 l 1
 569 60 l 1
 569 0 l 1x6280
 417 0 l 1
407 136 m 1x8280
 407 259 l 1
 381 259 l 2
 232 259 174 228 174 147 c 0
 174 90 205 60 265 60 c 0
 316 60 358 83 407 136 c 1x8280
330 848 m 0
 392 848 441 799 441 737 c 0
 441 674 392 626 329 626 c 0
 268 626 219 675 219 737 c 0x1d
 219 799 268 848 330 848 c 0
330 805 m 0
 292 805 261 775 261 737 c 0
 261 699 292 668 329 668 c 0
 368 668 399 698 399 737 c 0
 399 775 368 805 330 805 c 0
EndSplineSet
EndChar
StartChar: ae
Encoding: 230 230 192
Width: 600
Flags: W
HStem: -12 72<427.5 454> -12 79<164.5 196.5> 265 60<232 238 238 253 343 480> 482 60<188 220.5 405 440>
VStem: 18 100<125.5 191 125.5 205>
LayerCount: 2
Fore
SplineSet
582 93 m 1xb8
 582 21 l 1
 524 -2 476 -12 432 -12 c 0x88
 375 -12 332 14 287 75 c 1
 259 14 224 -12 169 -12 c 0x48
 83 -12 18 57 18 150 c 0
 18 260 98 325 232 325 c 2
 253 325 l 1
 253 394 l 2
 253 465 242 482 199 482 c 0
 177 482 159 476 138 462 c 1
 126 396 l 1
 66 396 l 1
 66 509 l 1
 116 531 164 542 211 542 c 0
 264 542 296 523 321 478 c 1
 347 522 381 542 429 542 c 0
 524 542 579 450 579 289 c 2
 579 265 l 1
 343 265 l 1
 345 240 l 2
 352 121 392 60 463 60 c 0
 492 60 527 70 582 93 c 1xb8
253 111 m 1x78
 253 265 l 1
 238 265 l 2
 158 265 118 228 118 154 c 0
 118 97 142 67 187 67 c 0
 215 67 235 80 253 111 c 1x78
343 325 m 1
 480 325 l 1
 479 436 461 482 419 482 c 0
 374 482 350 433 343 325 c 1
EndSplineSet
EndChar
StartChar: ccedilla
Encoding: 231 231 76
Width: 600
Flags: MW
HStem: -211 42<300.5 309 283 339.5> -12 72<299.5 370> 0 20 482 60<283.5 343.5>
VStem: 72 104<203.5 334 203.5 356.5> 174 68
LayerCount: 2
Fore
SplineSet
503 98 m 1
 503 22 l 1
 453 -1 402 -12 338 -12 c 0
 174 -12 72 97 72 271 c 0
 72 442 170 542 337 542 c 0
 394 542 444 534 497 515 c 1
 497 347 l 1
 436 347 l 1
 421 460 l 1
 382 476 356 482 331 482 c 0
 236 482 176 399 176 269 c 0
 176 138 243 60 356 60 c 0x58
 402 60 446 71 503 98 c 1
298 0 m 1
 345 0 l 1
 316 -53 l 1
 369 -54 411 -88 411 -131 c 0
 411 -176 368 -211 311 -211 c 0
 290 -211 266 -208 241 -201 c 1
 241 -161 l 1
 257 -166 274 -169 292 -169 c 0
 326 -169 343 -157 343 -133 c 0
 343 -101 315 -87 251 -85 c 1xa4
 298 0 l 1
EndSplineSet
EndChar
StartChar: eacute
Encoding: 233 233 79
Width: 600
Flags: MW
HStem: -12 72<328 376> 247 60<164 437 164 539 163 437> 482 60<271 355.5>
LayerCount: 2
Fore
SplineSet
539 247 m 1
 163 247 l 1
 172 170 189 132 227 100 c 0
 259 73 301 60 355 60 c 0
 409 60 460 73 525 103 c 1
 525 30 l 1
 466 1 410 -12 342 -12 c 0
 172 -12 60 100 60 269 c 0
 60 433 164 542 322 542 c 0
 466 542 539 453 539 277 c 2xe0
 539 247 l 1
164 307 m 1
 437 307 l 1
 437 329 l 2
 437 431 396 482 315 482 c 0
 227 482 174 421 164 307 c 1
256 626 m 1
 361 783 l 1
 473 783 l 1
 316 626 l 1
 256 626 l 1
EndSplineSet
EndChar
StartChar: igrave
Encoding: 236 236 88
Width: 600
Flags: MW
HStem: 0 60<72 262 72 262 358 539> 469 61<72 262 72 358>
VStem: 262 96<60 469 469 469>
LayerCount: 2
Fore
SplineSet
72 0 m 1
 72 60 l 1
 262 60 l 1
 262 469 l 1
 72 469 l 1
 72 530 l 1
 358 530 l 1
 358 60 l 1
 539 60 l 1
 539 0 l 1xe0
 72 0 l 1
359 626 m 1
 299 626 l 1
 142 783 l 1
 253 783 l 1
 359 626 l 1
EndSplineSet
EndChar
StartChar: icircumflex
Encoding: 238 238 89
Width: 600
Flags: MW
HStem: 0 60<72 262 72 262 358 539> 469 61<72 262 72 358>
VStem: 262 96<60 469 469 469>
LayerCount: 2
Fore
SplineSet
72 0 m 1
 72 60 l 1
 262 60 l 1
 262 469 l 1
 72 469 l 1
 72 530 l 1
 358 530 l 1
 358 60 l 1
 539 60 l 1
 539 0 l 1xe0
 72 0 l 1
132 626 m 1
 257 783 l 1
 364 783 l 1
 489 626 l 1
 429 626 l 1
 311 725 l 1
 310 725 l 1
 192 626 l 1
 132 626 l 1
EndSplineSet
EndChar
StartChar: idieresis
Encoding: 239 239 86
Width: 600
Flags: MW
HStem: 0 60<72 262 72 262 358 539> 469 61<72 262 72 358> 627 96<148 244 148 244 377 473>
VStem: 148 96<627 723 627 723> 262 96<60 469 469 469> 377 96<627 723 627 723>
LayerCount: 2
Fore
SplineSet
72 0 m 1
 72 60 l 1
 262 60 l 1
 262 469 l 1
 72 469 l 1
 72 530 l 1
 358 530 l 1
 358 60 l 1
 539 60 l 1
 539 0 l 1
 72 0 l 1
148 627 m 1
 148 723 l 1
 244 723 l 1
 244 627 l 1
 148 627 l 1
377 627 m 1
 377 723 l 1
 473 723 l 1
 473 627 l 1
 377 627 l 1
EndSplineSet
EndChar
StartChar: eth
Encoding: 240 240 201
Width: 600
Flags: MW
HStem: -12 60<259 341 259 374.5> 470 60<259 305.5 221.5 342>
VStem: 54 103<198 320 198 337.5> 444 102<197 318.5>
LayerCount: 2
Fore
SplineSet
430 739 m 1
 345 681 l 1
 470 581 546 427 546 277 c 0
 546 105 447 -12 302 -12 c 0
 158 -12 54 102 54 260 c 0
 54 415 154 530 289 530 c 0
 322 530 349 523 380 507 c 1
 341 565 304 606 269 630 c 1
 132 536 l 1
 96 587 l 1
 215 667 l 1
 171 696 119 711 55 711 c 1
 55 771 l 1
 69 771 l 2
 152 771 217 754 287 716 c 1
 396 788 l 1
 430 739 l 1
300 470 m 0
 218 470 157 381 157 259 c 0
 157 137 218 48 300 48 c 0
 382 48 444 137 444 257 c 0
 444 380 384 470 300 470 c 0
EndSplineSet
EndChar
StartChar: ntilde
Encoding: 241 241 94
Width: 600
Flags: W
HStem: 0 20 467 75<329 360.5> 510 20<34 191 191 191> 627 59<364 381.5 364 400.5> 682 60<218 235>
VStem: 94 97<60 344 428 469 469 469> 414 96<60 342 342 352 60 383.5>
LayerCount: 2
Fore
SplineSet
34 0 m 1
 34 60 l 1
 94 60 l 1
 94 469 l 1
 34 469 l 1
 34 530 l 1
 191 530 l 1xa6
 191 428 l 1
 244 508 295 542 363 542 c 0
 460 542 510 477 510 352 c 2
 510 60 l 1
 571 60 l 1
 571 0 l 1
 366 0 l 1
 366 60 l 1
 414 60 l 1
 414 342 l 2
 414 425 387 467 334 467 c 0
 283 467 239 429 191 344 c 1
 191 60 l 1
 245 60 l 1
 245 0 l 1xc6
 34 0 l 1
191 627 m 1
 137 627 l 1
 142 707 170 742 227 742 c 0x08
 250 742 272 736 293 723 c 2
 323 704 l 2
 343 692 358 686 370 686 c 0
 393 686 404 703 408 742 c 1
 462 742 l 1
 456 662 429 627 372 627 c 0x10
 348 627 325 634 305 646 c 2
 276 664 l 2
 257 676 241 682 229 682 c 0x08
 207 682 194 665 191 627 c 1
EndSplineSet
EndChar
StartChar: ograve
Encoding: 242 242 97
Width: 600
Flags: MW
HStem: -12 61<252.5 346.5 252.5 374.5> 482 60<253 347>
VStem: 54 104<193.5 337.5 193.5 351.5> 442 104<194.5 338>
LayerCount: 2
Fore
SplineSet
300 542 m 0
 453 542 546 438 546 266 c 0
 546 91 453 -12 296 -12 c 0
 147 -12 54 94 54 265 c 0xf0
 54 438 147 542 300 542 c 0
300 482 m 0
 206 482 158 409 158 266 c 0
 158 121 205 49 300 49 c 0
 393 49 442 123 442 266 c 0
 442 410 394 482 300 482 c 0
360 626 m 1
 300 626 l 1
 143 783 l 1
 254 783 l 1
 360 626 l 1
EndSplineSet
EndChar
StartChar: otilde
Encoding: 245 245 99
Width: 600
Flags: W
HStem: -12 61<252.5 346.5 252.5 374.5> 482 60<253 347> 627 59<364 381.5 364 400.5> 682 60<218 235>
VStem: 54 104<193.5 337.5 193.5 351.5> 442 104<194.5 338>
LayerCount: 2
Fore
SplineSet
300 542 m 0
 453 542 546 438 546 266 c 0
 546 91 453 -12 296 -12 c 0
 147 -12 54 94 54 265 c 0xcc
 54 438 147 542 300 542 c 0
300 482 m 0
 206 482 158 409 158 266 c 0
 158 121 205 49 300 49 c 0
 393 49 442 123 442 266 c 0
 442 410 394 482 300 482 c 0
191 627 m 1
 137 627 l 1
 142 707 170 742 227 742 c 0x10
 250 742 272 736 293 723 c 2
 323 704 l 2
 343 692 358 686 370 686 c 0
 393 686 404 703 408 742 c 1
 462 742 l 1
 456 662 429 627 372 627 c 0x20
 348 627 325 634 305 646 c 2
 276 664 l 2
 257 676 241 682 229 682 c 0x10
 207 682 194 665 191 627 c 1
EndSplineSet
EndChar
StartChar: odieresis
Encoding: 246 246 95
Width: 600
Flags: MW
HStem: -12 61<252.5 346.5 252.5 374.5> 482 60<253 347> 627 96<137 233 137 233 366 462>
VStem: 54 96 54 104<193.5 337.5 193.5 351.5> 283 96 442 104<194.5 338>
LayerCount: 2
Fore
SplineSet
300 542 m 0
 453 542 546 438 546 266 c 0
 546 91 453 -12 296 -12 c 0
 147 -12 54 94 54 265 c 0xca
 54 438 147 542 300 542 c 0
300 482 m 0
 206 482 158 409 158 266 c 0
 158 121 205 49 300 49 c 0
 393 49 442 123 442 266 c 0
 442 410 394 482 300 482 c 0
137 627 m 1
 137 723 l 1
 233 723 l 1
 233 627 l 1x34
 137 627 l 1
366 627 m 1
 366 723 l 1
 462 723 l 1
 462 627 l 1
 366 627 l 1
EndSplineSet
EndChar
StartChar: divide
Encoding: 247 247 262
Width: 600
Flags: MW
HStem: 0 121<239 360 239 360> 265 72<48 551 48 551> 482 121<239 360 239 360>
VStem: 239 121<0 121 0 121 482 603>
LayerCount: 2
Fore
SplineSet
48 265 m 1
 48 337 l 1
 551 337 l 1
 551 265 l 1
 48 265 l 1
239 0 m 1
 239 121 l 1
 360 121 l 1
 360 0 l 1
 239 0 l 1
239 482 m 1
 239 603 l 1
 360 603 l 1
 360 482 l 1
 239 482 l 1
EndSplineSet
EndChar
StartChar: oslash
Encoding: 248 248 194
Width: 600
Flags: MW
HStem: -12 60<279.5 347.5 279.5 375> 482 60<252 318.5>
VStem: 54 104<239.5 337 239.5 352.5> 442 104<192.5 290>
LayerCount: 2
Fore
SplineSet
54 -12 m 1
 116 68 l 1
 73 127 54 186 54 266 c 0
 54 439 147 542 302 542 c 0
 364 542 408 528 450 497 c 1
 485 542 l 1
 546 542 l 1
 484 462 l 1
 528 403 546 344 546 263 c 0
 546 91 453 -12 297 -12 c 0
 236 -12 191 2 150 33 c 1
 115 -12 l 1
 54 -12 l 1
174 143 m 1
 401 435 l 1
 368 468 338 482 299 482 c 0
 205 482 158 410 158 264 c 0
 158 215 163 176 174 143 c 1
426 388 m 1
 199 96 l 1
 228 62 259 48 300 48 c 0
 395 48 442 120 442 265 c 0
 442 315 437 352 426 388 c 1
EndSplineSet
EndChar
StartChar: ugrave
Encoding: 249 249 108
Width: 600
Flags: W
HStem: -12 76<243 275> 0 20 510 20<33 190 190 190 358 509 509 509>
VStem: 93 97<177 188 188 469 469 469> 412 97<60 102 102 102 186 469 469 469>
LayerCount: 2
Fore
SplineSet
358 530 m 1
 509 530 l 1
 509 60 l 1
 569 60 l 1
 569 0 l 1
 412 0 l 1x78
 412 102 l 1
 359 22 309 -12 241 -12 c 0
 144 -12 93 53 93 177 c 2
 93 469 l 1
 33 469 l 1
 33 530 l 1
 190 530 l 1
 190 188 l 2
 190 106 217 64 269 64 c 0
 320 64 363 101 412 186 c 1
 412 469 l 1
 358 469 l 1xb8
 358 530 l 1
361 626 m 1
 301 626 l 1
 144 783 l 1
 255 783 l 1
 361 626 l 1
EndSplineSet
EndChar
StartChar: udieresis
Encoding: 252 252 106
Width: 600
Flags: W
HStem: -12 76<243 275> 0 20 510 20<33 190 190 190 358 509 509 509> 627 96<138 234 138 234 367 463>
VStem: 33 96 93 97<177 188 188 469 469 469> 262 96 412 97<60 102 102 102 186 469 469 469>
LayerCount: 2
Fore
SplineSet
358 530 m 1
 509 530 l 1
 509 60 l 1
 569 60 l 1
 569 0 l 1
 412 0 l 1x65
 412 102 l 1
 359 22 309 -12 241 -12 c 0
 144 -12 93 53 93 177 c 2
 93 469 l 1
 33 469 l 1
 33 530 l 1
 190 530 l 1
 190 188 l 2
 190 106 217 64 269 64 c 0
 320 64 363 101 412 186 c 1
 412 469 l 1
 358 469 l 1xa5
 358 530 l 1
138 627 m 1
 138 723 l 1
 234 723 l 1
 234 627 l 1x1a
 138 627 l 1
367 627 m 1
 367 723 l 1
 463 723 l 1
 463 627 l 1
 367 627 l 1
EndSplineSet
EndChar
StartChar: thorn
Encoding: 254 254 202
Width: 600
Flags: W
HStem: -193 60<30 90 187 308 30 90> -12 72<285 339.5 276.5 376.5> 0 20 464 78<331.5 373.5>
VStem: 90 97<-133 0 -133 71 71 349 422 711 711 711> 443 103<213 347.5>
LayerCount: 2
Fore
SplineSet
90 -133 m 1xac
 90 711 l 1
 30 711 l 1
 30 771 l 1
 187 771 l 1
 187 422 l 1
 244 506 297 542 366 542 c 0
 474 542 546 441 546 287 c 0
 546 101 453 -12 300 -12 c 0xdc
 270 -12 237 -8 187 0 c 1
 187 -133 l 1
 308 -133 l 1
 308 -193 l 1
 30 -193 l 1
 30 -133 l 1
 90 -133 l 1xac
187 349 m 1
 187 71 l 1
 236 63 265 60 288 60 c 0
 391 60 443 137 443 289 c 0
 443 406 408 464 339 464 c 0
 283 464 237 429 187 349 c 1
EndSplineSet
EndChar
StartChar: ydieresis
Encoding: 255 255 116
Width: 600
Flags: MW
HStem: -193 61<134 231 296 368 134 231> 0 20 469 61<27 63 27 245 167 167 167 245 394 472 537 537 537 573> 627 96<157 253 157 253 386 482>
VStem: 27 96 256 96
LayerCount: 2
Fore
SplineSet
251 0 m 1
 63 469 l 1
 27 469 l 1
 27 530 l 1
 245 530 l 1
 245 469 l 1
 167 469 l 1
 319 90 l 1
 320 90 l 1
 472 469 l 1
 394 469 l 1
 394 530 l 1
 573 530 l 1
 573 469 l 1
 537 469 l 1
 349 0 l 1
 296 -132 l 1
 368 -132 l 1
 368 -193 l 1
 134 -193 l 1
 134 -132 l 1
 231 -132 l 1
 284 0 l 1xe0
 251 0 l 1
157 627 m 1
 157 723 l 1
 253 723 l 1
 253 627 l 1x1c
 157 627 l 1
386 627 m 1
 386 723 l 1
 482 723 l 1
 482 627 l 1
 386 627 l 1
EndSplineSet
EndChar
StartChar: amacron
Encoding: 318 257 118
Width: 600
Flags: W
HStem: -12 72<235 266.5> 0 20 481 61<298 340> 626 61<142 479 142 479>
VStem: 72 102<118.5 187.5 118.5 204.5> 407 96<58 400 136 259 259 259 319 400 60 401 60 427.5>
LayerCount: 2
Fore
SplineSet
417 0 m 1
 407 58 l 1
 347 9 297 -12 236 -12 c 0x8c
 135 -12 72 48 72 143 c 0
 72 266 160 319 366 319 c 2
 407 319 l 1
 407 401 l 2
 407 454 373 481 307 481 c 0
 272 481 236 473 182 453 c 1
 170 391 l 1
 110 391 l 1
 110 497 l 1
 188 528 258 542 338 542 c 0
 459 542 503 504 503 400 c 2
 503 60 l 1
 569 60 l 1
 569 0 l 1x6c
 417 0 l 1
407 136 m 1x8c
 407 259 l 1
 381 259 l 2
 232 259 174 228 174 147 c 0
 174 90 205 60 265 60 c 0
 316 60 358 83 407 136 c 1x8c
142 626 m 1
 142 687 l 1
 479 687 l 1
 479 626 l 1x10
 142 626 l 1
EndSplineSet
EndChar
StartChar: Abreve
Encoding: 256 258 4
Width: 600
Flags: MW
HStem: 0 60<12 48 111 181 12 48 374 450 551 587> 217 61<159 383 179 383 179 402> 703 20<254 346 346 346> 798 69<277 329.5 270 347.5>
LayerCount: 2
Fore
SplineSet
159 217 m 1
 111 60 l 1
 181 60 l 1
 181 0 l 1
 12 0 l 1
 12 60 l 1
 48 60 l 1
 254 723 l 1
 346 723 l 1
 551 60 l 1
 587 60 l 1
 587 0 l 1
 374 0 l 1
 374 60 l 1
 450 60 l 1
 402 217 l 1
 159 217 l 1
179 278 m 1
 383 278 l 1
 282 607 l 1
 281 607 l 1
 179 278 l 1
131 940 m 1
 191 940 l 1
 207 889 240 867 300 867 c 0
 359 867 392 889 408 940 c 1
 469 940 l 1
 443 841 393 798 302 798 c 0
 252 798 213 811 184 838 c 0
 156 862 143 887 131 940 c 1
EndSplineSet
EndChar
StartChar: Aogonek
Encoding: 257 260 7
Width: 600
Flags: MW
HStem: -181 46<475.5 484> 0 60<12 48 111 181 12 48 374 450 551 587 449 450> 217 61<159 383 179 383 179 402> 703 20<254 346 346 346>
VStem: 372 66<-103.5 -83>
LayerCount: 2
Fore
SplineSet
159 217 m 1
 111 60 l 1
 181 60 l 1
 181 0 l 1
 12 0 l 1
 12 60 l 1
 48 60 l 1
 254 723 l 1
 346 723 l 1
 551 60 l 1
 587 60 l 1
 587 0 l 1
 374 0 l 1
 374 60 l 1
 450 60 l 1
 402 217 l 1
 159 217 l 1
179 278 m 1
 383 278 l 1
 282 607 l 1
 281 607 l 1
 179 278 l 1
449 0 m 1
 501 0 l 1
 457 -28 438 -54 438 -88 c 0
 438 -119 457 -135 494 -135 c 0
 512 -135 526 -132 539 -127 c 1
 539 -167 l 1
 518 -177 497 -181 471 -181 c 0
 406 -181 372 -154 372 -104 c 0
 372 -62 395 -31 449 0 c 1
EndSplineSet
EndChar
StartChar: aogonek
Encoding: 295 261 73
Width: 600
Flags: W
HStem: -181 46<457.5 466> -12 72<235 266.5> 0 20 481 61<298 340>
VStem: 72 66 72 102<118.5 187.5 118.5 204.5> 407 96<58 400 136 259 259 259 319 400 60 401 60 427.5>
LayerCount: 2
Fore
SplineSet
417 0 m 1
 407 58 l 1
 347 9 297 -12 236 -12 c 0x46
 135 -12 72 48 72 143 c 0
 72 266 160 319 366 319 c 2
 407 319 l 1
 407 401 l 2
 407 454 373 481 307 481 c 0
 272 481 236 473 182 453 c 1
 170 391 l 1
 110 391 l 1
 110 497 l 1
 188 528 258 542 338 542 c 0
 459 542 503 504 503 400 c 2
 503 60 l 1
 569 60 l 1
 569 0 l 1x36
 417 0 l 1
407 136 m 1x46
 407 259 l 1
 381 259 l 2
 232 259 174 228 174 147 c 0
 174 90 205 60 265 60 c 0
 316 60 358 83 407 136 c 1x46
431 0 m 1
 483 0 l 1
 439 -28 420 -54 420 -88 c 0
 420 -119 439 -135 476 -135 c 0
 494 -135 508 -132 521 -127 c 1
 521 -167 l 1
 500 -177 479 -181 453 -181 c 0
 388 -181 354 -154 354 -104 c 0xa8
 354 -62 377 -31 431 0 c 1
EndSplineSet
EndChar
StartChar: cacute
Encoding: 296 263 74
Width: 600
Flags: MW
HStem: -12 72<299.5 370> 482 60<283.5 343.5>
VStem: 72 104<203.5 334 203.5 356.5>
LayerCount: 2
Fore
SplineSet
503 98 m 1
 503 22 l 1
 453 -1 402 -12 338 -12 c 0
 174 -12 72 97 72 271 c 0
 72 442 170 542 337 542 c 0
 394 542 444 534 497 515 c 1
 497 347 l 1
 436 347 l 1
 421 460 l 1
 382 476 356 482 331 482 c 0
 236 482 176 399 176 269 c 0
 176 138 243 60 356 60 c 0xe0
 402 60 446 71 503 98 c 1
271 626 m 1
 376 783 l 1
 488 783 l 1
 331 626 l 1
 271 626 l 1
EndSplineSet
EndChar
StartChar: ccaron
Encoding: 297 269 75
Width: 600
Flags: MW
HStem: -12 72<299.5 370> 482 60<283.5 343.5>
VStem: 72 104<203.5 334 203.5 356.5>
LayerCount: 2
Fore
SplineSet
503 98 m 1
 503 22 l 1
 453 -1 402 -12 338 -12 c 0
 174 -12 72 97 72 271 c 0
 72 442 170 542 337 542 c 0
 394 542 444 534 497 515 c 1
 497 347 l 1
 436 347 l 1
 421 460 l 1
 382 476 356 482 331 482 c 0
 236 482 176 399 176 269 c 0
 176 138 243 60 356 60 c 0xe0
 402 60 446 71 503 98 c 1
510 783 m 1
 385 626 l 1
 278 626 l 1
 153 783 l 1
 214 783 l 1
 331 684 l 1
 332 684 l 1
 450 783 l 1
 510 783 l 1
EndSplineSet
EndChar
StartChar: dcaron
Encoding: 298 271 77
Width: 600
Flags: W
HStem: -12 79<210.5 243.5> 0 20 470 72<235 284 203 291> 711 60<263 368 263 464>
VStem: 54 101<185 326.5 185 336.5> 368 96<60 108 108 108 181 458 458 458 530 711 711 711> 503 97<549 687 578 687 675 687 687 771 644 771>
LayerCount: 2
Fore
SplineSet
368 0 m 1x7e
 368 108 l 1
 321 24 274 -12 213 -12 c 0x8e
 117 -12 54 90 54 243 c 0
 54 430 135 542 271 542 c 0
 297 542 330 538 368 530 c 1
 368 711 l 1
 263 711 l 1
 263 771 l 1
 464 771 l 1
 464 60 l 1
 517 60 l 1
 517 0 l 1
 368 0 l 1x7e
368 181 m 1xbe
 368 458 l 1
 331 466 302 470 280 470 c 0
 190 470 155 408 155 245 c 0
 155 125 182 67 239 67 c 0
 291 67 331 103 368 181 c 1xbe
503 549 m 1
 503 578 l 1
 529 587 541 614 541 666 c 2
 541 675 l 1
 503 675 l 1
 503 771 l 1
 600 771 l 1
 600 687 l 2
 600 601 571 559 503 549 c 1
EndSplineSet
EndChar
StartChar: Dcroat
Encoding: 333 272 163
Width: 600
Flags: MW
HStem: 0 60<24 96 24 96 192 250 250 281> 350 60<24 96 24 96 192 325> 663 60<24 96 24 272 192 243 192 192>
VStem: 96 96<60 350 60 350 410 663> 465 104<266.5 468.5>
LayerCount: 2
Fore
SplineSet
24 0 m 1
 24 60 l 1
 96 60 l 1
 96 350 l 1
 24 350 l 1
 24 410 l 1
 96 410 l 1
 96 663 l 1
 24 663 l 1
 24 723 l 1
 272 723 l 2
 469 723 569 608 569 379 c 0
 569 146 458 0 281 0 c 2
 24 0 l 1
192 663 m 1
 192 410 l 1
 325 410 l 1
 325 350 l 1
 192 350 l 1
 192 60 l 1
 250 60 l 2
 393 60 465 164 465 369 c 0
 465 568 394 663 243 663 c 2
 192 663 l 1
EndSplineSet
EndChar
StartChar: dcroat
Encoding: 338 273 199
Width: 600
Flags: W
HStem: -12 79<226 268.5> 0 20 470 72<255.5 316 224.5 321> 596 61<257 413 257 413 510 570> 711 60<293 413 293 510>
VStem: 54 102<188 326.5 188 336.5> 413 97<60 108 108 108 181 458 458 458 530 596 60 596 657 711 711 711>
LayerCount: 2
Fore
SplineSet
413 0 m 1x7e
 413 108 l 1
 356 24 303 -12 234 -12 c 0x86
 126 -12 54 90 54 243 c 0
 54 430 147 542 302 542 c 0
 330 542 367 538 413 530 c 1
 413 596 l 1
 257 596 l 1
 257 657 l 1
 413 657 l 1
 413 711 l 1
 293 711 l 1
 293 771 l 1
 510 771 l 1
 510 657 l 1
 570 657 l 1
 570 596 l 1
 510 596 l 1
 510 60 l 1
 570 60 l 1
 570 0 l 1
 413 0 l 1x7e
413 181 m 1xa6
 413 458 l 1
 368 466 333 470 309 470 c 0
 202 470 156 404 156 249 c 0
 156 127 191 67 261 67 c 0
 317 67 363 101 413 181 c 1xa6
EndSplineSet
EndChar
StartChar: Emacron
Encoding: 283 274 55
Width: 600
Flags: W
HStem: 0 60<36 126 36 126 36 540> 0 66<223 479 223 540> 337 60<223 365 223 365> 663 60<36 126 36 515 223 223 223 455> 783 61<139 476 139 476>
VStem: 126 97<66 337 397 663> 455 60<548 663 663 663> 479 61<66 187 0 187>
LayerCount: 2
Fore
SplineSet
36 0 m 1x85
 36 60 l 1
 126 60 l 1x8e
 126 663 l 1
 36 663 l 1
 36 723 l 1
 515 723 l 1
 515 548 l 1
 455 548 l 1
 455 663 l 1x76
 223 663 l 1
 223 397 l 1
 365 397 l 1
 365 458 l 1
 425 458 l 1
 425 276 l 1
 365 276 l 1
 365 337 l 1
 223 337 l 1
 223 66 l 1
 479 66 l 1x75
 479 187 l 1
 540 187 l 1
 540 0 l 1
 36 0 l 1x85
139 783 m 1
 139 844 l 1
 476 844 l 1
 476 783 l 1
 139 783 l 1
EndSplineSet
EndChar
StartChar: Edotaccent
Encoding: 262 278 17
Width: 600
Flags: W
HStem: 0 60<36 126 36 126 36 540> 0 66<223 479 223 540> 337 60<223 365 223 365> 663 60<36 126 36 515 223 223 223 455> 783 96<265 361 265 361>
VStem: 126 97<66 337 397 663> 265 96<783 879 783 879> 455 60<548 663 663 663> 479 61<66 187 0 187>
LayerCount: 2
Fore
SplineSet
36 0 m 1x8480
 36 60 l 1
 126 60 l 1x8f
 126 663 l 1
 36 663 l 1
 36 723 l 1
 515 723 l 1
 515 548 l 1
 455 548 l 1
 455 663 l 1x77
 223 663 l 1
 223 397 l 1
 365 397 l 1
 365 458 l 1
 425 458 l 1
 425 276 l 1
 365 276 l 1
 365 337 l 1
 223 337 l 1
 223 66 l 1
 479 66 l 1x7480
 479 187 l 1
 540 187 l 1
 540 0 l 1
 36 0 l 1x8480
265 783 m 1
 265 879 l 1
 361 879 l 1
 361 783 l 1
 265 783 l 1
EndSplineSet
EndChar
StartChar: Eogonek
Encoding: 263 280 18
Width: 600
Flags: W
HStem: -181 46<446.5 454.5> 0 60<36 126 36 126 36 540> 0 66<223 479 223 540 420 472 472 472> 337 60<223 365 223 365> 663 60<36 126 36 515 223 223 223 455>
VStem: 126 97<66 337 397 663> 343 66<-103.5 -83> 455 60<548 663 663 663> 479 61<66 187 0 187>
LayerCount: 2
Fore
SplineSet
36 0 m 1x4480
 36 60 l 1
 126 60 l 1xc7
 126 663 l 1
 36 663 l 1
 36 723 l 1
 515 723 l 1
 515 548 l 1
 455 548 l 1
 455 663 l 1x3f
 223 663 l 1
 223 397 l 1
 365 397 l 1
 365 458 l 1
 425 458 l 1
 425 276 l 1
 365 276 l 1
 365 337 l 1
 223 337 l 1
 223 66 l 1
 479 66 l 1x3c80
 479 187 l 1
 540 187 l 1
 540 0 l 1
 36 0 l 1x4480
420 0 m 1
 472 0 l 1
 428 -28 409 -54 409 -88 c 0
 409 -119 428 -135 465 -135 c 0
 483 -135 497 -132 510 -127 c 1
 510 -167 l 1
 488 -177 468 -181 441 -181 c 0
 377 -181 343 -154 343 -104 c 0
 343 -62 366 -31 420 0 c 1
EndSplineSet
EndChar
StartChar: eogonek
Encoding: 301 281 84
Width: 600
Flags: MW
HStem: -181 46<392.5 401> -12 72<328 376> 0 20 247 60<164 437 164 539 163 437> 482 60<271 355.5>
VStem: 60 66
LayerCount: 2
Fore
SplineSet
539 247 m 1
 163 247 l 1
 172 170 189 132 227 100 c 0
 259 73 301 60 355 60 c 0
 409 60 460 73 525 103 c 1
 525 30 l 1
 466 1 410 -12 342 -12 c 0
 172 -12 60 100 60 269 c 0
 60 433 164 542 322 542 c 0
 466 542 539 453 539 277 c 2x58
 539 247 l 1
164 307 m 1
 437 307 l 1
 437 329 l 2
 437 431 396 482 315 482 c 0
 227 482 174 421 164 307 c 1
366 0 m 1
 418 0 l 1
 374 -28 355 -54 355 -88 c 0
 355 -119 374 -135 411 -135 c 0
 429 -135 443 -132 456 -127 c 1
 456 -167 l 1
 435 -177 414 -181 388 -181 c 0
 323 -181 289 -154 289 -104 c 0xa4
 289 -62 312 -31 366 0 c 1
EndSplineSet
EndChar
StartChar: Ecaron
Encoding: 261 282 16
Width: 600
Flags: W
HStem: 0 60<36 126 36 126 36 540> 0 66<223 479 223 540> 337 60<223 365 223 365> 663 60<36 126 36 515 223 223 223 455>
VStem: 126 97<66 337 397 663> 455 60<548 663 663 663> 479 61<66 187 0 187>
LayerCount: 2
Fore
SplineSet
36 0 m 1x8a
 36 60 l 1
 126 60 l 1x8c
 126 663 l 1
 36 663 l 1
 36 723 l 1
 515 723 l 1
 515 548 l 1
 455 548 l 1
 455 663 l 1x7c
 223 663 l 1
 223 397 l 1
 365 397 l 1
 365 458 l 1
 425 458 l 1
 425 276 l 1
 365 276 l 1
 365 337 l 1
 223 337 l 1
 223 66 l 1
 479 66 l 1x7a
 479 187 l 1
 540 187 l 1
 540 0 l 1
 36 0 l 1x8a
467 940 m 1
 342 783 l 1
 235 783 l 1
 110 940 l 1
 170 940 l 1
 288 841 l 1
 289 841 l 1
 407 940 l 1
 467 940 l 1
EndSplineSet
EndChar
StartChar: Gbreve
Encoding: 264 286 19
Width: 600
Flags: MW
HStem: -18 66<284.5 365 284.5 375.5> 262 60<347 431 347 528> 682 60<273 355> 798 69<302 354.5 295 372.5>
VStem: 36 104<260.5 466 260.5 487.5> 431 97<64 262 262 262>
LayerCount: 2
Fore
SplineSet
528 322 m 1
 528 36 l 1
 464 -2 410 -18 341 -18 c 0
 147 -18 36 122 36 365 c 0
 36 610 141 742 336 742 c 0
 393 742 449 732 516 711 c 1
 516 542 l 1
 456 542 l 1
 442 655 l 1
 403 674 372 682 338 682 c 0
 208 682 140 572 140 360 c 0
 140 161 217 48 352 48 c 0
 378 48 401 53 431 64 c 1
 431 262 l 1
 347 262 l 1
 347 322 l 1
 528 322 l 1
156 940 m 1
 216 940 l 1
 232 889 265 867 325 867 c 0
 384 867 417 889 433 940 c 1
 494 940 l 1
 468 841 418 798 327 798 c 0
 277 798 238 811 209 838 c 0
 181 862 168 887 156 940 c 1
EndSplineSet
EndChar
StartChar: Gcommaaccent
Encoding: 291 290 63
Width: 600
Flags: MW
HStem: -211 42<308.5 323 298.5 353.5> -18 66<284.5 365 284.5 375.5> 262 60<347 431 347 528> 682 60<272.5 354.5>
VStem: 36 104<260.5 465.5 260.5 487.5> 359 66<-147 -123.5> 431 97<64 262 262 262>
LayerCount: 2
Fore
SplineSet
528 322 m 1
 528 36 l 1
 464 -2 410 -18 341 -18 c 0
 147 -18 36 122 36 365 c 0
 36 610 141 742 336 742 c 0
 393 742 449 732 516 711 c 1
 516 542 l 1
 456 542 l 1
 442 655 l 1
 402 674 372 682 337 682 c 0
 208 682 140 571 140 360 c 0
 140 161 217 48 352 48 c 0
 378 48 401 53 431 64 c 1
 431 262 l 1
 347 262 l 1
 347 322 l 1
 528 322 l 1
258 -206 m 1
 258 -164 l 1
 276 -167 292 -169 305 -169 c 0
 341 -169 359 -158 359 -136 c 0
 359 -111 335 -97 282 -92 c 1
 282 -54 l 1
 382 -56 425 -81 425 -137 c 0
 425 -186 389 -211 318 -211 c 0
 299 -211 280 -209 258 -206 c 1
EndSplineSet
EndChar
StartChar: Imacron
Encoding: 284 298 56
Width: 600
Flags: MW
HStem: 0 60<78 251 78 251 348 521> 663 60<78 251 78 521 348 348 348 521> 783 61<131 469 131 469>
VStem: 251 97<60 663 60 663>
LayerCount: 2
Fore
SplineSet
78 0 m 1
 78 60 l 1
 251 60 l 1
 251 663 l 1
 78 663 l 1
 78 723 l 1
 521 723 l 1
 521 663 l 1
 348 663 l 1
 348 60 l 1
 521 60 l 1
 521 0 l 1
 78 0 l 1
131 783 m 1
 131 844 l 1
 469 844 l 1
 469 783 l 1
 131 783 l 1
EndSplineSet
EndChar
StartChar: imacron
Encoding: 320 299 120
Width: 600
Flags: MW
HStem: 0 60<72 262 72 262 358 539> 469 61<72 262 72 358> 626 61<120 457 120 457>
VStem: 262 96<60 469 469 469>
LayerCount: 2
Fore
SplineSet
72 0 m 1
 72 60 l 1
 262 60 l 1
 262 469 l 1
 72 469 l 1
 72 530 l 1
 358 530 l 1
 358 60 l 1
 539 60 l 1
 539 0 l 1xd0
 72 0 l 1
120 626 m 1
 120 687 l 1
 457 687 l 1
 457 626 l 1x20
 120 626 l 1
EndSplineSet
EndChar
StartChar: Iogonek
Encoding: 285 302 57
Width: 600
Flags: W
HStem: -181 46<410.5 418> 0 60<78 251 78 251 348 521 383 435 435 435> 663 60<78 251 78 521 348 348 348 521>
VStem: 251 97<60 663 60 663> 306 67<-103.5 -83>
LayerCount: 2
Fore
SplineSet
78 0 m 1xf0
 78 60 l 1
 251 60 l 1
 251 663 l 1
 78 663 l 1
 78 723 l 1
 521 723 l 1
 521 663 l 1
 348 663 l 1
 348 60 l 1
 521 60 l 1
 521 0 l 1
 78 0 l 1xf0
383 0 m 1xe8
 435 0 l 1
 392 -28 373 -54 373 -88 c 0
 373 -119 392 -135 429 -135 c 0
 447 -135 460 -133 473 -127 c 1
 473 -167 l 1
 452 -177 431 -181 405 -181 c 0
 340 -181 306 -154 306 -104 c 0
 306 -62 329 -31 383 0 c 1xe8
EndSplineSet
EndChar
StartChar: iogonek
Encoding: 331 303 131
Width: 600
Flags: W
HStem: -181 46<427.5 436> 0 20 0 60<72 262 72 262 358 539 401 453 453 453> 469 61<72 262 72 358> 650 121<258 366 258 366>
VStem: 72 66 258 108<650 771 650 771> 262 96<60 469 469 469>
LayerCount: 2
Fore
SplineSet
72 0 m 1
 72 60 l 1
 262 60 l 1
 262 469 l 1
 72 469 l 1
 72 530 l 1
 358 530 l 1
 358 60 l 1
 539 60 l 1
 539 0 l 1x39
 72 0 l 1
258 650 m 1x3a
 258 771 l 1
 366 771 l 1
 366 650 l 1
 258 650 l 1x3a
401 0 m 1
 453 0 l 1
 409 -28 390 -54 390 -88 c 0
 390 -119 409 -135 446 -135 c 0
 464 -135 478 -132 491 -127 c 1
 491 -167 l 1
 470 -177 449 -181 423 -181 c 0
 358 -181 324 -154 324 -104 c 0xc4
 324 -62 347 -31 401 0 c 1
EndSplineSet
EndChar
StartChar: Idotaccent
Encoding: 265 304 24
Width: 600
Flags: W
HStem: 0 60<78 251 78 251 348 521> 663 60<78 251 78 521 348 348 348 521> 783 96<251 347 251 347>
VStem: 251 96<783 879 783 879> 251 97<60 663 60 663>
LayerCount: 2
Fore
SplineSet
78 0 m 1xe8
 78 60 l 1
 251 60 l 1
 251 663 l 1
 78 663 l 1
 78 723 l 1
 521 723 l 1
 521 663 l 1
 348 663 l 1
 348 60 l 1
 521 60 l 1
 521 0 l 1
 78 0 l 1xe8
251 783 m 1xf0
 251 879 l 1
 347 879 l 1
 347 783 l 1
 251 783 l 1xf0
EndSplineSet
EndChar
StartChar: kcommaaccent
Encoding: 321 311 121
Width: 600
Flags: MW
HStem: -211 42<292 306 281.5 337> 0 20 469 61<323 380 323 534 465 465 465 534>
VStem: 96 97<60 255 60 289 289 711 711 711> 137 66
LayerCount: 2
Fore
SplineSet
401 0 m 1
 401 60 l 1
 205 255 l 1
 193 255 l 1
 193 60 l 1
 241 60 l 1
 241 0 l 1
 36 0 l 1
 36 60 l 1
 96 60 l 1
 96 711 l 1
 36 711 l 1
 36 771 l 1
 193 771 l 1
 193 289 l 1
 205 289 l 1
 380 469 l 1
 323 469 l 1
 323 530 l 1
 534 530 l 1
 534 469 l 1
 465 469 l 1
 288 293 l 1
 526 60 l 1
 574 60 l 1
 574 0 l 1x70
 401 0 l 1
241 -206 m 1
 241 -164 l 1
 259 -167 275 -169 288 -169 c 0
 324 -169 342 -158 342 -136 c 0
 342 -111 318 -97 265 -92 c 1
 265 -54 l 1
 365 -56 408 -81 408 -137 c 0
 408 -186 372 -211 302 -211 c 0x88
 282 -211 264 -209 241 -206 c 1
EndSplineSet
EndChar
StartChar: Lacute
Encoding: 266 313 25
Width: 600
Flags: W
HStem: 0 60<42 163 42 562 42 163> 0 66<259 502 259 562> 663 60<42 163 42 374 259 259 259 374>
VStem: 163 96<66 663 66 663 66 663> 502 60<66 235>
LayerCount: 2
Fore
SplineSet
562 0 m 1x98
 42 0 l 1
 42 60 l 1
 163 60 l 1x98
 163 663 l 1
 42 663 l 1
 42 723 l 1
 374 723 l 1
 374 663 l 1
 259 663 l 1
 259 66 l 1
 502 66 l 1x78
 502 235 l 1
 562 235 l 1
 562 0 l 1x98
199 783 m 1
 304 940 l 1
 416 940 l 1
 259 783 l 1
 199 783 l 1
EndSplineSet
EndChar
StartChar: lacute
Encoding: 303 314 90
Width: 600
Flags: MW
HStem: 0 60<72 262 72 262 358 539> 711 60<72 262 72 358>
VStem: 262 96<60 711 711 711 60 819>
LayerCount: 2
Fore
SplineSet
72 0 m 1
 72 60 l 1
 262 60 l 1
 262 711 l 1
 72 711 l 1
 72 771 l 1
 358 771 l 1
 358 60 l 1
 539 60 l 1
 539 0 l 1xe0
 72 0 l 1
262 819 m 1
 367 976 l 1
 479 976 l 1
 322 819 l 1
 262 819 l 1
EndSplineSet
EndChar
StartChar: Lcommaaccent
Encoding: 287 315 59
Width: 600
Flags: W
HStem: -211 42<304 318 293.5 349> 0 60<42 163 42 562 42 163> 0 66<259 502 259 562> 663 60<42 163 42 374 259 259 259 374>
VStem: 163 96<66 663 66 663 66 663> 354 66<-147 -123.5> 502 60<66 235>
LayerCount: 2
Fore
SplineSet
562 0 m 1x4e
 42 0 l 1
 42 60 l 1
 163 60 l 1xce
 163 663 l 1
 42 663 l 1
 42 723 l 1
 374 723 l 1
 374 663 l 1
 259 663 l 1
 259 66 l 1
 502 66 l 1x3e
 502 235 l 1
 562 235 l 1
 562 0 l 1x4e
253 -206 m 1
 253 -164 l 1
 270 -167 287 -169 300 -169 c 0
 336 -169 354 -158 354 -136 c 0
 354 -111 330 -97 277 -92 c 1
 277 -54 l 1
 377 -56 420 -81 420 -137 c 0
 420 -186 384 -211 314 -211 c 0
 294 -211 276 -209 253 -206 c 1
EndSplineSet
EndChar
StartChar: lcommaaccent
Encoding: 322 316 122
Width: 600
Flags: MW
HStem: -211 42<295 309 284.5 340> 0 60<72 262 72 262 358 539> 711 60<72 262 72 358>
VStem: 173 66 262 96<60 711 711 711>
LayerCount: 2
Fore
SplineSet
72 0 m 1
 72 60 l 1
 262 60 l 1
 262 711 l 1
 72 711 l 1
 72 771 l 1
 358 771 l 1
 358 60 l 1
 539 60 l 1
 539 0 l 1x68
 72 0 l 1
244 -206 m 1
 244 -164 l 1
 262 -167 278 -169 291 -169 c 0
 327 -169 345 -158 345 -136 c 0
 345 -111 321 -97 268 -92 c 1
 268 -54 l 1
 368 -56 411 -81 411 -137 c 0
 411 -186 375 -211 305 -211 c 0x90
 285 -211 267 -209 244 -206 c 1
EndSplineSet
EndChar
StartChar: Lcaron
Encoding: 267 317 26
Width: 600
Flags: W
HStem: 0 60<42 163 42 562 42 163> 0 66<259 502 259 562> 663 60<42 163 42 374 259 259 259 374>
VStem: 163 96<66 663 66 663 66 663> 458 96<501 639 530 639 627 639 639 723 596 723> 502 60<66 235>
LayerCount: 2
Fore
SplineSet
562 0 m 1x94
 42 0 l 1
 42 60 l 1
 163 60 l 1xb4
 163 663 l 1
 42 663 l 1
 42 723 l 1
 374 723 l 1
 374 663 l 1
 259 663 l 1
 259 66 l 1
 502 66 l 1x74
 502 235 l 1
 562 235 l 1
 562 0 l 1x94
458 501 m 1xa8
 458 530 l 1
 484 539 495 566 495 618 c 2
 495 627 l 1
 458 627 l 1
 458 723 l 1
 554 723 l 1
 554 639 l 2
 554 553 525 511 458 501 c 1xa8
EndSplineSet
EndChar
StartChar: lcaron
Encoding: 304 318 91
Width: 600
Flags: MW
HStem: 0 60<60 250 60 250 346 527> 711 60<60 250 60 346>
VStem: 250 96<60 711 711 711> 443 96<549 687 578 687 675 687 687 771 644 771>
LayerCount: 2
Fore
SplineSet
60 0 m 1
 60 60 l 1
 250 60 l 1
 250 711 l 1
 60 711 l 1
 60 771 l 1
 346 771 l 1
 346 60 l 1
 527 60 l 1
 527 0 l 1
 60 0 l 1
443 549 m 1
 443 578 l 1
 469 587 480 614 480 666 c 2
 480 675 l 1
 443 675 l 1
 443 771 l 1
 539 771 l 1
 539 687 l 2
 539 601 510 559 443 549 c 1
EndSplineSet
EndChar
StartChar: Lslash
Encoding: 334 321 164
Width: 600
Flags: W
HStem: 0 60<42 163 42 163 42 562> 0 66<259 502 259 562> 663 60<42 163 42 373 259 259 259 373>
VStem: 163 96<66 318 318 318 434 663> 502 60<66 235 0 235>
LayerCount: 2
Fore
SplineSet
42 0 m 1x98
 42 60 l 1
 163 60 l 1x98
 163 318 l 1
 42 258 l 1
 42 325 l 1
 163 386 l 1
 163 663 l 1
 42 663 l 1
 42 723 l 1
 373 723 l 1
 373 663 l 1
 259 663 l 1
 259 434 l 1
 403 506 l 1
 403 439 l 1
 259 366 l 1
 259 66 l 1
 502 66 l 1x78
 502 235 l 1
 562 235 l 1
 562 0 l 1
 42 0 l 1x98
EndSplineSet
EndChar
StartChar: lslash
Encoding: 339 322 200
Width: 600
Flags: MW
HStem: 0 60<72 262 72 262 358 540> 711 60<72 262 72 358>
VStem: 262 96<60 355 355 355 471 711 711 711>
LayerCount: 2
Fore
SplineSet
72 0 m 1
 72 60 l 1
 262 60 l 1
 262 355 l 1
 120 285 l 1
 120 352 l 1
 262 423 l 1
 262 711 l 1
 72 711 l 1
 72 771 l 1
 358 771 l 1
 358 471 l 1
 501 542 l 1
 501 475 l 1
 358 404 l 1
 358 60 l 1
 540 60 l 1
 540 0 l 1
 72 0 l 1
EndSplineSet
EndChar
StartChar: Nacute
Encoding: 268 323 27
Width: 600
Flags: MW
HStem: 0 20 703 20<36 150 150 150 395 564 564 564>
VStem: 90 60<60 526 60 663> 449 61<0 663 198 663 0 663>
LayerCount: 2
Fore
SplineSet
36 0 m 1
 36 60 l 1
 90 60 l 1
 90 663 l 1
 36 663 l 1
 36 723 l 1
 150 723 l 1
 448 198 l 1
 449 198 l 1
 449 663 l 1
 395 663 l 1
 395 723 l 1
 564 723 l 1
 564 663 l 1
 510 663 l 1
 510 0 l 1
 449 0 l 1
 151 526 l 1
 150 526 l 1
 150 60 l 1
 204 60 l 1
 204 0 l 1
 36 0 l 1
241 783 m 1
 346 940 l 1
 457 940 l 1
 301 783 l 1
 241 783 l 1
EndSplineSet
EndChar
StartChar: nacute
Encoding: 305 324 92
Width: 600
Flags: W
HStem: 0 20 467 75<329 360.5> 510 20<34 191 191 191>
VStem: 94 97<60 344 428 469 469 469> 414 96<60 342 342 352 60 383.5>
LayerCount: 2
Fore
SplineSet
34 0 m 1
 34 60 l 1
 94 60 l 1
 94 469 l 1
 34 469 l 1
 34 530 l 1
 191 530 l 1xb8
 191 428 l 1
 244 508 295 542 363 542 c 0
 460 542 510 477 510 352 c 2
 510 60 l 1
 571 60 l 1
 571 0 l 1
 366 0 l 1
 366 60 l 1
 414 60 l 1
 414 342 l 2
 414 425 387 467 334 467 c 0
 283 467 239 429 191 344 c 1
 191 60 l 1
 245 60 l 1
 245 0 l 1xd8
 34 0 l 1
239 626 m 1
 344 783 l 1
 456 783 l 1
 299 626 l 1
 239 626 l 1
EndSplineSet
EndChar
StartChar: Ncommaaccent
Encoding: 288 325 60
Width: 600
Flags: MW
HStem: -211 42<285.5 300 275.5 330.5> 0 20 703 20<36 150 150 150 395 564 564 564>
VStem: 90 60<60 526 60 663> 336 66<-147 -123.5> 449 61<0 663 198 663 0 663>
LayerCount: 2
Fore
SplineSet
36 0 m 1
 36 60 l 1
 90 60 l 1
 90 663 l 1
 36 663 l 1
 36 723 l 1
 150 723 l 1
 448 198 l 1
 449 198 l 1
 449 663 l 1
 395 663 l 1
 395 723 l 1
 564 723 l 1
 564 663 l 1
 510 663 l 1
 510 0 l 1
 449 0 l 1
 151 526 l 1
 150 526 l 1
 150 60 l 1
 204 60 l 1
 204 0 l 1
 36 0 l 1
235 -206 m 1
 235 -164 l 1
 252 -167 269 -169 282 -169 c 0
 318 -169 336 -158 336 -136 c 0
 336 -111 312 -97 259 -92 c 1
 259 -54 l 1
 359 -56 402 -81 402 -137 c 0
 402 -186 366 -211 295 -211 c 0
 276 -211 257 -209 235 -206 c 1
EndSplineSet
EndChar
StartChar: ncommaaccent
Encoding: 323 326 123
Width: 600
Flags: W
HStem: -211 42<290 304 279.5 335> 0 20 467 75<329 360.5> 510 20<34 191 191 191>
VStem: 94 97<60 344 428 469 469 469> 135 66 414 96<60 342 342 352 60 383.5>
LayerCount: 2
Fore
SplineSet
34 0 m 1
 34 60 l 1
 94 60 l 1
 94 469 l 1
 34 469 l 1
 34 530 l 1
 191 530 l 1x5a
 191 428 l 1
 244 508 295 542 363 542 c 0
 460 542 510 477 510 352 c 2
 510 60 l 1
 571 60 l 1
 571 0 l 1
 366 0 l 1
 366 60 l 1
 414 60 l 1
 414 342 l 2
 414 425 387 467 334 467 c 0
 283 467 239 429 191 344 c 1
 191 60 l 1
 245 60 l 1
 245 0 l 1x6a
 34 0 l 1
239 -206 m 1
 239 -164 l 1
 257 -167 273 -169 286 -169 c 0
 322 -169 340 -158 340 -136 c 0
 340 -111 316 -97 263 -92 c 1
 263 -54 l 1
 363 -56 406 -81 406 -137 c 0
 406 -186 370 -211 300 -211 c 0x84
 280 -211 262 -209 239 -206 c 1
EndSplineSet
EndChar
StartChar: omacron
Encoding: 324 333 124
Width: 600
Flags: MW
HStem: -12 61<252.5 346.5 252.5 374.5> 482 60<253 347> 626 61<131 468 131 468>
VStem: 54 104<193.5 337.5 193.5 351.5> 442 104<194.5 338>
LayerCount: 2
Fore
SplineSet
300 542 m 0
 453 542 546 438 546 266 c 0
 546 91 453 -12 296 -12 c 0
 147 -12 54 94 54 265 c 0xd8
 54 438 147 542 300 542 c 0
300 482 m 0
 206 482 158 409 158 266 c 0
 158 121 205 49 300 49 c 0
 393 49 442 123 442 266 c 0
 442 410 394 482 300 482 c 0
131 626 m 1
 131 687 l 1
 468 687 l 1
 468 626 l 1x20
 131 626 l 1
EndSplineSet
EndChar
StartChar: Ohungarumlaut
Encoding: 270 336 35
Width: 600
Flags: MW
HStem: -18 60<247.5 354.5 247.5 378.5> 681 60<247.5 352.5>
VStem: 30 104<260.5 463 260.5 474.5> 466 104<256.5 462.5>
LayerCount: 2
Fore
SplineSet
300 741 m 0
 460 741 570 586 570 363 c 0
 570 135 460 -18 297 -18 c 0
 140 -18 30 139 30 362 c 0
 30 587 140 741 300 741 c 0
300 681 m 0
 195 681 134 564 134 362 c 0
 134 159 195 42 300 42 c 0
 409 42 466 152 466 361 c 0
 466 564 405 681 300 681 c 0
153 783 m 1
 270 940 l 1
 363 940 l 1
 207 783 l 1
 153 783 l 1
324 783 m 1
 442 940 l 1
 535 940 l 1
 378 783 l 1
 324 783 l 1
EndSplineSet
EndChar
StartChar: OE
Encoding: 140 338 160
Width: 600
Flags: W
HStem: -18 60<186.5 233.5> 0 66<391 510 391 570> 343 61<391 462 391 462> 663 60<391 498 391 391> 682 60<189 233 153 249>
VStem: 19 98<251.5 470.5 251.5 479> 298 93<0 343 36 343 177 343 404 546 546 591> 498 60<570 663 663 663> 510 60<66 180 0 180>
LayerCount: 2
Fore
SplineSet
298 0 m 1x7280
 298 36 l 1
 277 -2 253 -18 214 -18 c 0
 93 -18 19 126 19 361 c 0
 19 597 93 742 213 742 c 0x8f
 253 742 278 726 298 687 c 1
 298 723 l 1
 558 723 l 1
 558 570 l 1
 498 570 l 1
 498 663 l 1x77
 391 663 l 1
 391 404 l 1
 462 404 l 1
 462 464 l 1
 516 464 l 1
 516 283 l 1
 462 283 l 1
 462 343 l 1
 391 343 l 1
 391 66 l 1
 510 66 l 1
 510 180 l 1
 570 180 l 1
 570 0 l 1
 298 0 l 1x7280
298 177 m 2
 298 546 l 2
 298 636 273 682 225 682 c 0
 153 682 117 576 117 365 c 0
 117 138 149 42 224 42 c 0x8f
 274 42 298 86 298 177 c 2
EndSplineSet
EndChar
StartChar: oe
Encoding: 156 339 193
Width: 600
Flags: W
HStem: -12 60<176.5 227.5> -12 72<429.5 462> 259 60<360 486 360 576 359 486> 481 61<412 449.5> 482 60<176.5 230 149 233>
VStem: 24 93<192 337 192 348>
LayerCount: 2
Fore
SplineSet
576 102 m 1x74
 576 27 l 1
 525 0 483 -12 441 -12 c 0x4c
 388 -12 350 9 316 58 c 1
 288 9 253 -12 202 -12 c 0
 95 -12 24 98 24 264 c 0
 24 432 95 542 203 542 c 0x8c
 257 542 293 518 324 464 c 1
 354 519 387 542 437 542 c 0
 529 542 576 460 576 296 c 2
 576 259 l 1
 359 259 l 1
 359 251 l 2
 359 124 395 60 464 60 c 0
 498 60 532 73 576 102 c 1x74
206 482 m 0
 147 482 117 410 117 264 c 0
 117 120 147 48 206 48 c 0xac
 259 48 275 96 275 262 c 0
 275 433 260 482 206 482 c 0
360 319 m 1
 486 319 l 1
 486 349 l 2
 486 438 468 481 431 481 c 0x34
 384 481 362 430 360 319 c 1
EndSplineSet
EndChar
StartChar: Racute
Encoding: 271 340 36
Width: 600
Flags: MW
HStem: 0 20 663 60<42 105 42 328 201 201 201 288>
VStem: 105 96<60 316 376 663> 410 103<504.5 578>
LayerCount: 2
Fore
SplineSet
42 0 m 1
 42 60 l 1
 105 60 l 1
 105 663 l 1
 42 663 l 1
 42 723 l 1
 328 723 l 2
 443 723 513 656 513 546 c 0
 513 463 477 404 391 346 c 1
 544 60 l 1
 587 60 l 1
 587 0 l 1
 464 0 l 1
 298 316 l 1
 201 316 l 1
 201 60 l 1
 264 60 l 1
 264 0 l 1
 42 0 l 1
201 376 m 1
 249 376 l 2
 356 376 410 430 410 535 c 0
 410 621 370 663 288 663 c 2
 201 663 l 1
 201 376 l 1
220 783 m 1
 325 940 l 1
 437 940 l 1
 280 783 l 1
 220 783 l 1
EndSplineSet
EndChar
StartChar: Rcommaaccent
Encoding: 290 342 62
Width: 600
Flags: W
HStem: -211 42<315.5 330 305.5 360.5> 0 20 663 60<42 105 42 328 201 201 201 288>
VStem: 105 96<60 316 376 663> 366 66<-147 -123.5> 410 103<504.5 578>
LayerCount: 2
Fore
SplineSet
42 0 m 1xf4
 42 60 l 1
 105 60 l 1
 105 663 l 1
 42 663 l 1
 42 723 l 1
 328 723 l 2
 443 723 513 656 513 546 c 0
 513 463 477 404 391 346 c 1
 544 60 l 1
 587 60 l 1
 587 0 l 1
 464 0 l 1
 298 316 l 1
 201 316 l 1
 201 60 l 1
 264 60 l 1
 264 0 l 1
 42 0 l 1xf4
201 376 m 1
 249 376 l 2
 356 376 410 430 410 535 c 0
 410 621 370 663 288 663 c 2
 201 663 l 1
 201 376 l 1
265 -206 m 1xe8
 265 -164 l 1
 283 -167 299 -169 312 -169 c 0
 348 -169 366 -158 366 -136 c 0
 366 -111 342 -97 289 -92 c 1
 289 -54 l 1
 389 -56 432 -81 432 -137 c 0
 432 -186 396 -211 325 -211 c 0
 306 -211 287 -209 265 -206 c 1xe8
EndSplineSet
EndChar
StartChar: rcommaaccent
Encoding: 325 343 125
Width: 600
Flags: W
HStem: -211 42<262 276 251.5 307> 0 60<36 162 258 439 36 162> 458 84<396 422.5> 469 61<36 162 36 258>
VStem: 137 66 162 96<60 342 60 427 427 469 469 469>
LayerCount: 2
Fore
SplineSet
258 342 m 1
 258 60 l 1
 439 60 l 1
 439 0 l 1
 36 0 l 1
 36 60 l 1
 162 60 l 1
 162 469 l 1
 36 469 l 1
 36 530 l 1
 258 530 l 1x54
 258 427 l 1
 316 509 364 542 428 542 c 0
 468 542 503 531 540 508 c 1
 540 348 l 1
 479 348 l 1
 469 440 l 1
 450 453 433 458 412 458 c 0x24
 349 458 302 423 258 342 c 1
211 -206 m 1
 211 -164 l 1
 229 -167 245 -169 258 -169 c 0
 294 -169 312 -158 312 -136 c 0
 312 -111 288 -97 235 -92 c 1
 235 -54 l 1
 335 -56 378 -81 378 -137 c 0
 378 -186 342 -211 272 -211 c 0x88
 252 -211 234 -209 211 -206 c 1
EndSplineSet
EndChar
StartChar: rcaron
Encoding: 328 345 128
Width: 600
Flags: W
HStem: 0 60<36 162 258 439 36 162> 458 84<396 422.5> 469 61<36 162 36 258>
VStem: 162 96<60 342 60 427 427 469 469 469>
LayerCount: 2
Fore
SplineSet
258 342 m 1
 258 60 l 1
 439 60 l 1
 439 0 l 1
 36 0 l 1
 36 60 l 1
 162 60 l 1
 162 469 l 1
 36 469 l 1
 36 530 l 1
 258 530 l 1xb0
 258 427 l 1
 316 509 364 542 428 542 c 0
 468 542 503 531 540 508 c 1
 540 348 l 1
 479 348 l 1
 469 440 l 1
 450 453 433 458 412 458 c 0x50
 349 458 302 423 258 342 c 1
466 783 m 1
 341 626 l 1
 234 626 l 1
 109 783 l 1
 170 783 l 1
 287 684 l 1
 288 684 l 1
 406 783 l 1
 466 783 l 1
EndSplineSet
EndChar
StartChar: Scedilla
Encoding: 274 350 40
Width: 600
Flags: W
HStem: -211 42<273.5 282 256 312.5> -18 60<276.5 339 276.5 365.5> 0 20 681 60<262.5 321>
VStem: 90 94<532.5 600.5 532.5 612.5> 316 68<-145 -117> 437 96<138 204>
LayerCount: 2
Fore
SplineSet
74 30 m 1x5e
 74 205 l 1
 134 205 l 1
 146 90 l 1
 210 56 255 42 298 42 c 0
 380 42 437 98 437 178 c 0
 437 230 405 271 339 306 c 2
 247 354 l 2
 125 417 90 461 90 549 c 0
 90 676 164 741 309 741 c 0
 370 741 425 730 491 705 c 1
 491 531 l 1
 431 531 l 1
 419 645 l 1
 376 670 341 681 301 681 c 0
 224 681 184 640 184 561 c 0
 184 504 200 486 296 434 c 2
 378 390 l 2
 504 322 533 287 533 202 c 0
 533 68 439 -18 292 -18 c 0
 223 -18 157 -4 74 30 c 1x5e
271 0 m 1xae
 318 0 l 1
 289 -53 l 1
 343 -54 384 -88 384 -131 c 0
 384 -176 341 -211 284 -211 c 0
 263 -211 239 -208 214 -201 c 1
 214 -161 l 1
 230 -166 247 -169 265 -169 c 0
 299 -169 316 -157 316 -133 c 0
 316 -101 288 -87 224 -85 c 1
 271 0 l 1xae
EndSplineSet
EndChar
StartChar: scedilla
Encoding: 329 351 129
Width: 600
Flags: MW
HStem: -211 42<287.5 296 270 326.5> -12 61<295.5 357 295.5 374.5> 0 20 482 60<259.5 322>
VStem: 87 92<384.5 428.5 384.5 438.5> 186 68 435 96<104 152>
LayerCount: 2
Fore
SplineSet
84 30 m 1
 84 175 l 1
 144 175 l 1
 156 85 l 1
 225 59 272 49 319 49 c 0
 395 49 435 77 435 131 c 0
 435 173 412 194 346 211 c 2
 246 238 l 2
 134 267 87 312 87 387 c 0
 87 490 158 542 298 542 c 0
 373 542 432 531 494 507 c 1
 494 367 l 1
 434 367 l 1
 422 456 l 1
 385 474 346 482 298 482 c 0
 221 482 179 454 179 403 c 0
 179 366 211 340 279 322 c 2
 378 296 l 2
 487 268 531 226 531 153 c 0
 531 49 446 -12 303 -12 c 0x5a
 227 -12 160 1 84 30 c 1
285 0 m 1
 332 0 l 1
 303 -53 l 1
 356 -54 398 -88 398 -131 c 0
 398 -176 355 -211 298 -211 c 0
 277 -211 253 -208 228 -201 c 1
 228 -161 l 1
 244 -166 261 -169 279 -169 c 0
 313 -169 330 -157 330 -133 c 0
 330 -101 302 -87 238 -85 c 1xa4
 285 0 l 1
EndSplineSet
EndChar
StartChar: scaron
Encoding: 154 353 103
Width: 600
Flags: MW
HStem: -12 61<295.5 357 295.5 374.5> 482 60<259.5 322>
VStem: 87 92<384.5 428.5 384.5 438.5> 435 96<104 152>
LayerCount: 2
Fore
SplineSet
84 30 m 1
 84 175 l 1
 144 175 l 1
 156 85 l 1
 225 59 272 49 319 49 c 0
 395 49 435 77 435 131 c 0
 435 173 412 194 346 211 c 2
 246 238 l 2
 134 267 87 312 87 387 c 0
 87 490 158 542 298 542 c 0
 373 542 432 531 494 507 c 1
 494 367 l 1
 434 367 l 1
 422 456 l 1
 385 474 346 482 298 482 c 0
 221 482 179 454 179 403 c 0
 179 366 211 340 279 322 c 2
 378 296 l 2
 487 268 531 226 531 153 c 0
 531 49 446 -12 303 -12 c 0xf0
 227 -12 160 1 84 30 c 1
485 783 m 1
 360 626 l 1
 253 626 l 1
 128 783 l 1
 189 783 l 1
 306 684 l 1
 307 684 l 1
 425 783 l 1
 485 783 l 1
EndSplineSet
EndChar
StartChar: Tcommaaccent
Encoding: 282 354 53
Width: 600
Flags: W
HStem: -211 42<291.5 300 274 330.5> 0 60<125 252 125 252 349 475 125 336> 663 60<90 252 90 90 349 349 349 509>
VStem: 30 60<531 663 531 723> 252 97<60 663 60 663> 334 68<-145 -117> 509 61<531 663 663 663>
LayerCount: 2
Fore
SplineSet
125 0 m 1xfa
 125 60 l 1
 252 60 l 1
 252 663 l 1
 90 663 l 1
 90 531 l 1
 30 531 l 1
 30 723 l 1
 570 723 l 1
 570 531 l 1
 509 531 l 1
 509 663 l 1
 349 663 l 1
 349 60 l 1
 475 60 l 1
 475 0 l 1
 125 0 l 1xfa
289 0 m 1xe4
 336 0 l 1
 307 -53 l 1
 361 -54 402 -88 402 -131 c 0
 402 -176 359 -211 302 -211 c 0
 281 -211 257 -208 232 -201 c 1
 232 -161 l 1
 248 -166 265 -169 283 -169 c 0
 317 -169 334 -157 334 -133 c 0
 334 -101 306 -87 242 -85 c 1
 289 0 l 1xe4
EndSplineSet
EndChar
StartChar: tcommaaccent
Encoding: 317 355 117
Width: 600
Flags: W
HStem: -211 42<309 317 291.5 348> -12 72<336.5 369> 0 20 452 66<58 194 58 194 290 498>
VStem: 194 96<146 190 190 452 518 650> 351 68<-145 -117>
LayerCount: 2
Fore
SplineSet
504 98 m 1x5c
 504 30 l 1
 447 1 398 -12 340 -12 c 0
 236 -12 194 33 194 146 c 2
 194 452 l 1
 58 452 l 1
 58 518 l 1
 194 518 l 1
 194 650 l 1
 290 650 l 1
 290 518 l 1
 498 518 l 1
 498 452 l 1
 290 452 l 1
 290 190 l 2
 290 87 306 60 367 60 c 0
 404 60 445 71 504 98 c 1x5c
306 0 m 1xac
 353 0 l 1
 324 -53 l 1
 378 -54 419 -88 419 -131 c 0
 419 -176 376 -211 320 -211 c 0
 298 -211 275 -208 249 -201 c 1
 249 -161 l 1
 265 -166 283 -169 300 -169 c 0
 334 -169 351 -157 351 -133 c 0
 351 -101 323 -87 260 -85 c 1
 306 0 l 1xac
EndSplineSet
EndChar
StartChar: Tcaron
Encoding: 275 356 41
Width: 600
Flags: MW
HStem: 0 60<125 252 125 252 349 475> 663 60<90 252 90 90 349 349 349 509>
VStem: 30 60<531 663 531 723> 252 97<60 663 60 663> 509 61<531 663 663 663>
LayerCount: 2
Fore
SplineSet
125 0 m 1
 125 60 l 1
 252 60 l 1
 252 663 l 1
 90 663 l 1
 90 531 l 1
 30 531 l 1
 30 723 l 1
 570 723 l 1
 570 531 l 1
 509 531 l 1
 509 663 l 1
 349 663 l 1
 349 60 l 1
 475 60 l 1
 475 0 l 1
 125 0 l 1
479 940 m 1
 353 783 l 1
 247 783 l 1
 121 940 l 1
 182 940 l 1
 300 841 l 1
 301 841 l 1
 419 940 l 1
 479 940 l 1
EndSplineSet
EndChar
StartChar: Uring
Encoding: 276 366 46
Width: 600
Flags: W
HStem: -18 60<277.5 363 277.5 368.5> 703 20<30 253 253 253 383 570 570 570> 771 42<276.5 314.5 276.5 326.5> 951 42<277 315>
VStem: 90 97<269 663> 185 42<863 901.5 863 913> 365 42<863.5 902> 449 60<260 663>
LayerCount: 2
Fore
SplineSet
90 663 m 1xf9
 30 663 l 1
 30 723 l 1
 253 723 l 1
 253 663 l 1
 187 663 l 1
 187 256 l 2
 187 119 235 42 320 42 c 0
 406 42 449 114 449 260 c 2
 449 663 l 1
 383 663 l 1
 383 723 l 1
 570 723 l 1
 570 663 l 1
 509 663 l 1
 509 242 l 2
 509 77 434 -18 303 -18 c 0
 162 -18 90 79 90 269 c 2
 90 663 l 1xf9
296 993 m 0xf6
 358 993 407 944 407 882 c 0
 407 819 358 771 295 771 c 0
 234 771 185 821 185 882 c 0
 185 944 234 993 296 993 c 0xf6
296 951 m 0
 258 951 227 921 227 882 c 0
 227 844 258 813 295 813 c 0
 334 813 365 844 365 883 c 0
 365 921 334 951 296 951 c 0
EndSplineSet
EndChar
StartChar: uring
Encoding: 312 367 110
Width: 600
Flags: W
HStem: -12 76<243 275> 0 20 510 20<33 190 190 190 358 509 509 509> 626 42<278.5 316.5 278.5 328.5> 805 43<279 317>
VStem: 33 42 93 97<177 188 188 469 469 469> 213 42 412 97<60 102 102 102 186 469 469 469>
LayerCount: 2
Fore
SplineSet
358 530 m 1
 509 530 l 1
 509 60 l 1
 569 60 l 1
 569 0 l 1
 412 0 l 1x6280
 412 102 l 1
 359 22 309 -12 241 -12 c 0
 144 -12 93 53 93 177 c 2
 93 469 l 1
 33 469 l 1
 33 530 l 1
 190 530 l 1
 190 188 l 2
 190 106 217 64 269 64 c 0
 320 64 363 101 412 186 c 1
 412 469 l 1
 358 469 l 1xa280
 358 530 l 1
298 848 m 0
 360 848 409 799 409 737 c 0
 409 674 360 626 297 626 c 0
 236 626 187 675 187 737 c 0x1d
 187 799 236 848 298 848 c 0
298 805 m 0
 260 805 229 775 229 737 c 0
 229 699 260 668 297 668 c 0
 336 668 367 698 367 737 c 0
 367 775 336 805 298 805 c 0
EndSplineSet
EndChar
StartChar: Uhungarumlaut
Encoding: 277 368 47
Width: 600
Flags: MW
HStem: -18 60<277.5 363 277.5 368.5> 703 20<30 253 253 253 383 570 570 570>
VStem: 90 97<269 663> 449 60<260 663>
LayerCount: 2
Fore
SplineSet
90 663 m 1
 30 663 l 1
 30 723 l 1
 253 723 l 1
 253 663 l 1
 187 663 l 1
 187 256 l 2
 187 119 235 42 320 42 c 0
 406 42 449 114 449 260 c 2
 449 663 l 1
 383 663 l 1
 383 723 l 1
 570 723 l 1
 570 663 l 1
 509 663 l 1
 509 242 l 2
 509 77 434 -18 303 -18 c 0
 162 -18 90 79 90 269 c 2
 90 663 l 1
187 783 m 1
 304 940 l 1
 398 940 l 1
 241 783 l 1
 187 783 l 1
359 783 m 1
 476 940 l 1
 570 940 l 1
 413 783 l 1
 359 783 l 1
EndSplineSet
EndChar
StartChar: Uogonek
Encoding: 293 370 65
Width: 600
Flags: W
HStem: -181 46<361 369> -18 60<277.5 363 277.5 368.5> 0 20 703 20<30 253 253 253 383 570 570 570>
VStem: 90 97<269 663> 257 66<-103.5 -83> 449 60<260 663>
LayerCount: 2
Fore
SplineSet
90 663 m 1x5e
 30 663 l 1
 30 723 l 1
 253 723 l 1
 253 663 l 1
 187 663 l 1
 187 256 l 2
 187 119 235 42 320 42 c 0
 406 42 449 114 449 260 c 2
 449 663 l 1
 383 663 l 1
 383 723 l 1
 570 723 l 1
 570 663 l 1
 509 663 l 1
 509 242 l 2
 509 77 434 -18 303 -18 c 0
 162 -18 90 79 90 269 c 2
 90 663 l 1x5e
335 0 m 1xae
 387 0 l 1
 342 -28 323 -54 323 -88 c 0
 323 -119 342 -135 380 -135 c 0
 398 -135 412 -133 425 -127 c 1
 425 -167 l 1
 403 -177 382 -181 356 -181 c 0
 291 -181 257 -154 257 -104 c 0
 257 -62 280 -31 335 0 c 1xae
EndSplineSet
EndChar
StartChar: uogonek
Encoding: 327 371 127
Width: 600
Flags: W
HStem: -181 46<481.5 490> -12 76<243 275> 0 20 0 20 510 20<33 190 190 190 358 509 509 509>
VStem: 33 66 93 97<177 188 188 469 469 469> 412 97<60 102 102 102 186 469 469 469>
LayerCount: 2
Fore
SplineSet
358 530 m 1
 509 530 l 1
 509 60 l 1
 569 60 l 1
 569 0 l 1
 412 0 l 1x2b
 412 102 l 1
 359 22 309 -12 241 -12 c 0
 144 -12 93 53 93 177 c 2
 93 469 l 1
 33 469 l 1
 33 530 l 1
 190 530 l 1
 190 188 l 2
 190 106 217 64 269 64 c 0
 320 64 363 101 412 186 c 1
 412 469 l 1
 358 469 l 1x4b
 358 530 l 1
455 0 m 1
 507 0 l 1
 463 -28 444 -54 444 -88 c 0
 444 -119 463 -135 500 -135 c 0
 518 -135 532 -132 545 -127 c 1
 545 -167 l 1
 524 -177 503 -181 477 -181 c 0
 412 -181 378 -154 378 -104 c 0x94
 378 -62 401 -31 455 0 c 1
EndSplineSet
EndChar
StartChar: Ydieresis
Encoding: 159 376 54
Width: 600
Flags: W
HStem: 0 60<144 252 144 252 348 456> 663 60<13 55 13 239 167 167 167 239 403 475 544 544 544 586> 783 96<158 254 158 254 387 483>
VStem: 158 96<783 879 783 879> 252 96<60 322 322 322> 387 96<783 879 783 879>
LayerCount: 2
Fore
SplineSet
144 0 m 1xe8
 144 60 l 1
 252 60 l 1
 252 322 l 1
 55 663 l 1
 13 663 l 1
 13 723 l 1
 239 723 l 1
 239 663 l 1
 167 663 l 1
 320 397 l 1
 321 397 l 1
 475 663 l 1
 403 663 l 1
 403 723 l 1
 586 723 l 1
 586 663 l 1
 544 663 l 1
 348 323 l 1
 348 60 l 1
 456 60 l 1
 456 0 l 1
 144 0 l 1xe8
158 783 m 1xf4
 158 879 l 1
 254 879 l 1
 254 783 l 1
 158 783 l 1xf4
387 783 m 1
 387 879 l 1
 483 879 l 1
 483 783 l 1
 387 783 l 1
EndSplineSet
EndChar
StartChar: Zacute
Encoding: 278 377 49
Width: 600
Flags: MW
HStem: 0 66<72 72 179 467> 663 60<141 414 141 141 81 522>
VStem: 81 60<530 663 530 723> 467 61<66 211 0 211>
LayerCount: 2
Fore
SplineSet
72 0 m 1
 72 66 l 1
 414 663 l 1
 141 663 l 1
 141 530 l 1
 81 530 l 1
 81 723 l 1
 522 723 l 1
 522 663 l 1
 179 66 l 1
 467 66 l 1
 467 211 l 1
 528 211 l 1
 528 0 l 1
 72 0 l 1
239 783 m 1
 345 940 l 1
 456 940 l 1
 300 783 l 1
 239 783 l 1
EndSplineSet
EndChar
StartChar: zdotaccent
Encoding: 316 380 115
Width: 600
Flags: MW
HStem: 0 69<60 60 176 473> 469 61<138 399 138 138 78 516> 627 96<248 344 248 344>
VStem: 60 96 78 60<373 469 373 530> 473 61<69 168 0 168>
LayerCount: 2
Fore
SplineSet
60 0 m 1
 60 69 l 1
 399 469 l 1
 138 469 l 1
 138 373 l 1
 78 373 l 1
 78 530 l 1
 516 530 l 1
 516 469 l 1
 176 69 l 1
 473 69 l 1
 473 168 l 1
 534 168 l 1
 534 0 l 1xcc
 60 0 l 1
248 627 m 1
 248 723 l 1
 344 723 l 1
 344 627 l 1x30
 248 627 l 1
EndSplineSet
EndChar
StartChar: Zcaron
Encoding: 279 381 50
Width: 600
Flags: MW
HStem: 0 66<72 72 179 467> 663 60<141 414 141 141 81 522>
VStem: 81 60<530 663 530 723> 467 61<66 211 0 211>
LayerCount: 2
Fore
SplineSet
72 0 m 1
 72 66 l 1
 414 663 l 1
 141 663 l 1
 141 530 l 1
 81 530 l 1
 81 723 l 1
 522 723 l 1
 522 663 l 1
 179 66 l 1
 467 66 l 1
 467 211 l 1
 528 211 l 1
 528 0 l 1
 72 0 l 1
478 940 m 1
 353 783 l 1
 246 783 l 1
 121 940 l 1
 181 940 l 1
 299 841 l 1
 300 841 l 1
 418 940 l 1
 478 940 l 1
EndSplineSet
EndChar
StartChar: zcaron
Encoding: 315 382 114
Width: 600
Flags: MW
HStem: 0 69<60 60 176 473> 469 61<138 399 138 138 78 516>
VStem: 78 60<373 469 373 530> 473 61<69 168 0 168>
LayerCount: 2
Fore
SplineSet
60 0 m 1
 60 69 l 1
 399 469 l 1
 138 469 l 1
 138 373 l 1
 78 373 l 1
 78 530 l 1
 516 530 l 1
 516 469 l 1
 176 69 l 1
 473 69 l 1
 473 168 l 1
 534 168 l 1
 534 0 l 1xf0
 60 0 l 1
475 783 m 1
 350 626 l 1
 243 626 l 1
 118 783 l 1
 179 783 l 1
 296 684 l 1
 297 684 l 1
 415 783 l 1
 475 783 l 1
EndSplineSet
EndChar
StartChar: florin
Encoding: 131 402 216
Width: 600
Flags: MW
HStem: 356 60<57 141 57 153 249 368> 678 63<363.5 401.5>
LayerCount: 2
Fore
SplineSet
41 -145 m 1
 141 356 l 1
 57 356 l 1
 57 416 l 1
 153 416 l 1
 166 484 l 2
 199 654 291 741 436 741 c 0
 461 741 493 738 528 732 c 1
 528 570 l 1
 468 570 l 1
 456 666 l 1
 430 674 410 678 393 678 c 0
 332 678 291 627 271 526 c 2
 249 416 l 1
 368 416 l 1
 368 356 l 1
 237 356 l 1
 138 -145 l 1
 41 -145 l 1
EndSplineSet
EndChar
StartChar: Scommaaccent
Encoding: 332 536 132
Width: 600
Flags: MW
HStem: -211 42<287.5 302 277 332.5> -18 60<276.5 339 276.5 365.5> 681 60<262.5 321>
VStem: 90 94<532.5 600.5 532.5 612.5> 338 66<-147 -123.5> 437 96<138 204>
LayerCount: 2
Fore
SplineSet
74 30 m 1
 74 205 l 1
 134 205 l 1
 146 90 l 1
 210 56 255 42 298 42 c 0
 380 42 437 98 437 178 c 0
 437 230 405 271 339 306 c 2
 247 354 l 2
 125 417 90 461 90 549 c 0
 90 676 164 741 309 741 c 0
 370 741 425 730 491 705 c 1
 491 531 l 1
 431 531 l 1
 419 645 l 1
 376 670 341 681 301 681 c 0
 224 681 184 640 184 561 c 0
 184 504 200 486 296 434 c 2
 378 390 l 2
 504 322 533 287 533 202 c 0
 533 68 439 -18 292 -18 c 0
 223 -18 157 -4 74 30 c 1
237 -206 m 1
 237 -164 l 1
 255 -167 270 -169 284 -169 c 0
 320 -169 338 -158 338 -136 c 0
 338 -111 314 -97 261 -92 c 1
 261 -54 l 1
 361 -56 404 -81 404 -137 c 0
 404 -186 368 -211 297 -211 c 0
 278 -211 259 -209 237 -206 c 1
EndSplineSet
EndChar
StartChar: scommaaccent
Encoding: 310 537 104
Width: 600
Flags: MW
HStem: -211 42<298 312 287.5 343> -12 61<295.5 357 295.5 374.5> 482 60<259.5 322>
VStem: 87 92<384.5 428.5 384.5 438.5> 185 66 435 96<104 152>
LayerCount: 2
Fore
SplineSet
84 30 m 1
 84 175 l 1
 144 175 l 1
 156 85 l 1
 225 59 272 49 319 49 c 0
 395 49 435 77 435 131 c 0
 435 173 412 194 346 211 c 2
 246 238 l 2
 134 267 87 312 87 387 c 0
 87 490 158 542 298 542 c 0
 373 542 432 531 494 507 c 1
 494 367 l 1
 434 367 l 1
 422 456 l 1
 385 474 346 482 298 482 c 0
 221 482 179 454 179 403 c 0
 179 366 211 340 279 322 c 2
 378 296 l 2
 487 268 531 226 531 153 c 0
 531 49 446 -12 303 -12 c 0x74
 227 -12 160 1 84 30 c 1
247 -206 m 1
 247 -164 l 1
 265 -167 281 -169 294 -169 c 0
 330 -169 348 -158 348 -136 c 0
 348 -111 324 -97 271 -92 c 1
 271 -54 l 1
 371 -56 414 -81 414 -137 c 0
 414 -186 378 -211 308 -211 c 0x88
 288 -211 270 -209 247 -206 c 1
EndSplineSet
EndChar
StartChar: circumflex
Encoding: 136 710 286
Width: 600
Flags: W
LayerCount: 2
Fore
SplineSet
121 626 m 1
 246 783 l 1
 353 783 l 1
 478 626 l 1
 418 626 l 1
 300 725 l 1
 299 725 l 1
 181 626 l 1
 121 626 l 1
EndSplineSet
EndChar
StartChar: caron
Encoding: 345 711 287
Width: 600
Flags: W
LayerCount: 2
Fore
SplineSet
478 783 m 1
 353 626 l 1
 246 626 l 1
 121 783 l 1
 182 783 l 1
 299 684 l 1
 300 684 l 1
 418 783 l 1
 478 783 l 1
EndSplineSet
EndChar
StartChar: breve
Encoding: 346 728 288
Width: 600
Flags: MW
HStem: 629 69<277 329.5 270 347.5>
LayerCount: 2
Fore
SplineSet
131 771 m 1
 191 771 l 1
 207 720 240 698 300 698 c 0
 359 698 392 720 408 771 c 1
 468 771 l 1
 443 672 393 629 302 629 c 0
 252 629 213 642 184 669 c 0x80
 156 693 143 718 131 771 c 1
EndSplineSet
EndChar
StartChar: dotaccent
Encoding: 343 729 282
Width: 600
Flags: MW
HStem: 627 96<252 348 252 348>
VStem: 252 96<627 723 627 723>
LayerCount: 2
Fore
SplineSet
252 627 m 1
 252 723 l 1
 348 723 l 1
 348 627 l 1xc0
 252 627 l 1
EndSplineSet
EndChar
StartChar: ring
Encoding: 344 730 283
Width: 600
Flags: MW
HStem: 626 42<280.5 318.5 280.5 330.5> 805 43<281 319>
VStem: 189 42<718 756 718 768> 369 42<717.5 756>
LayerCount: 2
Fore
SplineSet
300 848 m 0
 362 848 411 799 411 737 c 0
 411 674 362 626 299 626 c 0
 238 626 189 675 189 737 c 0xf0
 189 799 238 848 300 848 c 0
300 805 m 0
 262 805 231 775 231 737 c 0
 231 699 262 668 299 668 c 0
 338 668 369 698 369 737 c 0
 369 775 338 805 300 805 c 0
EndSplineSet
EndChar
StartChar: ogonek
Encoding: 348 731 292
Width: 600
Flags: MW
HStem: -181 46<320.5 329> 0 20
VStem: 217 66<-103.5 -83>
LayerCount: 2
Fore
SplineSet
294 0 m 1
 346 0 l 1
 302 -28 283 -54 283 -88 c 0
 283 -119 302 -135 339 -135 c 0
 357 -135 371 -132 384 -127 c 1
 384 -167 l 1
 363 -177 342 -181 316 -181 c 0
 251 -181 217 -154 217 -104 c 0xe0
 217 -62 240 -31 294 0 c 1
EndSplineSet
EndChar
StartChar: tilde
Encoding: 152 732 289
Width: 600
Flags: W
HStem: 627 59<364 381.5 364 400.5> 682 60<218 235>
LayerCount: 2
Fore
SplineSet
191 627 m 1
 137 627 l 1
 142 707 170 742 227 742 c 0x40
 250 742 272 736 293 723 c 2
 323 704 l 2
 343 692 358 686 370 686 c 0
 393 686 404 703 408 742 c 1
 462 742 l 1
 456 662 429 627 372 627 c 0x80
 348 627 325 634 305 646 c 2
 276 664 l 2
 257 676 241 682 229 682 c 0x40
 207 682 194 665 191 627 c 1
EndSplineSet
EndChar
StartChar: hungarumlaut
Encoding: 347 733 290
Width: 600
Flags: W
LayerCount: 2
Fore
SplineSet
109 626 m 1
 226 783 l 1
 320 783 l 1
 163 626 l 1
 109 626 l 1
280 626 m 1
 398 783 l 1
 491 783 l 1
 335 626 l 1
 280 626 l 1
EndSplineSet
EndChar
StartChar: endash
Encoding: 150 8211 243
Width: 600
Flags: MW
HStem: 265 72<59 541 59 541>
LayerCount: 2
Fore
SplineSet
59 265 m 1
 59 337 l 1
 541 337 l 1
 541 265 l 1
 59 265 l 1
EndSplineSet
EndChar
StartChar: emdash
Encoding: 151 8212 244
Width: 600
Flags: MW
HStem: 265 60<0 600 0 600>
LayerCount: 2
Fore
SplineSet
0 265 m 1
 0 325 l 1
 600 325 l 1
 600 265 l 1
 0 265 l 1
EndSplineSet
EndChar
StartChar: quoteleft
Encoding: 145 8216 228
Width: 600
Flags: MW
VStem: 222 145<470 558 558 599>
LayerCount: 2
Fore
SplineSet
367 615 m 1
 367 470 l 1
 222 470 l 1
 222 558 l 2
 222 640 240 698 275 733 c 0
 299 757 321 766 367 771 c 1
 367 723 l 1
 323 715 312 694 307 615 c 1
 367 615 l 1
EndSplineSet
EndChar
StartChar: quoteright
Encoding: 146 8217 268
Width: 600
Flags: MW
VStem: 234 145<470 683 518 683 642 683 683 771 642 771>
LayerCount: 2
Fore
SplineSet
234 626 m 1
 234 771 l 1
 379 771 l 1
 379 683 l 2
 379 601 361 542 326 508 c 0
 302 483 280 474 234 470 c 1
 234 518 l 1
 278 526 289 547 294 626 c 1
 234 626 l 1
EndSplineSet
EndChar
StartChar: quotesinglbase
Encoding: 130 8218 267
Width: 600
Flags: MW
HStem: 0 20
VStem: 234 145<-156 57 -108 57 16 57 57 145 16 145>
LayerCount: 2
Fore
SplineSet
234 0 m 1
 234 145 l 1
 379 145 l 1
 379 57 l 2
 379 -25 361 -83 326 -118 c 0
 302 -142 280 -151 234 -156 c 1
 234 -108 l 1
 278 -100 289 -79 294 0 c 1
 234 0 l 1
EndSplineSet
EndChar
StartChar: quotedblleft
Encoding: 147 8220 230
Width: 600
Flags: MW
VStem: 113 121<506 627 506 628 506 674> 354 120<506 627 506 628 506 674>
LayerCount: 2
Fore
SplineSet
113 506 m 1
 113 628 l 2
 113 720 150 764 234 771 c 1
 234 723 l 1
 198 714 183 693 183 654 c 2
 183 627 l 1
 234 627 l 1
 234 506 l 1
 113 506 l 1
354 506 m 1
 354 628 l 2
 354 720 390 764 474 771 c 1
 474 723 l 1
 438 714 423 693 423 654 c 2
 423 627 l 1
 474 627 l 1
 474 506 l 1
 354 506 l 1
EndSplineSet
EndChar
StartChar: quotedblright
Encoding: 148 8221 229
Width: 600
Flags: MW
VStem: 125 121<506 649 554 649 650 771> 365 121<506 649 554 649 650 771>
LayerCount: 2
Fore
SplineSet
486 771 m 1
 486 649 l 2
 486 557 449 513 365 506 c 1
 365 554 l 1
 401 563 416 584 416 623 c 2
 416 650 l 1
 365 650 l 1
 365 771 l 1
 486 771 l 1
246 771 m 1
 246 649 l 2
 246 557 209 513 125 506 c 1
 125 554 l 1
 161 563 176 584 176 623 c 2
 176 650 l 1
 125 650 l 1
 125 771 l 1
 246 771 l 1
EndSplineSet
EndChar
StartChar: quotedblbase
Encoding: 132 8222 231
Width: 600
Flags: MW
HStem: 0 20
VStem: 125 121<-144 -1 -96 -1 0 121> 365 121<-144 -1 -96 -1 0 121>
LayerCount: 2
Fore
SplineSet
486 121 m 1
 486 -1 l 2
 486 -93 449 -137 365 -144 c 1
 365 -96 l 1
 401 -87 416 -66 416 -27 c 2
 416 0 l 1
 365 0 l 1
 365 121 l 1
 486 121 l 1
246 121 m 1
 246 -1 l 2
 246 -93 209 -137 125 -144 c 1
 125 -96 l 1
 161 -87 176 -66 176 -27 c 2
 176 0 l 1
 125 0 l 1
 125 121 l 1
 246 121 l 1
EndSplineSet
EndChar
StartChar: dagger
Encoding: 134 8224 251
Width: 600
Flags: MW
HStem: 703 20<252 348 348 348>
LayerCount: 2
Fore
SplineSet
252 -145 m 1
 264 404 l 1
 83 397 l 1
 83 470 l 1
 264 464 l 1
 252 723 l 1
 348 723 l 1
 336 464 l 1
 517 470 l 1
 517 397 l 1
 336 404 l 1
 348 -145 l 1
 252 -145 l 1
EndSplineSet
EndChar
StartChar: daggerdbl
Encoding: 135 8225 252
Width: 600
Flags: MW
HStem: 703 20<252 348 348 348>
VStem: 264 72<114 114 175 404>
LayerCount: 2
Fore
SplineSet
252 -145 m 1
 264 114 l 1
 83 108 l 1
 83 181 l 1
 264 175 l 1
 264 404 l 1
 83 397 l 1
 83 470 l 1
 264 464 l 1
 252 723 l 1
 348 723 l 1
 336 464 l 1
 517 470 l 1
 517 397 l 1
 336 404 l 1
 336 175 l 1
 517 181 l 1
 517 108 l 1
 336 114 l 1
 348 -145 l 1
 252 -145 l 1
EndSplineSet
EndChar
StartChar: bullet
Encoding: 149 8226 299
Width: 600
Flags: MW
HStem: 522 20<259.5 340>
LayerCount: 2
Fore
SplineSet
300 542 m 0
 380 542 444 478 444 398 c 0
 444 316 380 253 298 253 c 0
 219 253 155 317 155 397 c 0
 155 478 219 542 300 542 c 0
EndSplineSet
EndChar
StartChar: perthousand
Encoding: 137 8240 279
Width: 600
Flags: W
HStem: 0 20 0 45<268 297 268 308.5 490.5 519> 256 45<267.5 296 490 518.5> 420 45<83 111.5 83 123> 675 46<82 110.5> 703 20<315 365 365 365>
VStem: 6 47<535 605 535 616> 140 46<535.5 604.5> 192 46<115.5 185.5 115.5 196> 325 47<116 185.5> 415 46<115.5 185.5 115.5 196> 547 47<116.5 185.5>
LayerCount: 2
Fore
SplineSet
96 721 m 0x9bf0
 150 721 186 661 186 571 c 0
 186 479 151 420 95 420 c 0
 42 420 6 480 6 571 c 0
 6 661 42 721 96 721 c 0x9bf0
96 675 m 0
 68 675 53 640 53 570 c 0
 53 500 68 465 98 465 c 0
 125 465 140 501 140 570 c 0
 140 639 125 675 96 675 c 0
14 0 m 1
 315 723 l 1
 365 723 l 1xa7f0
 63 0 l 1
 14 0 l 1
282 301 m 0
 336 301 372 241 372 151 c 0
 372 59 336 0 281 0 c 0x63f0
 228 0 192 60 192 151 c 0
 192 241 228 301 282 301 c 0
282 256 m 0
 253 256 238 220 238 151 c 0
 238 80 253 45 283 45 c 0
 311 45 325 81 325 151 c 0
 325 220 310 256 282 256 c 0
505 301 m 0
 558 301 594 241 594 151 c 0
 594 59 559 0 503 0 c 0
 450 0 415 60 415 151 c 0
 415 241 451 301 505 301 c 0
504 256 m 0
 476 256 461 220 461 151 c 0
 461 80 476 45 505 45 c 0
 533 45 547 82 547 151 c 0
 547 220 533 256 504 256 c 0
EndSplineSet
EndChar
StartChar: guilsinglleft
Encoding: 139 8249 239
Width: 600
Flags: W
LayerCount: 2
Fore
SplineSet
462 440 m 1
 248 265 l 1
 462 90 l 1
 420 48 l 1
 114 265 l 1
 420 482 l 1
 462 440 l 1
EndSplineSet
EndChar
StartChar: guilsinglright
Encoding: 155 8250 238
Width: 600
Flags: W
LayerCount: 2
Fore
SplineSet
138 90 m 1
 352 265 l 1
 138 440 l 1
 180 482 l 1
 486 265 l 1
 180 48 l 1
 138 90 l 1
EndSplineSet
EndChar
StartChar: fraction
Encoding: 342 8260 277
Width: 600
Flags: MW
HStem: -18 20 721 20<455 524 524 524>
LayerCount: 2
Fore
SplineSet
76 -18 m 1
 455 741 l 1
 524 741 l 1
 143 -18 l 1
 76 -18 l 1
EndSplineSet
EndChar
StartChar: Euro
Encoding: 128 8364 217
Width: 600
Flags: MW
HStem: -18 66<340 392.5> 262 60<28 61 28 68 3 61 171 412 171 171> 418 61<28 62 3 70 175 476> 681 60<324.5 374.5>
VStem: 540 10
LayerCount: 2
Fore
SplineSet
62 418 m 1
 3 418 l 1
 28 479 l 1
 70 479 l 1
 96 590 126 646 185 690 c 0
 230 724 286 741 354 741 c 0
 410 741 465 732 540 710 c 1
 540 572 l 1
 480 572 l 1
 466 655 l 1
 428 673 393 681 356 681 c 0
 293 681 246 653 214 597 c 0
 196 565 187 537 175 479 c 1
 501 479 l 1
 476 418 l 1
 166 418 l 1
 165 391 164 372 164 358 c 2
 165 322 l 1
 436 322 l 1
 412 262 l 1
 171 262 l 1
 184 192 198 156 224 120 c 0
 258 72 308 48 372 48 c 0
 433 48 488 68 550 114 c 1
 550 36 l 1
 480 -2 424 -18 361 -18 c 0
 284 -18 219 5 170 51 c 0
 118 99 92 153 68 262 c 1
 3 262 l 1
 28 322 l 1
 61 322 l 1
 60 365 l 1
 59 370 l 1
 59 370 59 372 60 375 c 2
 60 386 l 2
 60 387 60 391 61 397 c 2
 61 410 l 1
 62 418 l 1
EndSplineSet
EndChar
StartChar: trademark
Encoding: 153 8482 264
Width: 600
Flags: MW
HStem: 703 20<21 247 247 247 271 374 374 374 486 584 584 584>
VStem: 107 54<406 678 406 678> 299 48<406 630 361 678> 505 51<406 644 644 644>
LayerCount: 2
Fore
SplineSet
69 361 m 1
 69 406 l 1
 107 406 l 1
 107 678 l 1
 65 678 l 1
 65 630 l 1
 21 630 l 1
 21 723 l 1
 247 723 l 1
 247 630 l 1
 203 630 l 1
 203 678 l 1
 161 678 l 1
 161 406 l 1
 199 406 l 1
 199 361 l 1
 69 361 l 1
271 361 m 1
 271 406 l 1
 299 406 l 1
 299 678 l 1
 271 678 l 1
 271 723 l 1
 374 723 l 1
 434 506 l 1
 486 723 l 1
 584 723 l 1
 584 678 l 1
 556 678 l 1
 556 406 l 1
 584 406 l 1
 584 361 l 1
 505 361 l 1
 505 644 l 1
 447 428 l 1
 405 428 l 1
 348 630 l 1
 347 630 l 1
 347 361 l 1
 271 361 l 1
EndSplineSet
EndChar
StartChar: minus
Encoding: 341 8722 260
Width: 600
Flags: MW
HStem: 265 72<48 551 48 551>
LayerCount: 2
Fore
SplineSet
48 265 m 1
 48 337 l 1
 551 337 l 1
 551 265 l 1
 48 265 l 1
EndSplineSet
EndChar
StartChar: fi
Encoding: 336 64257 197
Width: 600
Flags: W
HStem: 0 20 458 66<37 94 37 94 191 413> 657 96<293 510 413 510 413 510> 727 57<230 254>
VStem: 94 97<60 458 60 458 524 609 609 635> 413 97<60 458 458 458 657 753>
LayerCount: 2
Fore
SplineSet
34 0 m 1xdc
 34 60 l 1
 94 60 l 1
 94 458 l 1
 37 458 l 1
 37 524 l 1
 94 524 l 1
 94 609 l 2
 94 715 155 784 249 784 c 0xdc
 280 784 311 777 353 760 c 1
 353 657 l 1
 293 657 l 1x2c
 281 717 l 1
 268 724 259 727 249 727 c 0
 211 727 191 696 191 635 c 2
 191 524 l 1
 510 524 l 1
 510 60 l 1
 570 60 l 1
 570 0 l 1
 365 0 l 1
 365 60 l 1
 413 60 l 1
 413 458 l 1
 191 458 l 1
 191 60 l 1
 245 60 l 1
 245 0 l 1
 34 0 l 1xdc
413 657 m 1x2c
 413 753 l 1
 510 753 l 1
 510 657 l 1
 413 657 l 1x2c
EndSplineSet
EndChar
StartChar: fl
Encoding: 337 64258 198
Width: 600
Flags: MW
HStem: 0 20 452 66<37 94 37 94 191 336> 726 57<254 300 223.5 311.5>
VStem: 94 97<60 452 60 452 518 609 609 635> 414 96<60 708 708 708 60 771>
LayerCount: 2
Fore
SplineSet
191 518 m 1
 336 518 l 1
 336 452 l 1
 191 452 l 1
 191 60 l 1
 245 60 l 1
 245 0 l 1
 34 0 l 1
 34 60 l 1
 94 60 l 1
 94 452 l 1
 37 452 l 1
 37 518 l 1
 94 518 l 1
 94 609 l 2
 94 725 159 783 288 783 c 0
 312 783 354 780 384 775 c 2
 414 771 l 1
 510 771 l 1
 510 60 l 1
 571 60 l 1
 571 0 l 1
 366 0 l 1
 366 60 l 1
 414 60 l 1
 414 708 l 1
 369 721 331 726 292 726 c 0
 216 726 191 704 191 635 c 2
 191 518 l 1
EndSplineSet
EndChar
StartChar: commaaccent
Encoding: 350 -1 294
Width: 600
Flags: MW
HStem: -211 42<278 292 267.5 323>
VStem: 328 66<-147 -123.5>
LayerCount: 2
Fore
SplineSet
227 -206 m 1
 227 -164 l 1
 245 -167 261 -169 274 -169 c 0
 310 -169 328 -158 328 -136 c 0
 328 -111 304 -97 251 -92 c 1
 251 -54 l 1
 351 -56 394 -81 394 -137 c 0
 394 -186 358 -211 288 -211 c 0xc0
 268 -211 250 -209 227 -206 c 1
EndSplineSet
EndChar
